<svg xmlns="http://www.w3.org/2000/svg" viewBox="0 0 1280 927.04"><defs><style>.cls-1{fill:tan;}</style></defs><g id="Brandmark"><path class="cls-1" d="M878.88,768s334.31-258.68,226-571.49l-22.21,11.05S1200.2,455.74,863,749Z"/><path class="cls-1" d="M952.8,134.39s-29.3,96.57,92.42,148C1045.22,282.34,1093.84,168.71,952.8,134.39Z"/><path class="cls-1" d="M954.4,279.51S916.82,373.15,1033.61,435C1033.61,435,1091.92,326,954.4,279.51Z"/><path class="cls-1" d="M934.73,398.16s-60.46,80.7,36.39,170.73C971.12,568.89,1055.56,478.78,934.73,398.16Z"/><path class="cls-1" d="M886.34,517.26s-79.23,62.26-8.92,174.36C877.42,691.62,982.25,626.5,886.34,517.26Z"/><path class="cls-1" d="M975.85,733.61s39.46-92.87,165.64-53.77C1141.49,679.84,1105.89,798.23,975.85,733.61Z"/><path class="cls-1" d="M1070.1,623.47s31.24-96,160.33-68C1230.43,555.44,1205.26,676.49,1070.1,623.47Z"/><path class="cls-1" d="M1131.08,519.9s5.41-100.79,137.31-107.33C1268.39,412.57,1275.33,536,1131.08,519.9Z"/><path class="cls-1" d="M1170.36,397.47s-20.79-98.77,104.93-139.31C1275.29,258.16,1313.85,375.61,1170.36,397.47Z"/><path class="cls-1" d="M1174,272.07s-53.22-85.68,51.09-166.91C1225.1,105.16,1301.39,202.31,1174,272.07Z"/><path class="cls-1" d="M1096.74,166.1s-92.6-39.57-53.61-166.1C1043.13,0,1161.18,35.69,1096.74,166.1Z"/><path class="cls-1" d="M401.12,768s-334.31-258.68-226-571.49l22.21,11.05S79.8,455.74,417,749Z"/><path class="cls-1" d="M327.2,134.39s29.3,96.57-92.42,148C234.78,282.34,186.16,168.71,327.2,134.39Z"/><path class="cls-1" d="M325.6,279.51S363.18,373.15,246.39,435C246.39,435,188.08,326,325.6,279.51Z"/><path class="cls-1" d="M345.27,398.16s60.46,80.7-36.39,170.73C308.88,568.89,224.44,478.78,345.27,398.16Z"/><path class="cls-1" d="M393.66,517.26s79.23,62.26,8.92,174.36C402.58,691.62,297.75,626.5,393.66,517.26Z"/><path class="cls-1" d="M304.15,733.61s-39.46-92.87-165.64-53.77C138.51,679.84,174.11,798.23,304.15,733.61Z"/><path class="cls-1" d="M209.9,623.47s-31.24-96-160.33-68C49.57,555.44,74.74,676.49,209.9,623.47Z"/><path class="cls-1" d="M148.92,519.9S143.51,419.11,11.61,412.57C11.61,412.57,4.67,536,148.92,519.9Z"/><path class="cls-1" d="M109.64,397.47S130.43,298.7,4.71,258.16C4.71,258.16-33.85,375.61,109.64,397.47Z"/><path class="cls-1" d="M106,272.07s53.22-85.68-51.09-166.91C54.9,105.16-21.39,202.31,106,272.07Z"/><path class="cls-1" d="M183.26,166.1S275.86,126.53,236.87,0C236.87,0,118.82,35.69,183.26,166.1Z"/><path class="cls-1" d="M640,487,541,697.49l-7.37,15.43-.47,1h0A177.64,177.64,0,0,0,520,780.26c.06,38.94,12.73,76.24,35.23,103.75s53,43,84.79,43c27.21,0,53.61-11.26,74.88-32S751,845.21,757,812.73A176.91,176.91,0,0,0,748,716.25Z"/></g></svg>