<svg width="496" height="496" viewBox="0 0 496 496" fill="none" xmlns="http://www.w3.org/2000/svg">
<path d="M422.66 73.3399C376.337 27.0172 313.51 0.993408 248 0.993408C182.49 0.993409 119.663 27.0172 73.34 73.34C27.0173 119.663 0.993462 182.49 0.993462 248C0.993461 313.51 27.0173 376.337 73.34 422.66C119.663 468.983 182.49 495.006 248 495.006C313.51 495.006 376.337 468.983 422.66 422.66C468.983 376.337 495.007 313.51 495.007 248C495.007 182.49 468.983 119.663 422.66 73.3399V73.3399Z" fill="white"/>
<path d="M248 486C200.928 485.999 154.914 472.041 115.776 445.889C76.6374 419.737 46.1328 382.567 28.1193 339.078C10.1059 295.59 5.39273 247.736 14.5758 201.569C23.7588 155.402 46.4257 112.995 79.71 79.7099C101.777 57.4609 128.021 39.7888 156.936 27.7078C185.85 15.6268 216.865 9.37479 248.202 9.31056C279.539 9.24633 310.58 15.3712 339.543 27.3335C368.507 39.2959 394.823 56.8603 416.981 79.0186C439.14 101.177 456.704 127.493 468.666 156.457C480.629 185.42 486.754 216.461 486.689 247.798C486.625 279.134 480.373 310.15 468.292 339.064C456.211 367.979 438.539 394.223 416.29 416.29C394.241 438.459 368.014 456.035 339.127 468.001C310.24 479.967 279.267 486.084 248 486V486Z" fill="white"/>
<path d="M248 14C301.984 14.0338 354.298 32.7275 396.078 66.9143C437.858 101.101 466.536 148.679 477.254 201.589C487.972 254.499 480.071 309.487 454.89 357.238C429.709 404.99 388.795 442.569 339.08 463.61C281.949 487.48 217.687 487.74 160.364 464.333C103.042 440.926 57.3293 395.76 33.2352 338.723C9.14104 281.686 8.62861 217.426 31.8101 160.012C54.9915 102.598 99.978 56.708 156.92 32.39C185.733 20.1945 216.712 13.9397 248 14V14ZM248 6C114.35 6 6 114.35 6 248C6 381.65 114.35 490 248 490C381.65 490 490 381.65 490 248C490 114.35 381.65 6 248 6Z" fill="#DADADA"/>
<path d="M248 467.19C369.055 467.19 467.19 369.055 467.19 248C467.19 126.945 369.055 28.8099 248 28.8099C126.945 28.8099 28.81 126.945 28.81 248C28.81 369.055 126.945 467.19 248 467.19Z" stroke="#008BD2" stroke-width="30" stroke-miterlimit="10"/>
<path d="M115.85 79.77L117.85 82.16L107.85 90.53L97.09 77.67L106.81 69.5L108.81 71.89L102.05 77.57L104.39 80.36L110.39 75.36L112.34 77.68L106.34 82.68L108.84 85.68L115.85 79.77Z" fill="white"/>
<path d="M128.73 74C127.9 74.3098 127.025 74.4854 126.14 74.52L125.69 71.59C126.452 71.5641 127.206 71.4294 127.93 71.19C128.705 70.956 129.444 70.6197 130.13 70.19C131.45 69.32 131.89 68.55 131.46 67.9C131.354 67.7416 131.196 67.625 131.014 67.5703C130.831 67.5155 130.636 67.5261 130.46 67.6C129.803 67.7794 129.168 68.0344 128.57 68.36C127.765 68.7453 126.937 69.0793 126.09 69.36C125.408 69.5697 124.683 69.5904 123.99 69.42C123.195 69.2009 122.519 68.676 122.11 67.96C121.671 67.3135 121.456 66.5404 121.5 65.76C121.574 64.9002 121.89 64.0787 122.41 63.39C123.06 62.5124 123.867 61.763 124.79 61.18C125.555 60.6749 126.373 60.2557 127.23 59.93C127.973 59.6241 128.759 59.4384 129.56 59.38L129.99 62.29C128.688 62.3797 127.432 62.8109 126.35 63.54C125.816 63.8535 125.366 64.2929 125.04 64.82C124.943 64.9778 124.891 65.1596 124.891 65.345C124.891 65.5304 124.943 65.7122 125.04 65.87C125.146 66.0285 125.302 66.1477 125.482 66.2091C125.663 66.2706 125.859 66.2709 126.04 66.21C126.729 66.021 127.399 65.7665 128.04 65.45C128.845 65.073 129.669 64.7392 130.51 64.45C131.183 64.2486 131.897 64.2279 132.58 64.39C133.356 64.6145 134.016 65.1305 134.42 65.83C134.857 66.4654 135.061 67.2316 135 68C134.918 68.8633 134.592 69.6855 134.06 70.37C133.382 71.2557 132.553 72.0141 131.61 72.61C130.711 73.1901 129.744 73.657 128.73 74V74Z" fill="white"/>
<path d="M154 58.6899C153.771 59.1351 153.459 59.5323 153.08 59.8599C152.659 60.2524 152.188 60.5885 151.68 60.8599C150.574 61.539 149.247 61.7613 147.98 61.4799C147.376 61.2812 146.822 60.9576 146.351 60.5304C145.881 60.1031 145.506 59.5817 145.25 58.9999L142.79 54.3099L141.03 55.2299L139.69 52.6799L141.45 51.7599L140 48.9299L143.32 47.1899L144.77 49.9999L147.62 48.4999L149 50.9999L146.16 52.4999L148.6 57.1499C148.785 57.5684 149.126 57.8984 149.55 58.0699C149.759 58.1331 149.98 58.1515 150.197 58.124C150.414 58.0964 150.623 58.0235 150.81 57.9099C151.3 57.6754 151.695 57.2802 151.93 56.7899L154 58.6899Z" fill="white"/>
<path d="M169.81 39.8199C170.541 40.1292 171.196 40.5947 171.728 41.1837C172.26 41.7728 172.656 42.4712 172.89 43.2299L175.6 50.0799L172.35 51.3699L171.75 49.8799C171.543 51.2466 170.543 52.2866 168.75 52.9999C167.93 53.3403 167.047 53.5039 166.16 53.4799C165.422 53.4548 164.708 53.2188 164.1 52.7999C163.519 52.3854 163.073 51.8077 162.82 51.1399C162.599 50.6379 162.504 50.0898 162.542 49.5427C162.58 48.9957 162.751 48.4662 163.04 47.9999C163.918 46.8182 165.146 45.9434 166.55 45.4999L169.32 44.4099C169.218 44.0834 169.048 43.7824 168.82 43.5272C168.592 43.2719 168.313 43.0683 168 42.9299C167.227 42.7099 166.401 42.7847 165.68 43.1399C165.04 43.3763 164.443 43.714 163.91 44.1399C163.411 44.5381 162.988 45.0224 162.66 45.5699L160.45 43.6299C160.973 42.8565 161.626 42.1798 162.38 41.6299C163.185 41.0353 164.066 40.551 165 40.1899C166.502 39.4736 168.216 39.3417 169.81 39.8199V39.8199ZM170.12 49.2699C170.471 48.8128 170.648 48.2457 170.62 47.6699L170.13 46.4399L167.75 47.3799C166.32 47.9499 165.75 48.6999 166.16 49.6399C166.241 49.855 166.375 50.0459 166.55 50.1946C166.725 50.3433 166.935 50.445 167.16 50.4899C167.696 50.6013 168.253 50.5383 168.75 50.3099C169.291 50.0909 169.764 49.7319 170.12 49.2699V49.2699Z" fill="white"/>
<path d="M195.34 31.3399C196.421 31.6161 197.402 32.1914 198.17 32.9999C198.986 33.9027 199.578 34.9856 199.896 36.1604C200.214 37.3353 200.249 38.5686 200 39.7599C199.725 40.8416 199.153 41.8251 198.35 42.5999C197.513 43.4001 196.477 43.9627 195.35 44.2299C194.628 44.4689 193.861 44.5401 193.107 44.4378C192.353 44.3356 191.632 44.0627 191 43.6399L191.38 45.0799L187.93 45.9899L183.39 28.7699L187.01 27.7699L188.61 33.8299C188.956 33.195 189.436 32.6428 190.016 32.2112C190.596 31.7796 191.262 31.4789 191.97 31.3299C193.076 31.0452 194.236 31.0486 195.34 31.3399ZM195.97 39.8799C196.189 39.4598 196.323 39.0007 196.364 38.5288C196.405 38.0569 196.353 37.5815 196.21 37.1299C196.01 36.1944 195.449 35.3754 194.65 34.8499C193.884 34.4081 192.974 34.2863 192.118 34.5109C191.263 34.7356 190.53 35.2886 190.08 36.0499C189.863 36.4706 189.73 36.9301 189.691 37.402C189.652 37.8739 189.706 38.3489 189.85 38.7999C189.944 39.2651 190.13 39.707 190.396 40.1001C190.662 40.4932 191.003 40.8296 191.4 41.0899C191.781 41.3156 192.202 41.4634 192.641 41.5247C193.079 41.586 193.525 41.5596 193.953 41.447C194.381 41.3345 194.782 41.1379 195.134 40.8689C195.485 40.5999 195.78 40.2637 196 39.8799H195.97Z" fill="white"/>
<path d="M210.73 22.5999L214.43 22.0199L217.19 39.6199L213.49 40.1999L210.73 22.5999Z" fill="white"/>
<path d="M229.37 22.81C229.148 22.6384 228.967 22.4208 228.837 22.1722C228.708 21.9236 228.634 21.6499 228.62 21.37C228.592 21.0917 228.624 20.8106 228.716 20.5463C228.807 20.2821 228.956 20.041 229.15 19.84C229.58 19.3968 230.163 19.1356 230.78 19.11C231.39 19.0383 232.004 19.199 232.5 19.56C232.72 19.7214 232.902 19.93 233.032 20.1704C233.161 20.4108 233.236 20.6771 233.25 20.95C233.282 21.2375 233.251 21.5286 233.16 21.8031C233.068 22.0777 232.918 22.329 232.72 22.54C232.511 22.7647 232.259 22.9457 231.979 23.0727C231.699 23.1997 231.397 23.2702 231.09 23.28C230.478 23.3479 229.863 23.1798 229.37 22.81V22.81ZM229.37 25.21L233.11 24.93L234.11 37.81L230.38 38.09L229.37 25.21Z" fill="white"/>
<path d="M248.45 37.1099C247.591 36.9099 246.771 36.5722 246.02 36.1099L247.31 33.4399C247.951 33.8509 248.648 34.1675 249.38 34.3799C250.159 34.615 250.966 34.7461 251.78 34.7699C253.36 34.7699 254.16 34.4199 254.17 33.6299C254.171 33.4451 254.109 33.2655 253.994 33.1203C253.88 32.9751 253.72 32.8728 253.54 32.8299C252.892 32.6077 252.221 32.46 251.54 32.3899C250.66 32.2503 249.792 32.0498 248.94 31.7899C248.259 31.5748 247.648 31.1812 247.17 30.6499C246.645 30.0151 246.387 29.2013 246.45 28.3799C246.46 27.5978 246.723 26.84 247.2 26.2199C247.746 25.5535 248.471 25.0572 249.29 24.7899C250.321 24.4312 251.409 24.2684 252.5 24.3099C253.416 24.3322 254.328 24.4495 255.22 24.6599C256.004 24.8326 256.756 25.1261 257.45 25.5299L256.16 28.1699C255.032 27.5171 253.753 27.1722 252.45 27.1699C251.834 27.1159 251.215 27.2192 250.65 27.4699C250.478 27.54 250.329 27.6567 250.219 27.8068C250.11 27.957 250.044 28.1346 250.03 28.3199C250.026 28.5129 250.087 28.7016 250.203 28.8558C250.319 29.01 250.483 29.1206 250.67 29.1699C251.319 29.3998 251.989 29.5673 252.67 29.6699C253.543 29.8157 254.405 30.0195 255.25 30.2799C255.921 30.4889 256.522 30.876 256.99 31.3999C257.501 32.0219 257.752 32.8174 257.69 33.6199C257.687 34.3929 257.419 35.1413 256.93 35.7399C256.372 36.4041 255.637 36.8965 254.81 37.1599C253.749 37.5078 252.635 37.6636 251.52 37.6199C250.479 37.5816 249.447 37.4102 248.45 37.1099V37.1099Z" fill="white"/>
<path d="M282.76 28.3299C283.205 28.9677 283.514 29.6898 283.669 30.4517C283.824 31.2136 283.821 31.9992 283.66 32.7599L282.66 40.0799L279 39.5899L279.91 32.8299C280.076 32.0255 279.948 31.1884 279.55 30.4699C279.335 30.1813 279.06 29.9426 278.744 29.77C278.428 29.5974 278.079 29.4951 277.72 29.4699C277.31 29.3967 276.89 29.4095 276.485 29.5077C276.08 29.6058 275.701 29.7871 275.37 30.0399C274.667 30.6758 274.243 31.5633 274.19 32.5099L273.34 38.8399L269.63 38.3399L272 20.6799L275.71 21.1799L274.89 27.3599C275.462 26.9284 276.12 26.6249 276.82 26.4699C277.588 26.2983 278.381 26.2678 279.16 26.3799C279.859 26.4522 280.537 26.6616 281.154 26.9962C281.772 27.3308 282.318 27.7841 282.76 28.3299Z" fill="white"/>
<path d="M318.2 36.78C318.531 37.481 318.718 38.2412 318.751 39.0158C318.784 39.7903 318.661 40.5636 318.39 41.29L316.39 48.4L312.79 47.4L314.66 40.85C314.938 40.081 314.938 39.239 314.66 38.47C314.515 38.1633 314.302 37.8938 314.037 37.6823C313.771 37.4708 313.461 37.3229 313.13 37.25C312.762 37.123 312.37 37.0786 311.983 37.1201C311.596 37.1616 311.223 37.2879 310.89 37.49C310.151 38.0296 309.638 38.8241 309.45 39.72L307.68 45.95L304.08 44.95L305.95 38.4C306.5 36.4 306 35.24 304.43 34.79C304.063 34.6697 303.675 34.6306 303.291 34.6755C302.908 34.7204 302.539 34.8482 302.21 35.05C301.469 35.5814 300.957 36.3752 300.78 37.27L299 43.44L295.4 42.44L298.93 30L302.37 31L302 32.41C302.604 32.0235 303.288 31.7775 304 31.69C304.78 31.611 305.568 31.6857 306.32 31.91C307.144 32.1325 307.906 32.5394 308.55 33.1C309.152 33.6368 309.595 34.3286 309.83 35.1C310.521 34.5822 311.328 34.2391 312.18 34.1C313.084 33.9734 314.005 34.0416 314.88 34.3C315.574 34.4637 316.227 34.7684 316.798 35.195C317.369 35.6216 317.846 36.1611 318.2 36.78V36.78Z" fill="white"/>
<path d="M342.16 53.4L333.24 49.4C333.073 50.1665 333.205 50.968 333.61 51.64C334.072 52.3771 334.754 52.9507 335.56 53.28C336.111 53.535 336.704 53.6875 337.31 53.73C337.896 53.7557 338.48 53.6639 339.03 53.46L339.96 56.24C339.048 56.6225 338.063 56.7976 337.076 56.7526C336.088 56.7077 335.123 56.4437 334.25 55.98C333.018 55.4566 331.928 54.6477 331.07 53.62C330.305 52.7064 329.819 51.5921 329.67 50.41C329.526 49.2107 329.72 47.9951 330.23 46.9C330.711 45.7985 331.477 44.8456 332.45 44.14C333.401 43.4699 334.519 43.0754 335.68 43C336.879 42.9379 338.076 43.159 339.174 43.6454C340.272 44.1319 341.24 44.87 342 45.8C342.702 46.7008 343.132 47.7832 343.24 48.92C343.348 50.1522 343.127 51.3909 342.6 52.51L342.16 53.4ZM335.86 46C335.12 46.2212 334.49 46.7095 334.09 47.37L339.9 50C340.118 49.2675 340.057 48.4805 339.73 47.79C339.391 47.099 338.811 46.5551 338.1 46.26C337.409 45.9053 336.614 45.8129 335.86 46V46Z" fill="white"/>
<path d="M366.8 59.9999C366.954 60.7618 366.95 61.5472 366.788 62.3074C366.627 63.0677 366.311 63.7867 365.86 64.4199L362.05 70.7599L358.85 68.8299L362.36 62.9999C362.841 62.3318 363.055 61.5078 362.96 60.6899C362.887 60.3318 362.735 59.9945 362.515 59.7022C362.295 59.41 362.014 59.1701 361.69 58.9999C361.342 58.769 360.95 58.6133 360.538 58.5427C360.127 58.4721 359.705 58.4882 359.3 58.5899C358.403 58.8955 357.663 59.5423 357.24 60.3899L354 65.8999L350.74 63.9999L357.4 52.9399L360.46 54.7799L359.68 56.0799C360.406 55.8603 361.174 55.8157 361.92 55.9499C362.737 56.0832 363.519 56.379 364.22 56.8199C364.839 57.1528 365.386 57.6054 365.829 58.1512C366.272 58.6971 366.602 59.3255 366.8 59.9999V59.9999Z" fill="white"/>
<path d="M379.7 82.8C379.199 82.7782 378.706 82.6593 378.25 82.45C377.73 82.2193 377.24 81.9273 376.79 81.58C375.714 80.8511 374.965 79.7321 374.7 78.46C374.628 77.8306 374.691 77.193 374.884 76.5896C375.077 75.9862 375.396 75.4307 375.82 74.96L379.07 70.77L377.5 69.55L379.26 67.27L380.84 68.49L382.76 66L385.76 68.29L383.83 70.78L386.37 72.78L384.57 75L382.03 73L378.81 77.16C378.658 77.3289 378.54 77.5264 378.465 77.7409C378.389 77.9555 378.357 78.1829 378.37 78.41C378.398 78.6263 378.471 78.8343 378.585 79.0204C378.698 79.2065 378.85 79.3665 379.03 79.49C379.453 79.8311 379.977 80.0242 380.52 80.04L379.7 82.8Z" fill="white"/>
<path d="M402.5 103.78C402.175 102.639 402.175 101.43 402.5 100.29C402.843 99.1309 403.505 98.0915 404.41 97.2899C405.293 96.4652 406.386 95.901 407.57 95.6599C408.736 95.4385 409.941 95.5458 411.05 95.9699C412.253 96.4307 413.327 97.1751 414.18 98.1399C415.036 99.0404 415.645 100.146 415.95 101.35C416.215 102.447 416.106 103.602 415.64 104.63L412.53 103.53C412.75 102.97 412.807 102.358 412.694 101.767C412.581 101.176 412.302 100.629 411.89 100.19C411.603 99.8461 411.249 99.5636 410.851 99.3592C410.452 99.1547 410.017 99.0326 409.57 98.9999C408.613 99.0386 407.7 99.4139 406.992 100.06C406.284 100.705 405.826 101.58 405.7 102.53C405.679 102.976 405.75 103.422 405.908 103.84C406.067 104.258 406.309 104.639 406.62 104.96C407.01 105.425 407.527 105.767 408.107 105.944C408.687 106.122 409.307 106.127 409.89 105.96L410.67 109.17C409.61 109.53 408.46 109.53 407.4 109.17C406.243 108.777 405.208 108.087 404.4 107.17C403.498 106.213 402.845 105.049 402.5 103.78Z" fill="white"/>
<path d="M417.67 121.91C417.497 120.748 417.649 119.561 418.11 118.48C418.596 117.375 419.378 116.427 420.37 115.74C421.337 115.018 422.487 114.582 423.69 114.48C424.864 114.387 426.042 114.622 427.09 115.16C428.205 115.76 429.169 116.608 429.907 117.637C430.646 118.666 431.139 119.851 431.35 121.1C431.517 122.261 431.358 123.445 430.89 124.52C430.392 125.615 429.615 126.56 428.638 127.262C427.661 127.964 426.517 128.398 425.32 128.52C424.15 128.619 422.975 128.386 421.93 127.85C420.809 127.256 419.842 126.411 419.102 125.38C418.363 124.35 417.873 123.162 417.67 121.91V121.91ZM423.77 124.91C424.712 124.968 425.645 124.702 426.415 124.157C427.184 123.611 427.744 122.818 428 121.91C428.083 121.477 428.075 121.032 427.975 120.603C427.875 120.174 427.686 119.771 427.42 119.42C427.172 119.052 426.85 118.74 426.475 118.504C426.099 118.269 425.679 118.114 425.24 118.05C424.768 117.996 424.291 118.035 423.834 118.165C423.378 118.295 422.952 118.515 422.58 118.81C422.176 119.065 421.827 119.4 421.556 119.793C421.284 120.187 421.095 120.631 421 121.1C420.918 121.535 420.929 121.982 421.03 122.412C421.132 122.843 421.323 123.247 421.59 123.6C421.832 123.976 422.152 124.295 422.528 124.537C422.904 124.778 423.328 124.936 423.77 125V124.91Z" fill="white"/>
<path d="M449.67 153.86C449.39 154.582 448.967 155.241 448.428 155.798C447.889 156.354 447.243 156.797 446.53 157.1L440 160.51L438.27 157.18L444.32 154.04C445.073 153.722 445.689 153.148 446.06 152.42C446.183 152.104 446.233 151.764 446.205 151.426C446.178 151.089 446.073 150.761 445.9 150.47C445.737 150.116 445.498 149.802 445.201 149.55C444.904 149.298 444.556 149.114 444.18 149.01C443.284 148.839 442.356 149.011 441.58 149.49L435.83 152.49L434.1 149.16L440.15 146.02C441.95 145.093 442.477 143.903 441.73 142.45C441.567 142.095 441.328 141.781 441.028 141.53C440.729 141.279 440.378 141.098 440 141C439.104 140.829 438.176 141.001 437.4 141.48L431.65 144.48L429.92 141.16L441.38 135.16L443.03 138.33L441.71 139.02C442.421 139.195 443.079 139.538 443.63 140.02C444.23 140.525 444.72 141.148 445.07 141.85C445.475 142.602 445.701 143.437 445.73 144.29C445.756 145.096 445.555 145.893 445.15 146.59C445.993 146.755 446.785 147.118 447.46 147.65C448.175 148.218 448.758 148.935 449.17 149.75C449.531 150.364 449.762 151.046 449.848 151.753C449.934 152.46 449.874 153.177 449.67 153.86V153.86Z" fill="white"/>
<path d="M460 178.75C459.804 179.848 459.305 180.87 458.56 181.7C457.72 182.578 456.684 183.243 455.536 183.641C454.389 184.039 453.163 184.159 451.96 183.99C450.846 183.808 449.807 183.316 448.96 182.57C448.107 181.804 447.469 180.829 447.11 179.74C446.838 179.071 446.714 178.351 446.747 177.629C446.78 176.908 446.968 176.202 447.3 175.56L441.61 177.56L440.37 174L456.97 168.23L458.14 171.61L456.74 172.1C457.442 172.39 458.07 172.836 458.574 173.404C459.078 173.972 459.446 174.648 459.65 175.38C460.063 176.453 460.183 177.615 460 178.75V178.75ZM451.48 180C452.372 180.318 453.346 180.321 454.241 180.01C455.135 179.699 455.897 179.092 456.4 178.29C456.778 177.49 456.827 176.574 456.537 175.739C456.248 174.903 455.642 174.214 454.85 173.82C453.958 173.495 452.982 173.487 452.085 173.799C451.189 174.11 450.428 174.722 449.93 175.53C449.544 176.328 449.49 177.247 449.781 178.085C450.072 178.923 450.683 179.612 451.48 180V180Z" fill="white"/>
<path d="M469.84 193.42L470.71 197.06L453.38 201.16L452.52 197.52L469.84 193.42Z" fill="white"/>
<path d="M470.49 225L456.12 221.08C454.836 220.844 453.65 220.235 452.71 219.33C451.962 218.495 451.496 217.445 451.38 216.33C451.276 215.667 451.276 214.993 451.38 214.33C451.468 213.722 451.683 213.14 452.01 212.62L454.84 213.62C454.411 214.268 454.226 215.048 454.32 215.82C454.359 216.265 454.545 216.683 454.85 217.01C455.24 217.343 455.702 217.579 456.2 217.7H456.32L468.45 210.39L468.97 214.22L460.83 219L470 221.43L470.49 225Z" fill="white"/>
<path d="M471.32 237.48L471.46 241.22L458.56 241.73L458.42 237.98L471.32 237.48ZM473.72 237.58C473.899 237.359 474.123 237.179 474.377 237.052C474.631 236.925 474.909 236.853 475.193 236.842C475.477 236.831 475.76 236.88 476.023 236.986C476.286 237.093 476.524 237.254 476.72 237.46C477.145 237.904 477.381 238.495 477.38 239.11C477.433 239.724 477.251 240.335 476.87 240.82C476.701 241.033 476.487 241.206 476.243 241.327C475.999 241.448 475.732 241.514 475.46 241.52C475.171 241.541 474.881 241.499 474.61 241.397C474.339 241.296 474.093 241.136 473.89 240.93C473.477 240.477 473.236 239.894 473.209 239.282C473.181 238.67 473.369 238.068 473.74 237.58H473.72Z" fill="white"/>
<path d="M469.55 267.31C468.945 267.795 468.247 268.152 467.499 268.359C466.751 268.565 465.969 268.616 465.2 268.51L457.82 268.05L458.05 264.31L464.86 264.74C465.675 264.853 466.504 264.664 467.19 264.21C467.466 263.979 467.687 263.69 467.838 263.363C467.988 263.036 468.064 262.68 468.06 262.32C468.106 261.905 468.064 261.486 467.939 261.088C467.813 260.69 467.606 260.323 467.33 260.01C466.642 259.358 465.728 259 464.78 259.01L458.41 258.61L458.65 254.87L471.53 255.68L471.31 259.25L469.8 259.16C470.32 259.706 470.71 260.362 470.94 261.08C471.196 261.87 471.295 262.702 471.23 263.53C471.215 264.24 471.059 264.94 470.771 265.589C470.482 266.238 470.067 266.823 469.55 267.31V267.31Z" fill="white"/>
<path d="M466.37 296.55L455.81 294.55C453.48 294.1 451.87 293.17 450.97 291.74C450.028 290.024 449.781 288.012 450.28 286.12C450.502 284.939 450.878 283.792 451.4 282.71C451.831 281.768 452.447 280.921 453.21 280.22L455.58 282.22C454.986 282.731 454.497 283.353 454.14 284.05C453.732 284.791 453.442 285.59 453.28 286.42C453.001 287.425 453.12 288.499 453.61 289.42C453.897 289.808 454.26 290.133 454.679 290.374C455.097 290.615 455.56 290.767 456.04 290.82L456.58 290.92C456.14 290.303 455.84 289.598 455.7 288.854C455.561 288.11 455.584 287.344 455.77 286.61C455.974 285.513 456.445 284.483 457.14 283.61C457.819 282.755 458.718 282.102 459.74 281.72C460.815 281.327 461.98 281.244 463.1 281.48C464.215 281.682 465.253 282.187 466.1 282.94C466.909 283.67 467.503 284.607 467.82 285.65C468.142 286.734 468.197 287.88 467.98 288.99C467.876 289.792 467.584 290.559 467.129 291.227C466.674 291.896 466.068 292.449 465.36 292.84L466.99 293.15L466.37 296.55ZM459.05 290.43C459.278 290.791 459.581 291.099 459.938 291.334C460.295 291.568 460.698 291.724 461.12 291.79C461.537 291.885 461.97 291.889 462.389 291.803C462.808 291.717 463.204 291.542 463.55 291.29C464.237 290.721 464.704 289.931 464.872 289.055C465.04 288.179 464.898 287.272 464.47 286.49C464.232 286.136 463.926 285.832 463.569 285.597C463.213 285.361 462.814 285.199 462.394 285.119C461.975 285.039 461.544 285.043 461.126 285.131C460.708 285.219 460.312 285.388 459.96 285.63C459.252 286.182 458.78 286.983 458.64 287.87C458.441 288.744 458.588 289.662 459.05 290.43V290.43Z" fill="white"/>
<path d="M449 346.67L439 337.26L440.42 333.95L448.93 334.46L442.76 328.53L444.18 325.22L457.88 326.06L456.49 329.3L447.26 328.64L454 335L452.74 337.91L443.5 337.27L450.28 343.61L449 346.67Z" fill="white"/>
<path d="M442.7 357.91L440.83 361.15L429.65 354.7L431.52 351.46L442.7 357.91ZM444.7 359.28C444.965 359.189 445.247 359.159 445.525 359.19C445.803 359.221 446.071 359.313 446.31 359.46C446.559 359.594 446.777 359.779 446.949 360.003C447.122 360.227 447.245 360.485 447.31 360.76C447.438 361.366 447.323 361.998 446.99 362.52C446.708 363.062 446.234 363.479 445.66 363.69C445.401 363.781 445.125 363.814 444.852 363.786C444.579 363.758 444.315 363.671 444.08 363.53C443.826 363.392 443.606 363.201 443.433 362.969C443.261 362.738 443.14 362.472 443.08 362.19C443.012 361.891 443.005 361.581 443.058 361.279C443.111 360.977 443.224 360.688 443.39 360.43C443.66 359.894 444.125 359.482 444.69 359.28H444.7Z" fill="white"/>
<path d="M418.34 373.06C418.336 372.559 418.431 372.063 418.62 371.6C418.825 371.066 419.093 370.559 419.42 370.09C420.098 368.988 421.171 368.186 422.42 367.85C423.045 367.749 423.685 367.781 424.297 367.945C424.908 368.109 425.479 368.4 425.97 368.8L430.32 371.8L431.46 370.17L433.82 371.82L432.68 373.46L435.25 375.26L433.1 378.33L430.53 376.52L428.68 379.16L426.32 377.5L428.17 374.87L423.87 371.87C423.508 371.585 423.049 371.452 422.59 371.5C422.383 371.543 422.188 371.628 422.016 371.75C421.844 371.873 421.699 372.029 421.59 372.21C421.265 372.649 421.096 373.184 421.11 373.73L418.34 373.06Z" fill="white"/>
<path d="M411.69 398.52C410.914 398.536 410.143 398.394 409.425 398.101C408.706 397.809 408.054 397.373 407.51 396.82L402 392L404.46 389.18L409.59 393.67C410.167 394.257 410.939 394.613 411.76 394.67C412.123 394.648 412.476 394.548 412.796 394.375C413.115 394.202 413.393 393.962 413.61 393.67C413.896 393.369 414.117 393.012 414.258 392.621C414.4 392.23 414.458 391.814 414.43 391.4C414.364 390.925 414.203 390.468 413.957 390.056C413.712 389.643 413.386 389.285 413 389L408.2 384.8L410.66 381.98L424 393.75L421.53 396.57L416.84 392.46C416.882 393.176 416.769 393.892 416.51 394.56C416.23 395.296 415.817 395.974 415.29 396.56C414.851 397.11 414.306 397.566 413.688 397.903C413.069 398.239 412.39 398.449 411.69 398.52Z" fill="white"/>
<path d="M377.89 434.93L367.83 421.47L370.95 419.15L375.07 424.67L381.19 420.1L377.06 414.58L380.18 412.25L390.23 425.71L387.12 428L383.12 422.69L377 427.3L381 432.61L377.89 434.93Z" fill="white"/>
<path d="M348.33 439.5L356.84 434.71C356.327 434.131 355.611 433.773 354.84 433.71C353.972 433.637 353.102 433.843 352.36 434.3C351.826 434.593 351.348 434.979 350.95 435.44C350.584 435.895 350.312 436.419 350.15 436.98L347.36 436.08C347.594 435.109 348.043 434.203 348.673 433.428C349.303 432.653 350.098 432.028 351 431.6C352.154 430.921 353.453 430.526 354.79 430.45C355.978 430.376 357.162 430.646 358.2 431.23C359.251 431.829 360.11 432.713 360.68 433.78C361.284 434.818 361.595 436 361.58 437.2C361.561 438.365 361.215 439.502 360.58 440.48C359.923 441.486 359.036 442.323 357.993 442.921C356.95 443.519 355.781 443.861 354.58 443.92C353.437 443.957 352.308 443.662 351.33 443.07C350.277 442.423 349.415 441.508 348.83 440.42C348.74 440.37 348.6 440.07 348.33 439.5ZM358 438.82C358.28 438.103 358.28 437.307 358 436.59L352.46 439.71C352.918 440.324 353.588 440.745 354.34 440.89C355.098 441.033 355.881 440.89 356.54 440.49C357.211 440.126 357.729 439.533 358 438.82Z" fill="white"/>
<path d="M330.49 454.52C329.754 454.223 329.091 453.769 328.547 453.191C328.004 452.612 327.592 451.923 327.34 451.17L324.49 444.38L327.72 443.02L328.34 444.5C328.53 443.12 329.5 442.06 331.27 441.32C332.079 440.951 332.961 440.767 333.85 440.78C334.587 440.788 335.306 441.011 335.92 441.42C336.512 441.823 336.968 442.394 337.23 443.06C337.464 443.554 337.572 444.098 337.546 444.644C337.52 445.19 337.36 445.721 337.08 446.19C336.232 447.398 335.02 448.302 333.62 448.77L330.88 449.92C330.994 450.25 331.18 450.552 331.423 450.802C331.667 451.053 331.963 451.247 332.29 451.37C333.069 451.57 333.894 451.477 334.61 451.11C335.241 450.839 335.827 450.475 336.35 450.03C336.842 449.618 337.256 449.12 337.57 448.56L339.82 450.46C339.31 451.231 338.671 451.907 337.93 452.46C337.125 453.095 336.237 453.616 335.29 454.01C333.808 454.766 332.098 454.947 330.49 454.52V454.52ZM329.99 445.07C329.644 445.536 329.477 446.111 329.52 446.69L330.03 447.9L332.4 446.9C333.81 446.3 334.33 445.54 333.94 444.61C333.856 444.399 333.72 444.213 333.546 444.068C333.371 443.923 333.163 443.824 332.94 443.78C332.401 443.679 331.844 443.753 331.35 443.99C330.812 444.224 330.346 444.596 330 445.07H329.99Z" fill="white"/>
<path d="M317.4 465.68L313.82 466.78L308.57 449.78L312.14 448.67L317.4 465.68Z" fill="white"/>
<path d="M286.88 455.71C287.224 455.347 287.63 455.049 288.08 454.83C288.596 454.584 289.14 454.403 289.7 454.29C290.949 453.937 292.287 454.084 293.43 454.7C293.955 455.054 294.399 455.515 294.733 456.053C295.067 456.591 295.284 457.193 295.37 457.82L296.46 463.01L298.46 462.6L299.06 465.42L297.11 465.83L297.75 468.91L294.09 469.68L293.44 466.6L290.3 467.27L289.7 464.45L292.85 463.79L291.77 458.64C291.699 458.189 291.46 457.781 291.1 457.5C290.916 457.38 290.708 457.3 290.491 457.268C290.273 457.235 290.051 457.249 289.84 457.31C289.304 457.405 288.817 457.68 288.46 458.09L286.88 455.71Z" fill="white"/>
<path d="M264.64 469.74C264.061 469.222 263.594 468.591 263.269 467.886C262.944 467.181 262.767 466.416 262.75 465.64L262.02 458.28L265.75 457.91L266.42 464.69C266.439 465.513 266.755 466.302 267.31 466.91C267.583 467.142 267.903 467.313 268.249 467.409C268.594 467.506 268.956 467.527 269.31 467.47C269.726 467.448 270.133 467.34 270.505 467.152C270.877 466.965 271.205 466.702 271.47 466.38C272.003 465.596 272.211 464.635 272.05 463.7L271.42 457.35L275.15 456.98L276.9 474.71L273.17 475.07L272.56 468.86C272.101 469.412 271.528 469.859 270.88 470.17C270.175 470.515 269.412 470.725 268.63 470.79C267.929 470.891 267.214 470.85 266.528 470.67C265.843 470.49 265.201 470.173 264.64 469.74V469.74Z" fill="white"/>
<path d="M217.1 456.48L215.93 466.48L221.82 458.82L223.56 459.03L227.49 467.64L228.66 457.85L232.28 458.28L230.28 474.96L227.09 474.58L222.09 463.47L214.71 473.1L211.54 472.73L213.48 456.04L217.1 456.48Z" fill="white"/>
<path d="M186.94 455.4L196.4 457.86C196.438 457.077 196.177 456.308 195.67 455.71C195.089 455.062 194.32 454.611 193.47 454.42C192.885 454.258 192.275 454.204 191.67 454.26C191.089 454.332 190.528 454.519 190.02 454.81L188.64 452.22C189.478 451.694 190.421 451.36 191.404 451.242C192.386 451.125 193.382 451.226 194.32 451.54C195.622 451.854 196.832 452.47 197.85 453.34C198.753 454.118 199.416 455.138 199.76 456.28C200.075 457.441 200.082 458.664 199.781 459.828C199.479 460.992 198.879 462.058 198.04 462.92C197.216 463.747 196.177 464.326 195.04 464.59C193.863 464.856 192.639 464.84 191.47 464.543C190.3 464.245 189.217 463.676 188.31 462.88C187.467 462.106 186.863 461.106 186.57 460C186.246 458.808 186.246 457.552 186.57 456.36C186.63 456.31 186.74 456 186.94 455.4ZM194.37 461.62C195.067 461.292 195.611 460.708 195.89 459.99L189.74 458.38C189.64 459.141 189.83 459.912 190.27 460.54C190.716 461.169 191.378 461.611 192.13 461.78C192.871 462.003 193.668 461.946 194.37 461.62V461.62Z" fill="white"/>
<path d="M163.69 453.8C163.363 453.076 163.198 452.288 163.209 451.493C163.219 450.698 163.404 449.916 163.75 449.2L166.42 442.34L169.69 443.61L169.1 445.1C170.193 444.24 171.633 444.157 173.42 444.85C174.257 445.152 175.018 445.633 175.65 446.26C176.154 446.788 176.5 447.446 176.65 448.16C176.792 448.861 176.723 449.589 176.45 450.25C176.272 450.767 175.97 451.233 175.571 451.608C175.172 451.983 174.688 452.254 174.16 452.4C172.713 452.667 171.219 452.471 169.89 451.84L167.11 450.76C166.968 451.074 166.895 451.415 166.895 451.76C166.895 452.105 166.968 452.446 167.11 452.76C167.532 453.44 168.185 453.945 168.95 454.18C169.59 454.428 170.265 454.573 170.95 454.61C171.59 454.66 172.234 454.592 172.85 454.41L173.15 457.34C172.238 457.544 171.299 457.595 170.37 457.49C169.341 457.391 168.332 457.148 167.37 456.77C165.821 456.263 164.512 455.207 163.69 453.8V453.8ZM169.89 446.66C169.318 446.755 168.8 447.053 168.43 447.5L167.95 448.73L170.35 449.66C171.78 450.21 172.68 450.02 173.04 449.08C173.127 448.877 173.162 448.656 173.143 448.436C173.124 448.216 173.051 448.005 172.93 447.82C172.621 447.355 172.168 447.004 171.64 446.82C171.082 446.607 170.477 446.552 169.89 446.66V446.66Z" fill="white"/>
<path d="M153.44 436.52C154.109 437.092 154.683 437.768 155.14 438.52L152.79 440.33C152.403 439.673 151.921 439.077 151.36 438.56C150.763 437.995 150.09 437.517 149.36 437.14C147.96 436.4 147.08 436.38 146.71 437.08C146.628 437.246 146.605 437.435 146.643 437.616C146.681 437.797 146.778 437.961 146.92 438.08C147.398 438.562 147.924 438.994 148.49 439.37C149.218 439.888 149.91 440.456 150.56 441.07C151.072 441.567 151.441 442.192 151.63 442.88C151.813 443.683 151.677 444.526 151.25 445.23C150.897 445.925 150.324 446.485 149.62 446.82C148.83 447.173 147.956 447.294 147.1 447.17C146.021 447.028 144.977 446.689 144.02 446.17C143.205 445.747 142.44 445.234 141.74 444.64C141.118 444.136 140.578 443.539 140.14 442.87L142.48 441.09C143.189 442.181 144.172 443.067 145.33 443.66C145.862 443.977 146.462 444.163 147.08 444.2C147.267 444.215 147.454 444.176 147.62 444.09C147.786 444.003 147.925 443.872 148.02 443.71C148.099 443.545 148.123 443.359 148.089 443.179C148.055 442.999 147.964 442.835 147.83 442.71C147.333 442.207 146.791 441.752 146.21 441.35C145.511 440.819 144.843 440.248 144.21 439.64C143.707 439.152 143.344 438.537 143.16 437.86C142.982 437.074 143.114 436.25 143.53 435.56C143.879 434.871 144.455 434.324 145.16 434.01C145.956 433.667 146.833 433.556 147.69 433.69C148.792 433.858 149.855 434.221 150.83 434.76C151.771 435.234 152.648 435.825 153.44 436.52V436.52Z" fill="white"/>
<path d="M117.07 429.31L124.33 418.63L127.26 420.63L126.4 421.9C127.115 421.712 127.864 421.688 128.59 421.83C129.343 421.982 130.057 422.285 130.69 422.72C131.32 423.103 131.867 423.608 132.298 424.206C132.729 424.803 133.036 425.481 133.2 426.2C133.308 426.982 133.256 427.777 133.048 428.539C132.84 429.3 132.48 430.011 131.99 430.63L127.88 436.63L124.79 434.53L128.58 428.95C129.753 427.23 129.617 425.88 128.17 424.9C127.848 424.658 127.478 424.489 127.084 424.404C126.69 424.32 126.283 424.322 125.89 424.41C124.988 424.681 124.223 425.285 123.75 426.1L120.16 431.38L117.07 429.31Z" fill="white"/>
<path d="M101.7 416.67C100.848 416.382 100.063 415.926 99.39 415.33L101.63 412.7C101.93 413 102.13 413.19 102.24 413.28C102.568 413.607 102.958 413.864 103.388 414.035C103.817 414.207 104.277 414.29 104.74 414.28C105.227 414.213 105.695 414.049 106.116 413.796C106.537 413.543 106.902 413.208 107.19 412.81L111.19 408.17L114.04 410.6L105.67 420.43L102.95 418.12L104.05 416.82C103.268 416.994 102.453 416.942 101.7 416.67V416.67Z" fill="white"/>
<path d="M86.69 391.92L93.42 399C93.8727 398.358 94.0558 397.565 93.93 396.79C93.7835 395.934 93.3705 395.147 92.75 394.54C92.3383 394.09 91.8466 393.72 91.3 393.45C90.7691 393.205 90.1944 393.069 89.61 393.05L89.8 390.12C90.7911 390.112 91.7715 390.324 92.6707 390.741C93.5699 391.158 94.3655 391.769 95 392.53C95.9254 393.486 96.6109 394.648 97 395.92C97.3574 397.056 97.3817 398.271 97.07 399.42C96.7405 400.573 96.0965 401.612 95.21 402.42C94.3545 403.26 93.2862 403.851 92.12 404.13C90.9836 404.392 89.797 404.337 88.69 403.97C87.536 403.57 86.5033 402.881 85.69 401.97C84.8626 401.129 84.2518 400.099 83.91 398.97C83.5849 397.874 83.5849 396.706 83.91 395.61C84.2858 394.421 84.977 393.357 85.91 392.53C85.91 392.53 86.2 392.31 86.69 391.92ZM89.69 401.12C90.4559 401.207 91.2257 400.996 91.84 400.53L87.46 395.93C86.9891 396.513 86.7536 397.252 86.8 398C86.8705 398.767 87.1968 399.487 87.7264 400.046C88.2561 400.605 88.9583 400.969 89.72 401.08L89.69 401.12Z" fill="white"/>
<path d="M81.91 378C82.2736 378.811 82.5032 379.675 82.59 380.56L79.7 381.19C79.624 380.431 79.4387 379.686 79.15 378.98C78.8672 378.22 78.4802 377.503 78 376.85C77 375.59 76.25 375.2 75.63 375.67C75.4849 375.787 75.3825 375.948 75.3391 376.129C75.2956 376.31 75.3136 376.5 75.39 376.67C75.6172 377.31 75.9122 377.923 76.27 378.5C76.7064 379.279 77.0873 380.088 77.41 380.92C77.6565 381.588 77.7254 382.308 77.61 383.01C77.5285 383.416 77.3672 383.802 77.1355 384.145C76.9037 384.489 76.6062 384.783 76.26 385.01C75.6489 385.496 74.8909 385.761 74.11 385.76C73.2449 385.748 72.4015 385.487 71.68 385.01C70.7664 384.413 69.9699 383.654 69.33 382.77C68.7761 382.04 68.3033 381.252 67.92 380.42C67.5695 379.698 67.3365 378.925 67.23 378.13L70.1 377.52C70.2817 378.786 70.7843 379.984 71.56 381C71.9055 381.515 72.3726 381.938 72.92 382.23C73.072 382.318 73.2445 382.364 73.42 382.364C73.5955 382.364 73.768 382.318 73.92 382.23C74.0693 382.117 74.1774 381.958 74.228 381.777C74.2785 381.596 74.2687 381.404 74.2 381.23C73.9656 380.565 73.671 379.922 73.32 379.31C72.8991 378.53 72.5251 377.725 72.2 376.9C71.9514 376.243 71.8857 375.531 72.01 374.84C72.1811 374.054 72.6509 373.366 73.32 372.92C73.9309 372.444 74.6856 372.19 75.46 372.2C76.3293 372.232 77.1717 372.509 77.89 373C78.8154 373.621 79.6244 374.399 80.28 375.3C80.9316 376.13 81.4791 377.037 81.91 378Z" fill="white"/>
<path d="M57.32 347.86C57.1954 348.243 56.9948 348.598 56.7302 348.902C56.4656 349.206 56.1424 349.453 55.78 349.63C55.4287 349.808 55.0457 349.916 54.6528 349.947C54.2599 349.977 53.8648 349.93 53.4902 349.808C53.1155 349.686 52.7685 349.491 52.4691 349.235C52.1696 348.979 51.9236 348.666 51.745 348.315C51.5664 347.964 51.4587 347.581 51.4282 347.188C51.3976 346.795 51.4447 346.4 51.5668 346.025C51.6889 345.65 51.8836 345.303 52.1398 345.004C52.396 344.704 52.7087 344.458 53.06 344.28C53.4145 344.091 53.8034 343.974 54.2037 343.938C54.6039 343.902 55.0074 343.947 55.39 344.07C55.7661 344.191 56.1146 344.386 56.4154 344.642C56.7162 344.898 56.9633 345.212 57.1427 345.564C57.322 345.916 57.43 346.3 57.4604 346.694C57.4909 347.088 57.4431 347.484 57.32 347.86V347.86Z" fill="white"/>
<path d="M29.24 307.6C29.3806 306.46 29.8457 305.384 30.58 304.5C31.3547 303.63 32.3658 303.005 33.49 302.7C34.5972 302.349 35.783 302.332 36.9 302.65C37.9974 302.988 38.9688 303.646 39.69 304.54C40.5549 305.586 41.1827 306.808 41.53 308.12L42.36 310.93L46.57 309.7L47.91 314.26L31.79 319L29.63 311.63C29.2122 310.33 29.0792 308.956 29.24 307.6V307.6ZM36.79 307.51C36.5003 307.334 36.1749 307.224 35.8376 307.19C35.5003 307.155 35.1594 307.196 34.84 307.31C34.5094 307.388 34.2 307.537 33.9338 307.748C33.6677 307.959 33.4512 308.226 33.3 308.53C33.0268 309.272 33.0268 310.088 33.3 310.83L34.04 313.37L38.76 312L38 309.45C37.8399 308.68 37.411 307.992 36.79 307.51V307.51Z" fill="white"/>
<path d="M40.07 285.71C39.7075 286.871 39.0294 287.909 38.1113 288.706C37.1932 289.504 36.0713 290.031 34.871 290.228C33.6707 290.426 32.4392 290.285 31.3142 289.823C30.1891 289.36 29.2148 288.594 28.5 287.61C27.7351 286.54 27.2379 285.302 27.05 284C26.8236 282.706 26.9059 281.376 27.29 280.12C27.6332 278.958 28.299 277.918 29.21 277.12C29.8989 276.522 30.7045 276.073 31.5757 275.801C32.447 275.53 33.365 275.442 34.2718 275.544C35.1787 275.645 36.0546 275.934 36.8443 276.391C37.634 276.848 38.3204 277.464 38.86 278.2C39.6278 279.27 40.1284 280.507 40.32 281.81C40.5558 283.111 40.47 284.45 40.07 285.71V285.71ZM35.61 280.63C34.8944 280.194 34.0371 280.054 33.22 280.24C32.4005 280.324 31.6466 280.726 31.12 281.36C30.6886 281.96 30.5127 282.706 30.6308 283.435C30.7489 284.164 31.1514 284.817 31.75 285.25C32.455 285.675 33.2956 285.814 34.1 285.64C34.9334 285.557 35.7014 285.151 36.24 284.51C36.4572 284.215 36.6135 283.88 36.6995 283.524C36.7855 283.168 36.7995 282.799 36.7409 282.437C36.6822 282.076 36.5519 281.73 36.3577 281.42C36.1635 281.109 35.9093 280.841 35.61 280.63V280.63Z" fill="white"/>
<path d="M24.76 257.47C24.4141 256.67 24.2208 255.811 24.19 254.94L28.28 254.72C28.262 255.053 28.262 255.387 28.28 255.72C28.2761 256.135 28.3546 256.547 28.5108 256.931C28.667 257.316 28.8978 257.665 29.19 257.96C29.5293 258.241 29.9231 258.448 30.3465 258.568C30.77 258.689 31.2138 258.72 31.65 258.66L37.65 258.34L37.89 262.9L24.89 263.59L24.66 259.25L26.22 259.17C25.592 258.742 25.0883 258.155 24.76 257.47V257.47Z" fill="white"/>
<path d="M37.26 233.28C37.5007 233.723 37.6663 234.203 37.75 234.7C37.8532 235.284 37.8901 235.878 37.86 236.47C37.8924 237.89 37.3849 239.269 36.44 240.33C35.9315 240.787 35.3313 241.131 34.6794 241.338C34.0276 241.545 33.3392 241.61 32.66 241.53L28.3 241.33L28.21 243.23L24.81 243.07L24.9 241.18L21.51 241L21.72 236.44L25.1 236.59L25.23 233.59L28.64 233.74L28.5 236.74L32.82 236.93C33.2171 236.967 33.6137 236.853 33.93 236.61C34.069 236.483 34.1799 236.329 34.2557 236.156C34.3315 235.984 34.3704 235.798 34.37 235.61C34.4025 235.115 34.2802 234.622 34.02 234.2L37.26 233.28Z" fill="white"/>
<path d="M28.1 206.42L40.95 208.42L40.28 212.71L38.9 212.5C39.3472 213.051 39.662 213.698 39.82 214.39C39.9834 215.102 40.0072 215.839 39.89 216.56C39.8118 217.292 39.5863 218.001 39.2272 218.643C38.868 219.286 38.3825 219.85 37.8 220.3C37.1205 220.739 36.3591 221.037 35.5618 221.174C34.7644 221.312 33.9474 221.286 33.16 221.1L26 220L26.71 215.49L33.16 216.49C33.8937 216.669 34.6667 216.592 35.35 216.27C35.6051 216.109 35.8203 215.892 35.9797 215.635C36.139 215.379 36.2383 215.09 36.27 214.79C36.3308 214.464 36.3194 214.128 36.2364 213.807C36.1535 213.485 36.0011 213.186 35.79 212.93C35.2117 212.339 34.4352 211.983 33.61 211.93L27.42 210.93L28.1 206.42Z" fill="white"/>
<path d="M35 179.16L45.21 182.16C46.1873 182.36 47.1105 182.767 47.9176 183.354C48.7248 183.94 49.3973 184.692 49.89 185.56C50.6979 187.447 50.7551 189.572 50.05 191.5C49.7251 192.669 49.2512 193.792 48.64 194.84C48.1243 195.752 47.4465 196.562 46.64 197.23L44.03 194.75C44.6451 194.309 45.1682 193.752 45.57 193.11C46.0075 192.432 46.3443 191.694 46.57 190.92C46.9179 190.033 46.9179 189.047 46.57 188.16C46.3535 187.793 46.0644 187.475 45.7205 187.224C45.3766 186.973 44.9851 186.794 44.57 186.7L44.16 186.58C44.5315 187.196 44.7603 187.888 44.8295 188.605C44.8988 189.321 44.8067 190.044 44.56 190.72C44.2601 191.792 43.6963 192.772 42.92 193.57C42.1681 194.358 41.2128 194.922 40.16 195.2C39.0372 195.489 37.856 195.458 36.75 195.11C35.6355 194.816 34.6268 194.212 33.84 193.37C33.0944 192.574 32.5823 191.588 32.36 190.52C32.1322 189.432 32.1804 188.304 32.5 187.24C32.6572 186.478 33.0007 185.767 33.4997 185.17C33.9988 184.573 34.6379 184.109 35.36 183.82L33.84 183.38L35 179.16ZM41.18 186.47C41.0173 186.149 40.7876 185.867 40.5064 185.643C40.2251 185.418 39.899 185.257 39.55 185.17C39.2119 185.058 38.8537 185.021 38.4998 185.061C38.146 185.1 37.8049 185.216 37.5 185.4C36.8842 185.821 36.4345 186.444 36.2282 187.162C36.022 187.879 36.0721 188.646 36.37 189.33C36.5256 189.652 36.7506 189.936 37.029 190.161C37.3074 190.385 37.6322 190.546 37.98 190.63C38.3222 190.743 38.6851 190.779 39.0429 190.736C39.4007 190.693 39.7446 190.571 40.05 190.38C40.6688 189.966 41.1216 189.346 41.3283 188.631C41.535 187.916 41.4825 187.15 41.18 186.47V186.47Z" fill="white"/>
<path d="M45.11 156.73C45.8805 156.405 46.7134 156.256 47.5486 156.292C48.3838 156.329 49.2006 156.55 49.94 156.94L56.58 159.77L54.91 163.68L53.37 163C54.27 164.1 54.3467 165.527 53.6 167.28C53.2682 168.117 52.7521 168.869 52.09 169.48C51.5342 170 50.8394 170.347 50.09 170.48C49.3734 170.586 48.6415 170.485 47.98 170.19C47.4562 169.994 46.9907 169.668 46.627 169.243C46.2633 168.818 46.0131 168.308 45.9 167.76C45.7047 166.242 45.9767 164.7 46.68 163.34L47.68 160.96C46.38 160.493 45.38 161.07 44.68 162.69C44.4323 163.283 44.274 163.91 44.21 164.55C44.146 165.162 44.1865 165.781 44.33 166.38L40.88 166.57C40.725 165.626 40.725 164.664 40.88 163.72C41.0397 162.688 41.3286 161.68 41.74 160.72C42.3312 159.019 43.5318 157.597 45.11 156.73ZM51.65 163.57C51.5628 163.09 51.3162 162.653 50.95 162.33L49.95 161.88L49.18 163.69C48.66 164.92 48.8 165.69 49.61 166.04C49.7732 166.127 49.9552 166.172 50.14 166.172C50.3248 166.172 50.5068 166.127 50.67 166.04C51.0465 165.807 51.335 165.455 51.49 165.04C51.6851 164.576 51.7406 164.065 51.65 163.57V163.57Z" fill="white"/>
<path d="M46.66 140L48.86 136L64.46 144.59L62.26 148.59L46.66 140Z" fill="white"/>
<path d="M77.41 116.81C76.6144 116.915 75.8097 116.699 75.173 116.211C74.5363 115.722 74.1198 115.001 74.015 114.205C73.9102 113.409 74.1259 112.605 74.6144 111.968C75.1029 111.331 75.8244 110.915 76.62 110.81C77.018 110.757 77.4227 110.788 77.8082 110.9C78.1938 111.012 78.552 111.202 78.86 111.46C79.1779 111.699 79.445 111.999 79.6459 112.342C79.8468 112.686 79.9773 113.066 80.03 113.46C80.0775 113.851 80.0474 114.248 79.9414 114.628C79.8354 115.008 79.6556 115.363 79.4123 115.673C79.169 115.983 78.8669 116.242 78.5233 116.436C78.1797 116.629 77.8014 116.753 77.41 116.8V116.81Z" fill="white"/>
<path d="M150.91 356.29C150.855 356.932 150.595 357.539 150.168 358.022C149.741 358.505 149.17 358.837 148.54 358.97C147.778 359.175 146.989 359.266 146.2 359.24V353.39C146.894 353.363 147.589 353.386 148.28 353.46C148.997 353.506 149.669 353.825 150.158 354.351C150.648 354.878 150.917 355.571 150.91 356.29V356.29ZM154.71 356.14C154.799 354.879 154.418 353.63 153.64 352.633C152.863 351.636 151.745 350.962 150.5 350.74C148.5 350.22 146.5 350.34 141.81 350.34V368.82H146.2V362.36C147.683 362.304 149.151 362.038 150.56 361.57C153.36 360.62 154.71 358.77 154.71 356.14V356.14Z" fill="#1D1D1B"/>
<path d="M168.7 359.58C168.7 364.31 166.91 365.93 164.86 365.93C162.81 365.93 161.05 364.31 161.05 359.58C161.05 354.85 162.84 353.11 164.86 353.11C166.88 353.11 168.7 354.84 168.7 359.58ZM173.28 359.58C173.28 353.71 169.65 350.01 164.86 350.01C160.07 350.01 156.44 353.71 156.44 359.58C156.44 365.45 160.01 369.14 164.86 369.14C169.71 369.14 173.28 365.44 173.28 359.58Z" fill="#1D1D1B"/>
<path d="M180.62 359V353.36H181.48C182.081 353.339 182.684 353.369 183.28 353.45C183.951 353.494 184.582 353.785 185.051 354.267C185.52 354.749 185.794 355.388 185.82 356.06C185.82 357.73 184.35 358.64 182.87 358.89C182.411 358.972 181.946 359.009 181.48 359H180.62ZM181.48 361.92C181.91 361.92 182.09 361.86 182.53 361.8L185.85 368.8H190.34L186.05 361.06C188.56 360.11 189.61 358.49 189.61 356.15C189.61 352.74 187.61 351.29 185.12 350.7C183.925 350.433 182.704 350.305 181.48 350.32H176.24V368.8H180.62V362L181.48 361.92Z" fill="#1D1D1B"/>
<path d="M201.07 353.92V368.82H196.71V353.92H191.81V350.34H206V353.92H201.07Z" fill="#1D1D1B"/>
<path d="M216.84 369.14C212.34 369.14 208.9 367.14 208.9 361.57V350.34H213.26V361.66C213.26 364.38 214.15 366.05 216.84 366.05C219.53 366.05 220.41 364.38 220.41 361.66V350.34H224.77V361.57C224.77 367.12 221.4 369.14 216.84 369.14Z" fill="#1D1D1B"/>
<path d="M255.38 361.64H251.24L253.15 354.7H253.23L255.38 361.64ZM262.32 368.82L255.32 350.16H251.08L244.59 368.82H249.35L250.35 365.05H256.35L257.51 368.82H262.32Z" fill="#1D1D1B"/>
<path d="M264.75 368.82V350.34H269.14V365.57L272.66 365.24H276.23V368.82H264.75Z" fill="#1D1D1B"/>
<path d="M237.38 369.14C231.76 369.14 227.46 366.14 227.46 359.78C227.46 353.65 232.1 349.96 237.79 349.96C239.324 349.955 240.852 350.14 242.34 350.51V353.72C241.049 353.476 239.742 353.329 238.43 353.28C234.53 353.28 232.08 355.43 232.08 359.69C232.08 364.23 234.76 365.81 237.41 365.81C237.711 365.804 238.012 365.777 238.31 365.73V361.53L235.43 361.12V358.44H242.64V368.39C240.933 368.895 239.161 369.148 237.38 369.14V369.14Z" fill="#1D1D1B"/>
<path d="M350 367.23C351.28 367.8 351.16 369.14 352.26 369.81C353.5 371.91 354.91 374.31 353.79 376.94C354.58 380.59 351.29 381.94 349.79 384.77C348.89 385.12 348.33 386.37 347.1 385.84C346.737 386.097 346.324 386.274 345.888 386.36C345.452 386.446 345.003 386.439 344.57 386.34C344.25 386.93 343.5 386.34 343.09 386.73C337.7 387.2 334.41 382.57 330.83 379.24C330.31 378.6 329.57 378.56 328.95 377.85C328.06 377.85 327.44 376.76 326.47 377.32C325.809 377.807 325.041 378.13 324.23 378.26C324.03 378.87 323.23 378.38 323.31 379.12C321.65 379.45 322.31 382.02 320.31 381.38C319.52 381.65 319.31 380.69 318.7 380.59C318.84 379.78 318.52 379.35 318.92 378.67C320.13 378.08 321.32 377.1 322.39 376.44C322.59 375.85 323.52 375.85 324.05 375.44C324.21 375.2 324.47 375.21 324.65 375.01C326.37 375.23 328.37 374.78 329.79 375.64C331.49 376.23 333.2 377.96 334.54 379.05C335.77 380.75 337.43 382.94 339.39 383.35C339.84 384.57 341.63 384.02 342.75 384.35C343 384.35 343.32 383.98 343.49 384.23C344.18 384 345.17 384.23 345.57 383.55C346.44 383.61 347 382.86 347.81 382.75C348.01 382.59 348.04 382.14 348.42 382.33C349.26 381.44 350.73 380.57 350.74 379.16C351.47 378.56 350.67 377.8 350.95 376.97C351.68 374.45 350.58 372.27 349.43 370.28C348.43 369.76 347.43 368.87 346.25 368.4C343.99 368.26 341.25 368.11 340.16 369.81C340.08 371.11 338.27 370.81 338.89 372.41C338.56 374.24 340.25 374.83 341.13 376.03C342.53 375.6 343.07 377.03 344.5 376.6C345.208 376.135 345.784 375.494 346.17 374.74C345.854 374.2 345.721 373.572 345.79 372.95C346.52 372.95 346.13 371.95 346.86 371.95C347.59 371.95 347.27 372.71 347.71 373C348.39 373.74 348.31 375.21 348.04 376.25C347.56 376.44 347.78 376.92 347.71 377.25C347.311 377.836 346.798 378.335 346.202 378.718C345.606 379.101 344.938 379.36 344.24 379.48C342.947 379.435 341.684 379.083 340.553 378.454C339.423 377.824 338.459 376.935 337.74 375.86C337 374.86 336.12 373.54 336.69 372.14C336.82 372.19 336.89 372.08 336.99 372.01C336.39 371.41 337.56 371.01 337.19 370.54C337.516 369.565 338.056 368.675 338.77 367.936C339.485 367.197 340.356 366.628 341.32 366.27C342.62 366.77 343.61 365.52 345 365.8C346.69 366.3 348.38 366.69 350 367.23Z" fill="#008BD2"/>
<path d="M317.1 381.77C318.7 383.22 321.22 383.35 323.28 382.77C325.06 382.26 325.97 380.64 327.56 379.68C328.08 379.68 328.36 380.24 328.88 380.27C327.31 382.09 326.2 384.1 323.88 384.82C322.26 385.11 320.36 385.59 318.72 384.98C317.35 384.9 316.66 384.08 315.48 383.51V383.22C314.588 382.384 313.799 381.444 313.13 380.42C312.53 379.98 312.55 379.53 311.96 379.24C311.73 378.24 310.63 377.5 309.89 376.88C309.01 375.98 307.43 376.16 306.05 376.14C303.52 376.05 302.59 379.22 300.46 379.82C300.2 380.37 299.39 380.33 299.46 381.01C301.81 382.01 302.67 379.22 304.46 378.79C305.466 378.651 306.49 378.832 307.388 379.308C308.285 379.784 309.01 380.53 309.46 381.44C309.95 382.26 311.23 382.99 310.94 384.25C310.772 384.374 310.581 384.462 310.379 384.51C310.176 384.558 309.965 384.565 309.76 384.53C308.379 383.528 307.096 382.396 305.93 381.15C304.98 381.06 304.37 381.79 303.43 381.74C302.31 382.32 301.87 383.58 300.48 383.51C299.281 383.367 298.096 383.119 296.94 382.77C296.64 382.23 295.94 382.58 295.48 382.48C294.663 381.066 293.97 379.584 293.41 378.05C292.97 377.68 293.14 377.05 292.53 376.73C291.92 376.41 291.01 377.12 290.91 375.99C288.54 375.87 287.11 377.68 286.2 379.52C286.2 380.76 286.33 382.16 287.52 382.62C288.14 383.42 289.52 383.01 289.72 384.1C290.41 383.82 291.31 384.1 291.79 383.35C291.88 382.871 291.847 382.378 291.693 381.916C291.539 381.454 291.269 381.039 290.91 380.71C289.72 379.98 289.08 381.43 287.97 381.3C287.938 381.366 287.891 381.423 287.833 381.467C287.775 381.512 287.707 381.542 287.635 381.555C287.563 381.569 287.489 381.566 287.419 381.546C287.349 381.526 287.284 381.489 287.23 381.44C286.56 381.26 287.33 380.76 287.08 380.27C288.08 378.55 290.22 378.68 291.94 378.94C293.58 379.42 293.51 381.51 294.59 382.48C294.99 384.26 293.32 385.09 292.39 386.16C290.71 387.66 288.94 385.84 287.08 386.01C286.091 385.76 285.212 385.191 284.58 384.39C284.067 383.372 283.763 382.262 283.686 381.125C283.609 379.989 283.76 378.848 284.13 377.77C284.51 377.77 284.59 377.33 284.58 377.03C286.48 375.15 289.19 373.54 292.25 374.23C295.25 375.16 295.33 378.6 297.1 380.71C297.26 380.88 297.41 381.1 297.68 381.01C297.95 380.92 297.36 380.2 297.98 380.42C298.338 379.282 298.998 378.263 299.89 377.47C299.89 376.89 300.59 376.59 300.89 376.14C301.58 376.14 301.82 374.86 302.8 375.14C303.46 373.8 305.19 374.47 306.18 373.68C311.79 372.88 314 378.52 317.1 381.77Z" fill="#008BD2"/>
<path d="M322.79 318.31C323.04 320.02 324.16 321.56 323.52 323.45C323.1 323.72 323.14 324.27 322.93 324.45C322.55 325.23 322.59 326.2 321.76 326.8C321.37 327.86 320.11 328.44 319.55 329.17C318.414 330.046 317.091 330.648 315.684 330.927C314.277 331.206 312.824 331.156 311.44 330.78C310.988 330.799 310.536 330.725 310.113 330.563C309.69 330.402 309.305 330.156 308.98 329.84C308.499 329.257 307.982 328.706 307.43 328.19C307.01 327.81 307.08 326.92 306.88 326.08C306.51 325.08 306.88 324.31 306.88 323.41C306.221 322.544 305.77 321.538 305.56 320.47C306.08 318.79 307.75 318.17 309.03 317.05C311.45 314.95 314.94 312.47 318.52 314.28C320.249 315.257 321.715 316.64 322.79 318.31V318.31Z" fill="#FBBA00"/>
<path d="M332.83 316.88C333.724 317.858 334.565 318.883 335.35 319.95C336.19 320.12 336.56 319.21 337.27 319.07C337.9 318.46 338.64 317.52 339.62 317.45C340.57 317.63 340.89 318.36 341.69 318.92C341.811 319.565 342.168 320.142 342.69 320.54C344.32 320.19 345.91 319.34 347.62 319.19C348.62 320.52 347.62 322.3 347.26 323.63C346.8 325.27 345.88 326.36 345.26 327.9C345.26 328.74 344.6 329.3 344.26 329.97C344.1 330.966 343.635 331.888 342.93 332.61C343.06 333.43 342.09 333.45 342.2 334.22C340.33 335.93 340.14 338.31 338.2 339.99C337.335 341.172 336.346 342.258 335.25 343.23C334.42 344.59 332.9 344.62 331.88 346.17C331.21 346.25 330.88 347.1 330.24 347.34C329.14 348.78 330.47 350.34 330.24 351.91C331.31 353.54 330.16 355.35 330.09 357.07C329.77 357.86 329.26 358.18 328.92 358.98C329.01 360.92 331.56 362.25 332.55 362.48C332.685 362.477 332.819 362.514 332.933 362.587C333.047 362.66 333.136 362.766 333.19 362.89C333.19 363.2 331.98 363.62 331.4 364.57C331.61 365.46 333.11 365.74 333.32 366.31C332.82 367 331.41 367.12 331.15 367.73C331.67 368.41 333.34 368.47 333.92 369.03C334.01 369.8 332.97 369.58 332.61 370.03C329.577 370.692 326.423 370.536 323.47 369.58C321.19 369.27 319.05 370.09 316.84 370.32C315.84 370.16 315.84 370.82 314.96 370.32C314.79 370.32 314.65 370.19 314.34 370.32C313.92 370.88 312.68 369.13 312.72 368.27C313.19 367.61 312.33 366.27 313.46 366.05C314.1 365.05 314.74 363.69 314.04 362.52C312.17 360.86 312.79 358.16 311.7 356.19C311.86 354.5 311.44 352.69 312.42 351.03C312.31 350.74 312.62 350.51 312.72 350.43C313.72 347.83 316.24 345.7 315.66 342.63C315.29 341.89 315.66 341.71 315.47 341.19C315.29 340.32 314.87 339.97 315.37 338.95C316.11 335.59 319.99 335.09 322.44 333.21C325.25 332.59 326.63 329.44 328.04 327.31C328.01 326.951 328.118 326.593 328.34 326.31C329.84 325.07 329.57 322.59 330.84 320.99C330.7 320.43 331.05 320.08 331.28 319.67C331.402 318.56 331.688 317.475 332.13 316.45C332.41 316.34 332.66 316.53 332.83 316.88Z" fill="#E30613"/>
<path d="M292.88 321.78C295.1 324.16 296.2 328.09 298.93 329.88C299.415 330.599 300.047 331.206 300.785 331.661C301.523 332.117 302.35 332.409 303.21 332.52C304.12 333.69 305.97 333.21 307.04 334.28C308.36 333.89 308.48 335.45 309.69 335.33C310.353 336.021 310.899 336.815 311.31 337.68C311.79 340.68 309.36 342.4 309.4 345.19C307.9 348.25 309.71 351.39 309.54 354.62C309.632 355.381 309.478 356.152 309.1 356.82C309.1 359.57 307.24 361.41 305.56 363.3C304.95 365.2 306.3 367.87 304.56 369.3C303.75 369.3 303.16 369.9 302.34 369.9C300.797 370.272 299.193 370.32 297.63 370.04C297.14 369.35 295.99 370.21 295.57 369.3C294.85 368.81 293.65 369.03 292.91 369C291.06 368.81 289.42 369.06 287.38 368.82C286.944 368.905 286.496 368.905 286.06 368.82C285.43 368.46 286.24 367.69 286.69 367.4C287.066 367.248 287.407 367.02 287.69 366.73C287.89 365.91 286.09 366.07 286.32 365.23C286.89 364.83 288.32 364.41 288.14 363.54C287.81 362.54 286.27 362.3 286.14 361.45C287.744 360.341 289.661 359.774 291.61 359.83C291.84 359.23 292.68 359.54 292.61 358.96C292.82 358.35 293.54 357.76 293.05 357.04C292.81 356.7 293.15 356.35 292.75 356.04C292.912 355.465 292.963 354.864 292.9 354.27C293.47 353.63 292.66 352.96 293.35 352.37C293.21 351 294.16 349.79 294.23 348.83C294.13 348.21 294.52 348.44 294.84 347.6C295.16 346.76 295.56 346.6 295.7 346.09C295.84 345.58 295.61 342.98 294.09 342.2C292.57 341.42 291.79 339.88 290.55 338.96C289.31 337.2 288.79 334.63 287.02 333.23C286.84 331.7 286.15 331.56 285.91 329.91C285.462 329.095 285.126 328.224 284.91 327.32C285.91 326.47 287.71 328.32 288.28 327.32C288.28 326.7 288 325.05 288.64 324.82C289.73 324.87 291 325.45 291.73 325.07C292.55 324.39 291.59 321.78 292.88 321.78Z" fill="#009640"/>
<path d="M155.28 337.97H157.07V325.78H161.26V324.27H151.12V325.78H155.28V337.97Z" fill="#1D1D1B"/>
<path d="M163.06 324.27V332.34C163.06 336.6 165.17 338.19 167.97 338.19C170.97 338.19 173.15 336.48 173.15 332.28V324.28H171.36V332.41C171.36 335.41 170.04 336.76 168.03 336.76C166.21 336.76 164.84 335.46 164.84 332.41V324.28L163.06 324.27Z" fill="#1D1D1B"/>
<path d="M176.51 338H178.28V332H180C181.6 332.07 182.35 332.78 182.76 334.67C182.951 335.787 183.252 336.883 183.66 337.94H185.48C185.048 336.715 184.714 335.458 184.48 334.18C184.409 333.586 184.189 333.021 183.839 332.536C183.489 332.051 183.021 331.664 182.48 331.41V331.35C183.23 331.131 183.888 330.674 184.355 330.048C184.822 329.422 185.073 328.661 185.07 327.88C185.085 327.395 184.996 326.912 184.81 326.464C184.624 326.015 184.344 325.612 183.99 325.28C182.849 324.407 181.42 324 179.99 324.14C178.849 324.135 177.711 324.239 176.59 324.45L176.51 338ZM178.28 325.75C178.854 325.619 179.442 325.562 180.03 325.58C181.9 325.58 183.18 326.36 183.18 328.12C183.18 329.69 181.98 330.72 180.09 330.72H178.28V325.75Z" fill="#1D1D1B"/>
<path d="M189.51 324.27H187.72V337.96H189.51V324.27Z" fill="#1D1D1B"/>
<path d="M192.2 337.28C193.268 337.87 194.47 338.177 195.69 338.17C198.92 338.17 200.47 336.32 200.47 334.23C200.47 332.14 199.31 331.12 196.99 330.23C195.1 329.49 194.27 328.86 194.27 327.6C194.27 326.67 194.98 325.55 196.85 325.55C197.752 325.535 198.642 325.76 199.43 326.2L199.92 324.74C198.988 324.282 197.958 324.059 196.92 324.09C194.26 324.09 192.49 325.67 192.49 327.81C192.49 329.72 193.87 330.9 196.11 331.67C197.96 332.36 198.69 333.11 198.69 334.39C198.69 335.67 197.63 336.71 195.82 336.71C194.71 336.705 193.622 336.401 192.67 335.83L192.2 337.28Z" fill="#1D1D1B"/>
<path d="M215.06 338H216.81L215.96 324.3H213.7L211.26 330.93C210.65 332.65 210.17 334.18 209.8 335.56C209.43 334.14 208.99 332.61 208.42 330.93L206 324.27H203.75L202.75 337.97H204.44L204.8 332.1C204.92 330.04 205.03 327.75 205.07 326.04C205.46 327.67 205.98 329.43 206.63 331.36L208.87 337.89H210.21L212.63 331.24C213.32 329.37 213.87 327.62 214.35 326.04C214.35 327.73 214.48 330.04 214.58 331.95L215.06 338Z" fill="#1D1D1B"/>
<path d="M225.19 338.19C228.66 338.19 231.53 335.67 231.53 330.98C231.53 326.91 229.11 324.05 225.35 324.05C221.59 324.05 219.01 326.89 219.01 331.24C219.01 335.39 221.53 338.19 225.17 338.19H225.19ZM225.25 336.75C222.47 336.75 220.88 334.09 220.88 331.2C220.88 328.31 222.35 325.49 225.29 325.49C228.23 325.49 229.66 328.34 229.66 331.06C229.66 334.17 228.07 336.75 225.27 336.75H225.25Z" fill="#1D1D1B"/>
<path d="M238.7 337.93C239.772 338.053 240.851 338.106 241.93 338.09C244.59 338.09 246.7 337.4 248 336.09C248.672 335.38 249.195 334.542 249.539 333.627C249.882 332.712 250.039 331.737 250 330.76C250.054 329.849 249.907 328.937 249.57 328.088C249.233 327.24 248.714 326.476 248.05 325.85C246.85 324.73 245.05 324.14 242.51 324.14C241.244 324.14 239.981 324.237 238.73 324.43L238.7 337.93ZM240.49 325.76C241.171 325.619 241.865 325.555 242.56 325.57C246.3 325.57 248.13 327.62 248.1 330.86C248.1 334.55 246.1 336.69 242.27 336.67C241.675 336.689 241.08 336.663 240.49 336.59V325.76Z" fill="#1D1D1B"/>
<path d="M259.61 330.08H254.31V325.76H259.94V324.27H252.52V337.97H260.24V336.48H254.31V331.55H259.61V330.08Z" fill="#1D1D1B"/>
<path d="M167.51 216.29C163.598 214.211 160.333 211.098 158.07 207.29C155.815 203.345 154.629 198.879 154.629 194.335C154.629 189.791 155.815 185.325 158.07 181.38C160.329 177.569 163.596 174.455 167.51 172.38C171.672 170.215 176.31 169.129 181 169.22C184.922 169.163 188.814 169.919 192.43 171.44C195.754 172.863 198.694 175.053 201.01 177.83L193.78 184.5C192.301 182.691 190.434 181.239 188.316 180.252C186.199 179.265 183.886 178.769 181.55 178.8C178.736 178.758 175.958 179.447 173.49 180.8C171.166 182.087 169.253 184.004 167.97 186.33C166.669 188.817 165.989 191.583 165.989 194.39C165.989 197.197 166.669 199.962 167.97 202.45C169.253 204.773 171.167 206.687 173.49 207.97C175.958 209.323 178.736 210.012 181.55 209.97C183.893 209.999 186.211 209.495 188.33 208.495C190.449 207.495 192.313 206.027 193.78 204.2L201.01 210.87C198.703 213.69 195.744 215.907 192.39 217.33C188.782 218.829 184.906 219.574 181 219.52C176.304 219.592 171.665 218.481 167.51 216.29V216.29Z" fill="#008BD2"/>
<path d="M205.06 167.13H215.9V218.68H205.06V167.13Z" fill="#008BD2"/>
<path d="M259.6 203.05H231.33C231.773 205.28 233.068 207.249 234.94 208.54C237.032 209.931 239.509 210.631 242.02 210.54C243.785 210.574 245.541 210.283 247.2 209.68C248.772 209.058 250.201 208.122 251.4 206.93L257.17 213.18C253.65 217.18 248.51 219.197 241.75 219.23C237.876 219.31 234.04 218.463 230.56 216.76C227.456 215.247 224.852 212.872 223.06 209.92C221.277 206.915 220.363 203.474 220.42 199.98C220.375 196.506 221.274 193.084 223.02 190.08C224.727 187.173 227.205 184.796 230.18 183.21C233.285 181.605 236.726 180.759 240.222 180.74C243.717 180.721 247.167 181.53 250.29 183.1C253.228 184.637 255.66 186.992 257.29 189.88C259.03 193.008 259.906 196.542 259.83 200.12C259.81 200.27 259.74 201.24 259.6 203.05ZM234.24 191.05C232.545 192.501 231.456 194.535 231.19 196.75H249.6C249.318 194.549 248.227 192.531 246.54 191.09C244.831 189.66 242.657 188.906 240.43 188.97C238.19 188.882 235.993 189.602 234.24 191V191.05Z" fill="#008BD2"/>
<path d="M291.63 184.88C294.73 187.64 296.28 191.797 296.28 197.35V218.68H286.14V214C284.1 217.473 280.303 219.21 274.75 219.21C272.184 219.27 269.635 218.772 267.28 217.75C265.32 216.908 263.643 215.519 262.45 213.75C261.33 212.01 260.749 209.979 260.78 207.91C260.719 206.328 261.044 204.755 261.729 203.328C262.414 201.9 263.437 200.662 264.71 199.72C267.32 197.72 271.37 196.72 276.83 196.72H285.45C285.512 195.707 285.351 194.693 284.978 193.749C284.605 192.806 284.028 191.956 283.29 191.26C281.86 189.99 279.7 189.35 276.83 189.35C274.836 189.353 272.855 189.671 270.96 190.29C269.189 190.84 267.53 191.7 266.06 192.83L262.17 185.26C264.402 183.732 266.882 182.602 269.5 181.92C272.363 181.13 275.32 180.733 278.29 180.74C284.097 180.747 288.543 182.127 291.63 184.88ZM282.39 210.66C283.824 209.796 284.908 208.454 285.45 206.87V203.05H278C273.56 203.05 271.33 204.51 271.33 207.43C271.31 208.073 271.45 208.71 271.736 209.286C272.022 209.862 272.446 210.358 272.97 210.73C274.293 211.607 275.865 212.032 277.45 211.94C279.183 211.976 280.893 211.534 282.39 210.66V210.66Z" fill="#008BD2"/>
<path d="M337.24 184.92C340.087 187.7 341.51 191.82 341.51 197.28V218.68H330.67V199C330.67 196.04 330.023 193.83 328.73 192.37C328.009 191.615 327.131 191.028 326.158 190.649C325.186 190.271 324.142 190.111 323.1 190.18C321.895 190.121 320.691 190.316 319.566 190.752C318.442 191.188 317.421 191.855 316.57 192.71C314.95 194.41 314.14 196.923 314.14 200.25V218.73H303.3V181.31H313.65V185.68C315.132 184.065 316.962 182.807 319 182C321.23 181.131 323.606 180.697 326 180.72C330.667 180.74 334.413 182.14 337.24 184.92Z" fill="#008BD2"/>
<path d="M185.37 278.15L179.53 272.73C175.887 275.454 171.62 277.221 167.119 277.871C162.617 278.521 158.024 278.032 153.76 276.45C151.163 275.481 148.872 273.838 147.12 271.69C145.559 269.738 144.715 267.309 144.73 264.81C144.677 261.954 145.566 259.16 147.26 256.86C149.49 254.119 152.274 251.88 155.43 250.29C153.884 248.785 152.594 247.039 151.61 245.12C150.832 243.529 150.425 241.781 150.42 240.01C150.38 237.782 151.038 235.597 152.3 233.76C153.636 231.883 155.477 230.423 157.61 229.55C160.146 228.51 162.869 228.003 165.61 228.06C169.82 228.06 173.21 229.06 175.75 231.06C176.99 232.02 177.983 233.262 178.648 234.683C179.312 236.104 179.628 237.663 179.57 239.23C179.6 241.641 178.806 243.991 177.32 245.89C175.308 248.241 172.838 250.156 170.06 251.52L178.95 259.79C180.072 257.377 180.888 254.835 181.38 252.22L190 255C189.228 258.914 187.722 262.647 185.56 266L191.26 271.28L185.37 278.15ZM173.14 266.83L161.4 255.83C159.63 256.749 158.051 257.998 156.75 259.51C155.835 260.679 155.344 262.125 155.36 263.61C155.348 264.481 155.558 265.34 155.971 266.107C156.384 266.873 156.986 267.521 157.72 267.99C159.603 269.189 161.811 269.772 164.04 269.66C167.297 269.705 170.483 268.714 173.14 266.83V266.83ZM161.71 236.67C161.25 237.064 160.884 237.556 160.638 238.109C160.393 238.663 160.274 239.265 160.29 239.87C160.286 240.836 160.549 241.784 161.05 242.61C161.907 243.874 162.914 245.029 164.05 246.05C165.859 245.191 167.523 244.054 168.98 242.68C169.849 241.827 170.348 240.667 170.37 239.45C170.391 238.902 170.29 238.357 170.074 237.854C169.858 237.35 169.532 236.901 169.12 236.54C168.12 235.739 166.858 235.34 165.58 235.42C164.18 235.344 162.801 235.789 161.71 236.67Z" fill="#008BD2"/>
<path d="M217.5 276.59C214.391 275.778 211.458 274.398 208.85 272.52L212.67 264.05C214.937 265.667 217.449 266.91 220.11 267.73C222.889 268.644 225.795 269.113 228.72 269.12C231.92 269.12 234.283 268.647 235.81 267.7C236.499 267.334 237.076 266.789 237.479 266.122C237.882 265.454 238.097 264.69 238.1 263.91C238.11 263.359 237.993 262.812 237.759 262.313C237.525 261.814 237.18 261.375 236.75 261.03C235.718 260.198 234.537 259.57 233.27 259.18C231.863 258.72 229.953 258.213 227.54 257.66C224.456 256.963 221.418 256.082 218.44 255.02C216.088 254.143 213.996 252.684 212.36 250.78C210.585 248.588 209.68 245.817 209.82 243C209.793 240.266 210.594 237.589 212.12 235.32C213.845 232.87 216.246 230.976 219.03 229.87C222.616 228.434 226.459 227.753 230.32 227.87C233.387 227.866 236.444 228.238 239.42 228.98C242.165 229.631 244.791 230.711 247.2 232.18L243.73 240.72C239.647 238.293 235 236.976 230.25 236.9C227.097 236.9 224.763 237.41 223.25 238.43C222.56 238.845 221.989 239.431 221.593 240.132C221.197 240.833 220.989 241.625 220.99 242.43C220.995 243.24 221.247 244.03 221.711 244.694C222.176 245.359 222.831 245.866 223.59 246.15C226.167 247.22 228.848 248.021 231.59 248.54C234.671 249.247 237.709 250.129 240.69 251.18C243.029 252.049 245.117 253.481 246.77 255.35C248.554 257.514 249.461 260.269 249.31 263.07C249.327 265.782 248.514 268.434 246.98 270.67C245.223 273.127 242.791 275.024 239.98 276.13C236.378 277.558 232.523 278.239 228.65 278.13C224.879 278.146 221.125 277.628 217.5 276.59V276.59Z" fill="#008BD2"/>
<path d="M281.87 243.52C284.97 246.273 286.52 250.43 286.52 255.99V277.32H276.38V272.66C274.34 276.14 270.543 277.877 264.99 277.87C262.423 277.936 259.873 277.438 257.52 276.41C255.558 275.571 253.88 274.181 252.69 272.41C251.57 270.674 250.989 268.646 251.02 266.58C250.959 264.997 251.285 263.422 251.969 261.993C252.654 260.564 253.677 259.324 254.95 258.38C257.563 256.38 261.603 255.38 267.07 255.38H275.69C275.753 254.369 275.592 253.356 275.219 252.414C274.845 251.472 274.269 250.624 273.53 249.93C272.1 248.66 269.94 248.02 267.07 248.02C265.076 248.019 263.094 248.336 261.2 248.96C259.429 249.504 257.769 250.361 256.3 251.49L252.41 243.92C254.641 242.392 257.121 241.265 259.74 240.59C262.602 239.797 265.56 239.396 268.53 239.4C274.323 239.387 278.77 240.76 281.87 243.52ZM272.63 269.29C274.064 268.43 275.148 267.091 275.69 265.51V261.69H268.25C263.8 261.69 261.58 263.14 261.58 266.06C261.561 266.701 261.699 267.338 261.984 267.913C262.268 268.489 262.689 268.985 263.21 269.36C264.536 270.239 266.111 270.667 267.7 270.58C269.431 270.611 271.136 270.165 272.63 269.29Z" fill="#008BD2"/>
<path d="M305.42 240.77H315V249.11H305.7V277.32H294.86V249.11H289.09V240.77H294.86V239.11C294.86 234.85 296.123 231.467 298.65 228.96C301.177 226.453 304.73 225.203 309.31 225.21C310.865 225.201 312.416 225.375 313.93 225.73C315.226 226.011 316.461 226.518 317.58 227.23L314.73 235.08C313.446 234.189 311.913 233.727 310.35 233.76C307.06 233.76 305.42 235.56 305.42 239.18V240.77Z" fill="#008BD2"/>
<path d="M353.57 261.69H325.29C325.741 263.914 327.034 265.878 328.9 267.17C330.993 268.569 333.475 269.269 335.99 269.17C337.752 269.201 339.505 268.906 341.16 268.3C342.734 267.679 344.165 266.747 345.37 265.56L351.13 271.81C347.61 275.81 342.47 277.81 335.71 277.81C331.841 277.887 328.009 277.044 324.53 275.35C321.423 273.831 318.817 271.454 317.02 268.5C315.236 265.499 314.322 262.061 314.38 258.57C314.331 255.094 315.234 251.67 316.99 248.67C318.693 245.761 321.168 243.38 324.14 241.79C327.272 240.124 330.773 239.274 334.32 239.32C337.779 239.272 341.195 240.087 344.26 241.69C347.196 243.227 349.626 245.577 351.26 248.46C352.997 251.592 353.87 255.129 353.79 258.71C353.77 258.91 353.7 259.88 353.57 261.69ZM328.21 249.69C326.511 251.135 325.418 253.166 325.15 255.38H343.56C343.278 253.179 342.187 251.161 340.5 249.72C338.791 248.291 336.617 247.537 334.39 247.6C332.148 247.526 329.955 248.26 328.21 249.67V249.69Z" fill="#008BD2"/>
<path d="M246.79 143.05L304.25 91.1899L293.74 80.6799L246.79 123.42L221.56 102.4L211.75 112.21L246.79 143.05Z" fill="#009640"/>
</svg>
