<svg width="496" height="496" fill="none" xmlns="http://www.w3.org/2000/svg">
  <path
    d="M422.66 73.34A247.007 247.007 0 1 0 73.34 422.662 247.007 247.007 0 0 0 422.66 73.34Z"
    fill="#fff"
  />
  <path
    d="M248 486A238 238 0 0 1 79.71 79.71a237.991 237.991 0 0 1 168.492-70.4 237.997 237.997 0 0 1 238.487 238.488A237.994 237.994 0 0 1 416.29 416.29 236.462 236.462 0 0 1 248 486Z"
    fill="#fff"
  />
  <path
    d="M248 14a234.063 234.063 0 0 1 229.254 187.589A234.061 234.061 0 0 1 339.08 463.61 234.06 234.06 0 0 1 156.92 32.39 232.519 232.519 0 0 1 248 14Zm0-8C114.35 6 6 114.35 6 248s108.35 242 242 242 242-108.35 242-242S381.65 6 248 6Z"
    fill="#DADADA"
  />
  <path
    d="M248 467.19c121.055 0 219.19-98.135 219.19-219.19 0-121.055-98.135-219.19-219.19-219.19-121.055 0-219.19 98.135-219.19 219.19 0 121.055 98.135 219.19 219.19 219.19Z"
    stroke="#008BD2"
    stroke-width="30"
    stroke-miterlimit="10"
  />
  <path
    d="m115.85 79.77 2 2.39-10 8.37-10.76-12.86 9.72-8.17 2 2.39-6.76 5.68 2.34 2.79 6-5 1.95 2.32-6 5 2.5 3 7.01-5.91ZM128.73 74c-.83.31-1.705.485-2.59.52l-.45-2.93a8 8 0 0 0 2.24-.4 9.095 9.095 0 0 0 2.2-1c1.32-.87 1.76-1.64 1.33-2.29a.822.822 0 0 0-1-.3 8.803 8.803 0 0 0-1.89.76c-.805.385-1.633.72-2.48 1a3.94 3.94 0 0 1-2.1.06 3.12 3.12 0 0 1-1.88-1.46 3.56 3.56 0 0 1-.61-2.2c.074-.86.39-1.681.91-2.37a8.83 8.83 0 0 1 2.38-2.21 12.464 12.464 0 0 1 2.44-1.25 7.563 7.563 0 0 1 2.33-.55l.43 2.91a7.429 7.429 0 0 0-3.64 1.25 3.806 3.806 0 0 0-1.31 1.28 1.003 1.003 0 0 0 0 1.05.87.87 0 0 0 1 .34 11.226 11.226 0 0 0 2-.76c.805-.377 1.629-.71 2.47-1a4 4 0 0 1 2.07-.06 3.13 3.13 0 0 1 1.84 1.44A3.36 3.36 0 0 1 135 68a4.566 4.566 0 0 1-.94 2.37 9.428 9.428 0 0 1-2.45 2.24 12.985 12.985 0 0 1-2.88 1.39ZM154 58.69a3.91 3.91 0 0 1-.92 1.17 6.645 6.645 0 0 1-1.4 1 5 5 0 0 1-3.7.62 4.532 4.532 0 0 1-2.73-2.48l-2.46-4.69-1.76.92-1.34-2.55 1.76-.92-1.45-2.83 3.32-1.74 1.45 2.81 2.85-1.5L149 51l-2.84 1.5 2.44 4.65c.185.418.526.748.95.92a1.56 1.56 0 0 0 1.26-.16c.49-.235.885-.63 1.12-1.12l2.07 1.9ZM169.81 39.82a5.443 5.443 0 0 1 3.08 3.41l2.71 6.85-3.25 1.29-.6-1.49c-.207 1.367-1.207 2.407-3 3.12-.82.34-1.703.504-2.59.48a3.86 3.86 0 0 1-2.06-.68 3.612 3.612 0 0 1-1.28-1.66 3.382 3.382 0 0 1 .22-3.14 6.999 6.999 0 0 1 3.51-2.5l2.77-1.09a2.397 2.397 0 0 0-1.32-1.48 3.24 3.24 0 0 0-2.32.21 6.371 6.371 0 0 0-1.77 1 5.34 5.34 0 0 0-1.25 1.43l-2.21-1.94a8.071 8.071 0 0 1 1.93-2 11.218 11.218 0 0 1 2.62-1.44 6.7 6.7 0 0 1 4.81-.37Zm.31 9.45a2.433 2.433 0 0 0 .5-1.6l-.49-1.23-2.38.94c-1.43.57-2 1.32-1.59 2.26a1.353 1.353 0 0 0 1 .85 2.56 2.56 0 0 0 1.59-.18 3.286 3.286 0 0 0 1.37-1.04ZM195.34 31.34a5.927 5.927 0 0 1 2.83 1.66 7.724 7.724 0 0 1 1.83 6.76 6.003 6.003 0 0 1-1.65 2.84 6.517 6.517 0 0 1-3 1.63 4.998 4.998 0 0 1-4.35-.59l.38 1.44-3.45.91-4.54-17.22 3.62-1 1.6 6.06a5.001 5.001 0 0 1 3.36-2.5 6.68 6.68 0 0 1 3.37.01Zm.63 8.54a3.596 3.596 0 0 0 .24-2.75 3.64 3.64 0 0 0-1.56-2.28 3.361 3.361 0 0 0-4.57 1.2 3.597 3.597 0 0 0-.23 2.75 3.59 3.59 0 0 0 1.55 2.29 3.339 3.339 0 0 0 4.6-1.21h-.03ZM210.73 22.6l3.7-.58 2.76 17.6-3.7.58-2.76-17.6ZM229.37 22.81a1.942 1.942 0 0 1-.75-1.44 1.92 1.92 0 0 1 .53-1.53 2.41 2.41 0 0 1 1.63-.73 2.439 2.439 0 0 1 1.72.45 1.847 1.847 0 0 1 .75 1.39 2.006 2.006 0 0 1-.53 1.59 2.321 2.321 0 0 1-1.63.74 2.421 2.421 0 0 1-1.72-.47Zm0 2.4 3.74-.28 1 12.88-3.73.28-1.01-12.88ZM248.45 37.11a8.167 8.167 0 0 1-2.43-1l1.29-2.67a7.927 7.927 0 0 0 2.07.94 9.241 9.241 0 0 0 2.4.39c1.58 0 2.38-.35 2.39-1.14a.818.818 0 0 0-.63-.8 9.01 9.01 0 0 0-2-.44c-.88-.14-1.748-.34-2.6-.6a4.003 4.003 0 0 1-1.77-1.14 3.18 3.18 0 0 1-.72-2.27c.01-.782.273-1.54.75-2.16a4.512 4.512 0 0 1 2.09-1.43 8.753 8.753 0 0 1 3.21-.48c.916.022 1.828.14 2.72.35a7.748 7.748 0 0 1 2.23.87l-1.29 2.64a7.432 7.432 0 0 0-3.71-1 3.65 3.65 0 0 0-1.8.3 1.005 1.005 0 0 0-.62.85.862.862 0 0 0 .64.85c.649.23 1.319.397 2 .5.873.146 1.735.35 2.58.61a3.88 3.88 0 0 1 1.74 1.12 3.12 3.12 0 0 1 .7 2.22 3.371 3.371 0 0 1-.76 2.12 4.587 4.587 0 0 1-2.12 1.42 9.38 9.38 0 0 1-3.29.46 12.202 12.202 0 0 1-3.07-.51ZM282.76 28.33a5.69 5.69 0 0 1 .9 4.43l-1 7.32-3.66-.49.91-6.76a3.437 3.437 0 0 0-.36-2.36 2.498 2.498 0 0 0-1.83-1 3 3 0 0 0-2.35.57 3.602 3.602 0 0 0-1.18 2.47l-.85 6.33-3.71-.5L272 20.68l3.71.5-.82 6.18a4.999 4.999 0 0 1 1.93-.89 6.491 6.491 0 0 1 2.34-.09 5.335 5.335 0 0 1 3.6 1.95ZM318.2 36.78a5.816 5.816 0 0 1 .19 4.51l-2 7.11-3.6-1 1.87-6.55a3.5 3.5 0 0 0 0-2.38 2.224 2.224 0 0 0-1.53-1.22 2.651 2.651 0 0 0-2.24.24 3.703 3.703 0 0 0-1.44 2.23l-1.77 6.23-3.6-1 1.87-6.55c.55-2 .05-3.16-1.52-3.61a2.661 2.661 0 0 0-2.22.26 3.59 3.59 0 0 0-1.43 2.22L299 43.44l-3.6-1L298.93 30l3.44 1-.37 1.41a4.797 4.797 0 0 1 2-.72 6 6 0 0 1 2.32.22c.824.223 1.586.63 2.23 1.19a4.397 4.397 0 0 1 1.28 2 5.36 5.36 0 0 1 2.35-1 6.4 6.4 0 0 1 2.7.2 5.2 5.2 0 0 1 3.32 2.48ZM342.16 53.4l-8.92-4a3.072 3.072 0 0 0 .37 2.24 4.156 4.156 0 0 0 1.95 1.64 5 5 0 0 0 1.75.45 4.391 4.391 0 0 0 1.72-.27l.93 2.78a6.671 6.671 0 0 1-5.71-.26 8.444 8.444 0 0 1-3.18-2.36 6.21 6.21 0 0 1-1.4-3.21c-.144-1.2.05-2.415.56-3.51a6.74 6.74 0 0 1 2.22-2.76 6.32 6.32 0 0 1 3.23-1.14 7.65 7.65 0 0 1 6.32 2.8 5.998 5.998 0 0 1 1.24 3.12 6.993 6.993 0 0 1-.64 3.59l-.44.89Zm-6.3-7.4a3.11 3.11 0 0 0-1.77 1.37L339.9 50a3.099 3.099 0 0 0-.17-2.21 3.168 3.168 0 0 0-1.63-1.53 3.21 3.21 0 0 0-2.24-.26ZM366.8 60a5.676 5.676 0 0 1-.94 4.42l-3.81 6.34-3.2-1.93 3.51-5.83a3.302 3.302 0 0 0 .6-2.31 2.46 2.46 0 0 0-1.27-1.69 2.999 2.999 0 0 0-2.39-.41 3.6 3.6 0 0 0-2.06 1.8L354 65.9l-3.26-1.9 6.66-11.06 3.06 1.84-.78 1.3a4.802 4.802 0 0 1 2.24-.13c.817.133 1.599.429 2.3.87A5.315 5.315 0 0 1 366.8 60ZM379.7 82.8a3.882 3.882 0 0 1-1.45-.35 7.105 7.105 0 0 1-1.46-.87 4.999 4.999 0 0 1-2.09-3.12 4.472 4.472 0 0 1 1.12-3.5l3.25-4.19-1.57-1.22 1.76-2.28 1.58 1.22 1.92-2.49 3 2.29-1.93 2.49 2.54 2-1.8 2.22-2.54-2-3.22 4.16a1.717 1.717 0 0 0-.44 1.25 1.549 1.549 0 0 0 .66 1.08 2.49 2.49 0 0 0 1.49.55l-.82 2.76ZM402.5 103.78a6.368 6.368 0 0 1 0-3.49 6.455 6.455 0 0 1 1.91-3 6.54 6.54 0 0 1 3.16-1.63 6.4 6.4 0 0 1 3.48.31 7.995 7.995 0 0 1 3.13 2.17 7.238 7.238 0 0 1 1.77 3.21 5.065 5.065 0 0 1-.31 3.28l-3.11-1.1a3.187 3.187 0 0 0-.64-3.34 3.342 3.342 0 0 0-2.32-1.19 4.068 4.068 0 0 0-3.87 3.53 3.27 3.27 0 0 0 .92 2.43 3.136 3.136 0 0 0 3.27 1l.78 3.21c-1.06.36-2.21.36-3.27 0a7 7 0 0 1-3-2 8.005 8.005 0 0 1-1.9-3.39ZM417.67 121.91a6.356 6.356 0 0 1 .44-3.43 6.53 6.53 0 0 1 2.26-2.74 6.46 6.46 0 0 1 3.32-1.26 6.349 6.349 0 0 1 3.4.68 8.32 8.32 0 0 1 4.26 5.94 6.315 6.315 0 0 1-.46 3.42 6.89 6.89 0 0 1-5.57 4 6.272 6.272 0 0 1-3.39-.67 8.215 8.215 0 0 1-4.26-5.94Zm6.1 3a4.132 4.132 0 0 0 4.23-3 3.146 3.146 0 0 0-.58-2.49 3.186 3.186 0 0 0-2.18-1.37 3.615 3.615 0 0 0-2.66.76 3.54 3.54 0 0 0-1.58 2.29 3.17 3.17 0 0 0 .59 2.5 3.127 3.127 0 0 0 2.18 1.4v-.09ZM449.67 153.86a5.809 5.809 0 0 1-3.14 3.24l-6.53 3.41-1.73-3.33 6.05-3.14a3.467 3.467 0 0 0 1.74-1.62 2.233 2.233 0 0 0-.16-1.95 2.674 2.674 0 0 0-1.72-1.46 3.65 3.65 0 0 0-2.6.48l-5.75 3-1.73-3.33 6.05-3.14c1.8-.927 2.327-2.117 1.58-3.57A2.628 2.628 0 0 0 440 141a3.65 3.65 0 0 0-2.6.48l-5.75 3-1.73-3.32 11.46-6 1.65 3.17-1.32.69a4.577 4.577 0 0 1 1.92 1c.6.505 1.09 1.128 1.44 1.83.405.752.631 1.587.66 2.44a4.302 4.302 0 0 1-.58 2.3 5.41 5.41 0 0 1 2.31 1.06 6.327 6.327 0 0 1 1.71 2.1 5.189 5.189 0 0 1 .5 4.11ZM460 178.75a5.994 5.994 0 0 1-1.44 2.95 7.654 7.654 0 0 1-6.6 2.29 6.002 6.002 0 0 1-3-1.42 6.567 6.567 0 0 1-1.85-2.83 4.998 4.998 0 0 1 .19-4.18l-5.69 2-1.24-3.56 16.6-5.77 1.17 3.38-1.4.49a5.01 5.01 0 0 1 2.91 3.28 6.498 6.498 0 0 1 .35 3.37Zm-8.52 1.25a4.158 4.158 0 0 0 4.92-1.71 3.378 3.378 0 0 0-1.55-4.47 4.12 4.12 0 0 0-4.92 1.71 3.347 3.347 0 0 0 1.55 4.47ZM469.84 193.42l.87 3.64-17.33 4.1-.86-3.64 17.32-4.1ZM470.49 225l-14.37-3.92a6.65 6.65 0 0 1-3.41-1.75 5.323 5.323 0 0 1-1.33-3 6.45 6.45 0 0 1 0-2c.088-.608.303-1.19.63-1.71l2.83 1a3.27 3.27 0 0 0-.52 2.2c.039.445.225.863.53 1.19.39.333.852.569 1.35.69h.12l12.13-7.31.52 3.83-8.14 4.78 9.17 2.43.49 3.57ZM471.32 237.48l.14 3.74-12.9.51-.14-3.75 12.9-.5Zm2.4.1a1.992 1.992 0 0 1 1.473-.738 2.004 2.004 0 0 1 1.527.618 2.38 2.38 0 0 1 .66 1.65 2.43 2.43 0 0 1-.51 1.71 1.848 1.848 0 0 1-1.41.7 2.001 2.001 0 0 1-1.57-.59 2.617 2.617 0 0 1-.15-3.35h-.02ZM469.55 267.31a5.717 5.717 0 0 1-2.051 1.049 5.717 5.717 0 0 1-2.299.151l-7.38-.46.23-3.74 6.81.43a3.382 3.382 0 0 0 2.33-.53 2.435 2.435 0 0 0 .87-1.89 3.005 3.005 0 0 0-.73-2.31 3.65 3.65 0 0 0-2.55-1l-6.37-.4.24-3.74 12.88.81-.22 3.57-1.51-.09c.52.546.91 1.202 1.14 1.92.256.79.355 1.622.29 2.45a5.355 5.355 0 0 1-1.68 3.78ZM466.37 296.55l-10.56-2c-2.33-.45-3.94-1.38-4.84-2.81a7.634 7.634 0 0 1-.69-5.62 13.652 13.652 0 0 1 1.12-3.41 7.776 7.776 0 0 1 1.81-2.49l2.37 2a6.056 6.056 0 0 0-1.44 1.83 8.148 8.148 0 0 0-.86 2.37 4.07 4.07 0 0 0 .33 3 3.5 3.5 0 0 0 2.43 1.4l.54.1a5.22 5.22 0 0 1-.81-4.31 6.82 6.82 0 0 1 1.37-3 6.004 6.004 0 0 1 2.6-1.89 6.116 6.116 0 0 1 3.36-.24 6.17 6.17 0 0 1 3 1.46 5.999 5.999 0 0 1 1.72 2.71 7.008 7.008 0 0 1 .16 3.34 5.153 5.153 0 0 1-2.62 3.85l1.63.31-.62 3.4Zm-7.32-6.12a3.002 3.002 0 0 0 2.07 1.36 3 3 0 0 0 2.43-.5 3.84 3.84 0 0 0 .92-4.8 3.219 3.219 0 0 0-.901-.893 3.213 3.213 0 0 0-2.443-.466 3.232 3.232 0 0 0-1.166.499 3.54 3.54 0 0 0-1.32 2.24 3.472 3.472 0 0 0 .41 2.56ZM449 346.67l-10-9.41 1.42-3.31 8.51.51-6.17-5.93 1.42-3.31 13.7.84-1.39 3.24-9.23-.66L454 335l-1.26 2.91-9.24-.64 6.78 6.34-1.28 3.06ZM442.7 357.91l-1.87 3.24-11.18-6.45 1.87-3.24 11.18 6.45Zm2 1.37a1.894 1.894 0 0 1 1.61.18 2.001 2.001 0 0 1 1 1.3 2.364 2.364 0 0 1-.32 1.76 2.452 2.452 0 0 1-1.33 1.17 1.864 1.864 0 0 1-1.58-.16 1.993 1.993 0 0 1-1-1.34 2.31 2.31 0 0 1 .31-1.76c.27-.536.735-.948 1.3-1.15h.01ZM418.34 373.06a3.782 3.782 0 0 1 .28-1.46 7.067 7.067 0 0 1 .8-1.51 5.07 5.07 0 0 1 3-2.24 4.487 4.487 0 0 1 3.55.95l4.35 3 1.14-1.63 2.36 1.65-1.14 1.64 2.57 1.8-2.15 3.07-2.57-1.81-1.85 2.64-2.36-1.66 1.85-2.63-4.3-3a1.771 1.771 0 0 0-1.28-.37 1.528 1.528 0 0 0-1 .71 2.45 2.45 0 0 0-.48 1.52l-2.77-.67ZM411.69 398.52a5.69 5.69 0 0 1-4.18-1.7L402 392l2.46-2.82 5.13 4.49a3.37 3.37 0 0 0 2.17 1 2.493 2.493 0 0 0 1.85-1 3.001 3.001 0 0 0 .82-2.27A3.59 3.59 0 0 0 413 389l-4.8-4.2 2.46-2.82L424 393.75l-2.47 2.82-4.69-4.11a4.999 4.999 0 0 1-.33 2.1 6.385 6.385 0 0 1-1.22 2 5.288 5.288 0 0 1-3.6 1.96ZM377.89 434.93l-10.06-13.46 3.12-2.32 4.12 5.52 6.12-4.57-4.13-5.52 3.12-2.33 10.05 13.46-3.11 2.29-4-5.31-6.12 4.61 4 5.31-3.11 2.32ZM348.33 439.5l8.51-4.79a2.997 2.997 0 0 0-2-1 4.078 4.078 0 0 0-2.48.59 5.11 5.11 0 0 0-1.41 1.14 4.41 4.41 0 0 0-.8 1.54l-2.79-.9a6.703 6.703 0 0 1 3.64-4.48 8.416 8.416 0 0 1 3.79-1.15 6.17 6.17 0 0 1 3.41.78 6.41 6.41 0 0 1 2.48 2.55 6.635 6.635 0 0 1 .9 3.42 6.21 6.21 0 0 1-1 3.28 7.613 7.613 0 0 1-6 3.44 5.907 5.907 0 0 1-3.25-.85 7 7 0 0 1-2.5-2.65c-.09-.05-.23-.35-.5-.92Zm9.67-.68c.28-.717.28-1.513 0-2.23l-5.54 3.12a3.07 3.07 0 0 0 1.88 1.18c.758.143 1.541 0 2.2-.4a3.19 3.19 0 0 0 1.46-1.67ZM330.49 454.52a5.491 5.491 0 0 1-3.15-3.35l-2.85-6.79 3.23-1.36.62 1.48c.19-1.38 1.16-2.44 2.93-3.18a6.007 6.007 0 0 1 2.58-.54 3.81 3.81 0 0 1 2.07.64 3.56 3.56 0 0 1 1.31 1.64 3.33 3.33 0 0 1-.15 3.13 6.899 6.899 0 0 1-3.46 2.58l-2.74 1.15a2.384 2.384 0 0 0 1.41 1.45c.779.2 1.604.107 2.32-.26a6.865 6.865 0 0 0 1.74-1.08c.492-.412.906-.91 1.22-1.47l2.25 1.9a8.006 8.006 0 0 1-1.89 2 11.22 11.22 0 0 1-2.64 1.55 6.751 6.751 0 0 1-4.8.51Zm-.5-9.45a2.417 2.417 0 0 0-.47 1.62l.51 1.21 2.37-1c1.41-.6 1.93-1.36 1.54-2.29a1.362 1.362 0 0 0-1-.83 2.578 2.578 0 0 0-1.59.21 3.3 3.3 0 0 0-1.35 1.08h-.01ZM317.4 465.68l-3.58 1.1-5.25-17 3.57-1.11 5.26 17.01ZM286.88 455.71c.344-.363.75-.661 1.2-.88a6.965 6.965 0 0 1 1.62-.54 4.998 4.998 0 0 1 3.73.41 4.513 4.513 0 0 1 1.94 3.12l1.09 5.19 2-.41.6 2.82-1.95.41.64 3.08-3.66.77-.65-3.08-3.14.67-.6-2.82 3.15-.66-1.08-5.15a1.801 1.801 0 0 0-.67-1.14 1.524 1.524 0 0 0-1.26-.19 2.38 2.38 0 0 0-1.38.78l-1.58-2.38ZM264.64 469.74a5.678 5.678 0 0 1-1.89-4.1l-.73-7.36 3.73-.37.67 6.78a3.41 3.41 0 0 0 .89 2.22c.273.232.593.403.939.499a2.47 2.47 0 0 0 1.061.061 3 3 0 0 0 2.16-1.09 3.662 3.662 0 0 0 .58-2.68l-.63-6.35 3.73-.37 1.75 17.73-3.73.36-.61-6.21a4.997 4.997 0 0 1-1.68 1.31 6.307 6.307 0 0 1-2.25.62 5.304 5.304 0 0 1-3.99-1.05ZM217.1 456.48l-1.17 10 5.89-7.66 1.74.21 3.93 8.61 1.17-9.79 3.62.43-2 16.68-3.19-.38-5-11.11-7.38 9.63-3.17-.37 1.94-16.69 3.62.44ZM186.94 455.4l9.46 2.46a3.094 3.094 0 0 0-.73-2.15 4.188 4.188 0 0 0-2.2-1.29 5.013 5.013 0 0 0-1.8-.16 4.411 4.411 0 0 0-1.65.55l-1.38-2.59a6.699 6.699 0 0 1 5.68-.68 8.5 8.5 0 0 1 3.53 1.8 6.267 6.267 0 0 1 1.91 2.94 6.928 6.928 0 0 1 .021 3.548 6.928 6.928 0 0 1-1.741 3.092 6.221 6.221 0 0 1-3 1.67 7.652 7.652 0 0 1-6.73-1.71 5.995 5.995 0 0 1-1.74-2.88 6.937 6.937 0 0 1 0-3.64c.06-.05.17-.36.37-.96Zm7.43 6.22a3.003 3.003 0 0 0 1.52-1.63l-6.15-1.61c-.1.761.09 1.532.53 2.16a3.119 3.119 0 0 0 1.86 1.24 3.158 3.158 0 0 0 2.24-.16ZM163.69 453.8a5.425 5.425 0 0 1 .06-4.6l2.67-6.86 3.27 1.27-.59 1.49c1.093-.86 2.533-.943 4.32-.25a6.11 6.11 0 0 1 2.23 1.41c.504.528.85 1.186 1 1.9a3.602 3.602 0 0 1-.2 2.09 3.37 3.37 0 0 1-2.29 2.15 6.996 6.996 0 0 1-4.27-.56l-2.78-1.08a2.427 2.427 0 0 0 0 2 3.31 3.31 0 0 0 1.84 1.42c.64.248 1.315.393 2 .43a5.26 5.26 0 0 0 1.9-.2l.3 2.93a8.407 8.407 0 0 1-2.78.15 11.111 11.111 0 0 1-3-.72 6.66 6.66 0 0 1-3.68-2.97Zm6.2-7.14a2.406 2.406 0 0 0-1.46.84l-.48 1.23 2.4.93c1.43.55 2.33.36 2.69-.58a1.34 1.34 0 0 0-.11-1.26 2.56 2.56 0 0 0-1.29-1 3.254 3.254 0 0 0-1.75-.16ZM153.44 436.52a8.31 8.31 0 0 1 1.7 2l-2.35 1.81a7.77 7.77 0 0 0-1.43-1.77 8.752 8.752 0 0 0-2-1.42c-1.4-.74-2.28-.76-2.65-.06a.827.827 0 0 0 .21 1c.478.482 1.004.914 1.57 1.29.728.518 1.42 1.086 2.07 1.7a3.998 3.998 0 0 1 1.07 1.81 3.173 3.173 0 0 1-.38 2.35 3.532 3.532 0 0 1-1.63 1.59 4.57 4.57 0 0 1-2.52.35 8.896 8.896 0 0 1-3.08-1 12.234 12.234 0 0 1-2.28-1.53 7.725 7.725 0 0 1-1.6-1.77l2.34-1.78a7.447 7.447 0 0 0 2.85 2.57 3.872 3.872 0 0 0 1.75.54 1 1 0 0 0 .94-.49.86.86 0 0 0-.19-1 11.377 11.377 0 0 0-1.62-1.36 22.777 22.777 0 0 1-2-1.71 3.909 3.909 0 0 1-1.05-1.78 3.12 3.12 0 0 1 .37-2.3 3.359 3.359 0 0 1 1.63-1.55 4.598 4.598 0 0 1 2.53-.32 9.428 9.428 0 0 1 3.14 1.07 12.443 12.443 0 0 1 2.61 1.76ZM117.07 429.31l7.26-10.68 2.93 2-.86 1.27a4.909 4.909 0 0 1 2.19-.07 5.699 5.699 0 0 1 2.1.89 5.51 5.51 0 0 1 2.51 3.48 5.843 5.843 0 0 1-1.21 4.43l-4.11 6-3.09-2.1 3.79-5.58c1.173-1.72 1.037-3.07-.41-4.05a2.783 2.783 0 0 0-2.28-.49 3.707 3.707 0 0 0-2.14 1.69l-3.59 5.28-3.09-2.07ZM101.7 416.67a6.74 6.74 0 0 1-2.31-1.34l2.24-2.63c.3.3.5.49.61.58a3.434 3.434 0 0 0 2.5 1 3.63 3.63 0 0 0 2.45-1.47l4-4.64 2.85 2.43-8.37 9.83-2.72-2.31 1.1-1.3a4.22 4.22 0 0 1-2.35-.15ZM86.69 391.92l6.73 7.08a3 3 0 0 0 .51-2.21 4.119 4.119 0 0 0-1.18-2.25 4.918 4.918 0 0 0-1.45-1.09 4.372 4.372 0 0 0-1.69-.4l.19-2.93a6.695 6.695 0 0 1 5.2 2.41 8.413 8.413 0 0 1 2 3.39 6.23 6.23 0 0 1 .07 3.5 6.462 6.462 0 0 1-1.86 3 6.603 6.603 0 0 1-3.09 1.71 6.36 6.36 0 0 1-3.43-.16 7.17 7.17 0 0 1-3-2 7.29 7.29 0 0 1-1.78-3 5.91 5.91 0 0 1 0-3.36 6.89 6.89 0 0 1 2-3.08s.29-.22.78-.61Zm3 9.2a2.997 2.997 0 0 0 2.15-.59l-4.38-4.6a3 3 0 0 0-.66 2.07 3.43 3.43 0 0 0 2.92 3.08l-.03.04ZM81.91 378c.364.811.593 1.675.68 2.56l-2.89.63a7.928 7.928 0 0 0-.55-2.21 8.74 8.74 0 0 0-1.15-2.13c-1-1.26-1.75-1.65-2.37-1.18a.842.842 0 0 0-.24 1c.227.64.522 1.253.88 1.83.436.779.817 1.588 1.14 2.42a4.11 4.11 0 0 1 .2 2.09 3.128 3.128 0 0 1-1.35 2 3.448 3.448 0 0 1-2.15.75 4.521 4.521 0 0 1-2.43-.75 8.933 8.933 0 0 1-2.35-2.24 12.633 12.633 0 0 1-1.41-2.35 7.534 7.534 0 0 1-.69-2.29l2.87-.61a7.487 7.487 0 0 0 1.46 3.48c.346.515.813.938 1.36 1.23a.998.998 0 0 0 1 0 .857.857 0 0 0 .28-1 11.633 11.633 0 0 0-.88-1.92c-.42-.78-.795-1.585-1.12-2.41a3.88 3.88 0 0 1-.19-2.06 3.1 3.1 0 0 1 1.31-1.92 3.41 3.41 0 0 1 2.14-.72c.87.032 1.712.309 2.43.8a9.505 9.505 0 0 1 2.39 2.3c.652.83 1.2 1.737 1.63 2.7ZM57.32 347.86a3.003 3.003 0 0 1-1.54 1.77 3.014 3.014 0 0 1-3.31-.395 3 3 0 0 1 .59-4.955 3.004 3.004 0 0 1 2.33-.21 3.002 3.002 0 0 1 1.93 3.79ZM29.24 307.6a6.002 6.002 0 0 1 1.34-3.1 5.999 5.999 0 0 1 2.91-1.8 5.92 5.92 0 0 1 3.41-.05 5.765 5.765 0 0 1 2.79 1.89 9.39 9.39 0 0 1 1.84 3.58l.83 2.81 4.21-1.23 1.34 4.56L31.79 319l-2.16-7.37a9.51 9.51 0 0 1-.39-4.03Zm7.55-.09a2.275 2.275 0 0 0-1.95-.2 2.313 2.313 0 0 0-1.54 1.22 3.33 3.33 0 0 0 0 2.3l.74 2.54 4.72-1.37-.76-2.55a3.308 3.308 0 0 0-1.21-1.94ZM40.07 285.71a6.554 6.554 0 0 1-5.199 4.518 6.555 6.555 0 0 1-6.371-2.618 8.229 8.229 0 0 1-1.45-3.61 8.35 8.35 0 0 1 .24-3.88 6.396 6.396 0 0 1 1.92-3 6.596 6.596 0 0 1 7.634-.729 6.596 6.596 0 0 1 2.016 1.809 8.249 8.249 0 0 1 1.46 3.61 8.11 8.11 0 0 1-.25 3.9Zm-4.46-5.08a3.22 3.22 0 0 0-2.39-.39 3.147 3.147 0 0 0-2.1 1.12 2.79 2.79 0 0 0 .63 3.89 3.23 3.23 0 0 0 2.35.39 3.212 3.212 0 0 0 2.14-1.13 2.753 2.753 0 0 0 .118-3.09 2.746 2.746 0 0 0-.748-.79ZM24.76 257.47a7.002 7.002 0 0 1-.57-2.53l4.09-.22a9.266 9.266 0 0 0 0 1 3.137 3.137 0 0 0 .91 2.24 3.171 3.171 0 0 0 2.46.7l6-.32.24 4.56-13 .69-.23-4.34 1.56-.08a4.314 4.314 0 0 1-1.46-1.7ZM37.26 233.28c.24.443.406.923.49 1.42.103.584.14 1.178.11 1.77a5.611 5.611 0 0 1-1.42 3.86 4.814 4.814 0 0 1-3.78 1.2l-4.36-.2-.09 1.9-3.4-.16.09-1.89-3.39-.18.21-4.56 3.38.15.13-3 3.41.15-.14 3 4.32.19c.397.037.794-.077 1.11-.32a1.346 1.346 0 0 0 .44-1 2.389 2.389 0 0 0-.35-1.41l3.24-.92ZM28.1 206.42l12.85 2-.67 4.29-1.38-.21c.447.551.762 1.198.92 1.89a5.65 5.65 0 0 1 .07 2.17 5.455 5.455 0 0 1-2.09 3.74 5.998 5.998 0 0 1-4.64.8L26 220l.71-4.51 6.45 1a3.301 3.301 0 0 0 2.19-.22 1.992 1.992 0 0 0 .92-1.48 2.268 2.268 0 0 0-.48-1.86 3.35 3.35 0 0 0-2.18-1l-6.19-1 .68-4.51ZM35 179.16l10.21 3a6.99 6.99 0 0 1 4.68 3.4 8.06 8.06 0 0 1 .16 5.94 14.154 14.154 0 0 1-1.41 3.34 8.6 8.6 0 0 1-2 2.39l-2.61-2.48a5.811 5.811 0 0 0 1.54-1.64 8.352 8.352 0 0 0 1-2.19 3.78 3.78 0 0 0 0-2.76 3.123 3.123 0 0 0-2-1.46l-.41-.12a4.817 4.817 0 0 1 .4 4.14 6.66 6.66 0 0 1-1.64 2.85 5.895 5.895 0 0 1-2.76 1.63 6.206 6.206 0 0 1-3.41-.09 6.121 6.121 0 0 1-2.91-1.74 5.94 5.94 0 0 1-1.48-2.85 6.66 6.66 0 0 1 .14-3.28 4.712 4.712 0 0 1 2.86-3.42l-1.52-.44 1.16-4.22Zm6.18 7.31a2.505 2.505 0 0 0-1.63-1.3 2.46 2.46 0 0 0-2.05.23 3.206 3.206 0 0 0-1.13 3.93 2.425 2.425 0 0 0 1.61 1.3 2.455 2.455 0 0 0 2.07-.25 3.161 3.161 0 0 0 1.13-3.91ZM45.11 156.73a5.648 5.648 0 0 1 4.83.21l6.64 2.83-1.67 3.91-1.54-.68c.9 1.1.977 2.527.23 4.28a6.005 6.005 0 0 1-1.51 2.2c-.556.52-1.25.867-2 1a3.812 3.812 0 0 1-2.11-.29 3.306 3.306 0 0 1-2.08-2.43 7.53 7.53 0 0 1 .78-4.42l1-2.38c-1.3-.467-2.3.11-3 1.73a6.506 6.506 0 0 0-.47 1.86 5.431 5.431 0 0 0 .12 1.83l-3.45.19a8.792 8.792 0 0 1 0-2.85c.16-1.032.449-2.04.86-3a7.279 7.279 0 0 1 3.37-3.99Zm6.54 6.84a2.171 2.171 0 0 0-.7-1.24l-1-.45-.77 1.81c-.52 1.23-.38 2 .43 2.35a1.126 1.126 0 0 0 1.06 0c.377-.233.665-.585.82-1a2.59 2.59 0 0 0 .16-1.47ZM46.66 140l2.2-4 15.6 8.59-2.2 4-15.6-8.59ZM77.41 116.81a3.027 3.027 0 0 1-.79-6 2.891 2.891 0 0 1 2.24.65 3.001 3.001 0 0 1 1.17 2 3 3 0 0 1-2.62 3.34v.01Z"
    fill="#fff"
  />
  <path
    d="M150.91 356.29a3.001 3.001 0 0 1-2.37 2.68 7.996 7.996 0 0 1-2.34.27v-5.85a14.307 14.307 0 0 1 2.08.07 2.81 2.81 0 0 1 2.63 2.83Zm3.8-.15a5.12 5.12 0 0 0-4.21-5.4c-2-.52-4-.4-8.69-.4v18.48h4.39v-6.46a15.713 15.713 0 0 0 4.36-.79c2.8-.95 4.15-2.8 4.15-5.43ZM168.7 359.58c0 4.73-1.79 6.35-3.84 6.35s-3.81-1.62-3.81-6.35c0-4.73 1.79-6.47 3.81-6.47s3.84 1.73 3.84 6.47Zm4.58 0c0-5.87-3.63-9.57-8.42-9.57s-8.42 3.7-8.42 9.57 3.57 9.56 8.42 9.56 8.42-3.7 8.42-9.56ZM180.62 359v-5.64h.86c.601-.021 1.204.009 1.8.09a2.72 2.72 0 0 1 2.54 2.61c0 1.67-1.47 2.58-2.95 2.83a7.118 7.118 0 0 1-1.39.11h-.86Zm.86 2.92c.43 0 .61-.06 1.05-.12l3.32 7h4.49l-4.29-7.74c2.51-.95 3.56-2.57 3.56-4.91 0-3.41-2-4.86-4.49-5.45a15.802 15.802 0 0 0-3.64-.38h-5.24v18.48h4.38V362l.86-.08ZM201.07 353.92v14.9h-4.36v-14.9h-4.9v-3.58H206v3.58h-4.93ZM216.84 369.14c-4.5 0-7.94-2-7.94-7.57v-11.23h4.36v11.32c0 2.72.89 4.39 3.58 4.39s3.57-1.67 3.57-4.39v-11.32h4.36v11.23c0 5.55-3.37 7.57-7.93 7.57ZM255.38 361.64h-4.14l1.91-6.94h.08l2.15 6.94Zm6.94 7.18-7-18.66h-4.24l-6.49 18.66h4.76l1-3.77h6l1.16 3.77h4.81ZM264.75 368.82v-18.48h4.39v15.23l3.52-.33h3.57v3.58h-11.48ZM237.38 369.14c-5.62 0-9.92-3-9.92-9.36 0-6.13 4.64-9.82 10.33-9.82 1.534-.005 3.062.18 4.55.55v3.21a26.35 26.35 0 0 0-3.91-.44c-3.9 0-6.35 2.15-6.35 6.41 0 4.54 2.68 6.12 5.33 6.12.301-.006.602-.033.9-.08v-4.2l-2.88-.41v-2.68h7.21v9.95a18.252 18.252 0 0 1-5.26.75Z"
    fill="#1D1D1B"
  />
  <path
    d="M350 367.23c1.28.57 1.16 1.91 2.26 2.58 1.24 2.1 2.65 4.5 1.53 7.13.79 3.65-2.5 5-4 7.83-.9.35-1.46 1.6-2.69 1.07a3.153 3.153 0 0 1-2.53.5c-.32.59-1.07 0-1.48.39-5.39.47-8.68-4.16-12.26-7.49-.52-.64-1.26-.68-1.88-1.39-.89 0-1.51-1.09-2.48-.53a5.152 5.152 0 0 1-2.24.94c-.2.61-1 .12-.92.86-1.66.33-1 2.9-3 2.26-.79.27-1-.69-1.61-.79.14-.81-.18-1.24.22-1.92 1.21-.59 2.4-1.57 3.47-2.23.2-.59 1.13-.59 1.66-1 .16-.24.42-.23.6-.43 1.72.22 3.72-.23 5.14.63 1.7.59 3.41 2.32 4.75 3.41 1.23 1.7 2.89 3.89 4.85 4.3.45 1.22 2.24.67 3.36 1 .25 0 .57-.37.74-.12.69-.23 1.68 0 2.08-.68.87.06 1.43-.69 2.24-.8.2-.16.23-.61.61-.42.84-.89 2.31-1.76 2.32-3.17.73-.6-.07-1.36.21-2.19.73-2.52-.37-4.7-1.52-6.69-1-.52-2-1.41-3.18-1.88-2.26-.14-5-.29-6.09 1.41-.08 1.3-1.89 1-1.27 2.6-.33 1.83 1.36 2.42 2.24 3.62 1.4-.43 1.94 1 3.37.57a4.895 4.895 0 0 0 1.67-1.86 2.91 2.91 0 0 1-.38-1.79c.73 0 .34-1 1.07-1s.41.76.85 1.05c.68.74.6 2.21.33 3.25-.48.19-.26.67-.33 1a5.272 5.272 0 0 1-3.47 2.23 8.17 8.17 0 0 1-3.687-1.026 8.17 8.17 0 0 1-2.813-2.594c-.74-1-1.62-2.32-1.05-3.72.13.05.2-.06.3-.13-.6-.6.57-1 .2-1.47a6.88 6.88 0 0 1 4.13-4.27c1.3.5 2.29-.75 3.68-.47 1.69.5 3.38.89 5 1.43Z"
    fill="#008BD2"
  />
  <path
    d="M317.1 381.77c1.6 1.45 4.12 1.58 6.18 1 1.78-.51 2.69-2.13 4.28-3.09.52 0 .8.56 1.32.59-1.57 1.82-2.68 3.83-5 4.55-1.62.29-3.52.77-5.16.16-1.37-.08-2.06-.9-3.24-1.47v-.29a15.326 15.326 0 0 1-2.35-2.8c-.6-.44-.58-.89-1.17-1.18-.23-1-1.33-1.74-2.07-2.36-.88-.9-2.46-.72-3.84-.74-2.53-.09-3.46 3.08-5.59 3.68-.26.55-1.07.51-1 1.19 2.35 1 3.21-1.79 5-2.22a4.837 4.837 0 0 1 5 2.65c.49.82 1.77 1.55 1.48 2.81a1.546 1.546 0 0 1-1.18.28 26.806 26.806 0 0 1-3.83-3.38c-.95-.09-1.56.64-2.5.59-1.12.58-1.56 1.84-2.95 1.77a20.757 20.757 0 0 1-3.54-.74c-.3-.54-1-.19-1.46-.29a28.152 28.152 0 0 1-2.07-4.43c-.44-.37-.27-1-.88-1.32-.61-.32-1.52.39-1.62-.74-2.37-.12-3.8 1.69-4.71 3.53 0 1.24.13 2.64 1.32 3.1.62.8 2 .39 2.2 1.48.69-.28 1.59 0 2.07-.75a2.861 2.861 0 0 0-.88-2.64c-1.19-.73-1.83.72-2.94.59a.463.463 0 0 1-.335.255.464.464 0 0 1-.405-.115c-.67-.18.1-.68-.15-1.17 1-1.72 3.14-1.59 4.86-1.33 1.64.48 1.57 2.57 2.65 3.54.4 1.78-1.27 2.61-2.2 3.68-1.68 1.5-3.45-.32-5.31-.15a4.629 4.629 0 0 1-2.5-1.62 8.537 8.537 0 0 1-.45-6.62c.38 0 .46-.44.45-.74 1.9-1.88 4.61-3.49 7.67-2.8 3 .93 3.08 4.37 4.85 6.48.16.17.31.39.58.3.27-.09-.32-.81.3-.59a6.595 6.595 0 0 1 1.91-2.95c0-.58.7-.88 1-1.33.69 0 .93-1.28 1.91-1 .66-1.34 2.39-.67 3.38-1.46 5.61-.8 7.82 4.84 10.92 8.09Z"
    fill="#008BD2"
  />
  <path
    d="M322.79 318.31c.25 1.71 1.37 3.25.73 5.14-.42.27-.38.82-.59 1-.38.78-.34 1.75-1.17 2.35-.39 1.06-1.65 1.64-2.21 2.37a9.291 9.291 0 0 1-8.11 1.61 3.322 3.322 0 0 1-2.46-.94 17.518 17.518 0 0 0-1.55-1.65c-.42-.38-.35-1.27-.55-2.11-.37-1 0-1.77 0-2.67a7.124 7.124 0 0 1-1.32-2.94c.52-1.68 2.19-2.3 3.47-3.42 2.42-2.1 5.91-4.58 9.49-2.77a12.238 12.238 0 0 1 4.27 4.03Z"
    fill="#FBBA00"
  />
  <path
    d="M332.83 316.88a37.395 37.395 0 0 1 2.52 3.07c.84.17 1.21-.74 1.92-.88.63-.61 1.37-1.55 2.35-1.62.95.18 1.27.91 2.07 1.47a2.654 2.654 0 0 0 1 1.62c1.63-.35 3.22-1.2 4.93-1.35 1 1.33 0 3.11-.36 4.44-.46 1.64-1.38 2.73-2 4.27 0 .84-.66 1.4-1 2.07a4.89 4.89 0 0 1-1.33 2.64c.13.82-.84.84-.73 1.61-1.87 1.71-2.06 4.09-4 5.77a20.56 20.56 0 0 1-2.95 3.24c-.83 1.36-2.35 1.39-3.37 2.94-.67.08-1 .93-1.64 1.17-1.1 1.44.23 3 0 4.57 1.07 1.63-.08 3.44-.15 5.16-.32.79-.83 1.11-1.17 1.91.09 1.94 2.64 3.27 3.63 3.5a.683.683 0 0 1 .64.41c0 .31-1.21.73-1.79 1.68.21.89 1.71 1.17 1.92 1.74-.5.69-1.91.81-2.17 1.42.52.68 2.19.74 2.77 1.3.09.77-.95.55-1.31 1a17.535 17.535 0 0 1-9.14-.45c-2.28-.31-4.42.51-6.63.74-1-.16-1 .5-1.88 0-.17 0-.31-.13-.62 0-.42.56-1.66-1.19-1.62-2.05.47-.66-.39-2 .74-2.22.64-1 1.28-2.36.58-3.53-1.87-1.66-1.25-4.36-2.34-6.33.16-1.69-.26-3.5.72-5.16-.11-.29.2-.52.3-.6 1-2.6 3.52-4.73 2.94-7.8-.37-.74 0-.92-.19-1.44-.18-.87-.6-1.22-.1-2.24.74-3.36 4.62-3.86 7.07-5.74 2.81-.62 4.19-3.77 5.6-5.9a1.43 1.43 0 0 1 .3-1c1.5-1.24 1.23-3.72 2.5-5.32-.14-.56.21-.91.44-1.32.122-1.11.408-2.195.85-3.22.28-.11.53.08.7.43Z"
    fill="#E30613"
  />
  <path
    d="M292.88 321.78c2.22 2.38 3.32 6.31 6.05 8.1a6.097 6.097 0 0 0 4.28 2.64c.91 1.17 2.76.69 3.83 1.76 1.32-.39 1.44 1.17 2.65 1.05a8.925 8.925 0 0 1 1.62 2.35c.48 3-1.95 4.72-1.91 7.51-1.5 3.06.31 6.2.14 9.43a3.592 3.592 0 0 1-.44 2.2c0 2.75-1.86 4.59-3.54 6.48-.61 1.9.74 4.57-1 6-.81 0-1.4.6-2.22.6-1.543.372-3.147.42-4.71.14-.49-.69-1.64.17-2.06-.74-.72-.49-1.92-.27-2.66-.3-1.85-.19-3.49.06-5.53-.18a3.448 3.448 0 0 1-1.32 0c-.63-.36.18-1.13.63-1.42.376-.152.717-.38 1-.67.2-.82-1.6-.66-1.37-1.5.57-.4 2-.82 1.82-1.69-.33-1-1.87-1.24-2-2.09a9.156 9.156 0 0 1 5.47-1.62c.23-.6 1.07-.29 1-.87.21-.61.93-1.2.44-1.92-.24-.34.1-.69-.3-1a4.7 4.7 0 0 0 .15-1.77c.57-.64-.24-1.31.45-1.9-.14-1.37.81-2.58.88-3.54-.1-.62.29-.39.61-1.23s.72-1 .86-1.51-.09-3.11-1.61-3.89c-1.52-.78-2.3-2.32-3.54-3.24-1.24-1.76-1.76-4.33-3.53-5.73-.18-1.53-.87-1.67-1.11-3.32a10.387 10.387 0 0 1-1-2.59c1-.85 2.8 1 3.37 0 0-.62-.28-2.27.36-2.5 1.09.05 2.36.63 3.09.25.82-.68-.14-3.29 1.15-3.29Z"
    fill="#009640"
  />
  <path
    d="M155.28 337.97h1.79v-12.19h4.19v-1.51h-10.14v1.51h4.16v12.19ZM163.06 324.27v8.07c0 4.26 2.11 5.85 4.91 5.85 3 0 5.18-1.71 5.18-5.91v-8h-1.79v8.13c0 3-1.32 4.35-3.33 4.35-1.82 0-3.19-1.3-3.19-4.35v-8.13l-1.78-.01ZM176.51 338h1.77v-6H180c1.6.07 2.35.78 2.76 2.67.191 1.117.492 2.213.9 3.27h1.82a24.656 24.656 0 0 1-1-3.76 3.521 3.521 0 0 0-2-2.77v-.06a3.597 3.597 0 0 0 2.59-3.47 3.419 3.419 0 0 0-1.08-2.6 5.672 5.672 0 0 0-4-1.14 17.952 17.952 0 0 0-3.4.31l-.08 13.55Zm1.77-12.25a6.914 6.914 0 0 1 1.75-.17c1.87 0 3.15.78 3.15 2.54 0 1.57-1.2 2.6-3.09 2.6h-1.81v-4.97ZM189.51 324.27h-1.79v13.69h1.79v-13.69ZM192.2 337.28c1.068.59 2.27.897 3.49.89 3.23 0 4.78-1.85 4.78-3.94s-1.16-3.11-3.48-4c-1.89-.74-2.72-1.37-2.72-2.63 0-.93.71-2.05 2.58-2.05a5.118 5.118 0 0 1 2.58.65l.49-1.46a6.371 6.371 0 0 0-3-.65c-2.66 0-4.43 1.58-4.43 3.72 0 1.91 1.38 3.09 3.62 3.86 1.85.69 2.58 1.44 2.58 2.72 0 1.28-1.06 2.32-2.87 2.32a6.178 6.178 0 0 1-3.15-.88l-.47 1.45ZM215.06 338h1.75l-.85-13.7h-2.26l-2.44 6.63c-.61 1.72-1.09 3.25-1.46 4.63-.37-1.42-.81-2.95-1.38-4.63l-2.42-6.66h-2.25l-1 13.7h1.69l.36-5.87c.12-2.06.23-4.35.27-6.06.39 1.63.91 3.39 1.56 5.32l2.24 6.53h1.34l2.42-6.65c.69-1.87 1.24-3.62 1.72-5.2 0 1.69.13 4 .23 5.91l.48 6.05ZM225.19 338.19c3.47 0 6.34-2.52 6.34-7.21 0-4.07-2.42-6.93-6.18-6.93s-6.34 2.84-6.34 7.19c0 4.15 2.52 6.95 6.16 6.95h.02Zm.06-1.44c-2.78 0-4.37-2.66-4.37-5.55 0-2.89 1.47-5.71 4.41-5.71 2.94 0 4.37 2.85 4.37 5.57 0 3.11-1.59 5.69-4.39 5.69h-.02ZM238.7 337.93c1.072.123 2.151.176 3.23.16 2.66 0 4.77-.69 6.07-2a7.342 7.342 0 0 0 2-5.33 6.241 6.241 0 0 0-1.95-4.91c-1.2-1.12-3-1.71-5.54-1.71-1.266 0-2.529.097-3.78.29l-.03 13.5Zm1.79-12.17a9.225 9.225 0 0 1 2.07-.19c3.74 0 5.57 2.05 5.54 5.29 0 3.69-2 5.83-5.83 5.81-.595.019-1.19-.007-1.78-.08v-10.83ZM259.61 330.08h-5.3v-4.32h5.63v-1.49h-7.42v13.7h7.72v-1.49h-5.93v-4.93h5.3v-1.47Z"
    fill="#1D1D1B"
  />
  <path
    d="M167.51 216.29a24.18 24.18 0 0 1-9.44-9 26.106 26.106 0 0 1 0-25.91 24.092 24.092 0 0 1 9.44-9 28.052 28.052 0 0 1 13.49-3.16 28.416 28.416 0 0 1 11.43 2.22 22.917 22.917 0 0 1 8.58 6.39l-7.23 6.67a15.531 15.531 0 0 0-12.23-5.7 16.264 16.264 0 0 0-8.06 2 14.112 14.112 0 0 0-5.52 5.53 17.39 17.39 0 0 0 0 16.12 14.087 14.087 0 0 0 5.52 5.52 16.264 16.264 0 0 0 8.06 2 15.436 15.436 0 0 0 12.23-5.77l7.23 6.67a22.483 22.483 0 0 1-8.62 6.46 28.654 28.654 0 0 1-11.39 2.19 28.001 28.001 0 0 1-13.49-3.23ZM205.06 167.13h10.84v51.55h-10.84v-51.55ZM259.6 203.05h-28.27a8.737 8.737 0 0 0 3.61 5.49 12.004 12.004 0 0 0 7.08 2 14.353 14.353 0 0 0 5.18-.86 12.46 12.46 0 0 0 4.2-2.75l5.77 6.25c-3.52 4-8.66 6.017-15.42 6.05-3.874.08-7.71-.767-11.19-2.47a18.002 18.002 0 0 1-7.5-6.84 18.876 18.876 0 0 1-2.64-9.94 19.208 19.208 0 0 1 2.6-9.9 18.268 18.268 0 0 1 7.16-6.87 22.13 22.13 0 0 1 20.11-.11 17.187 17.187 0 0 1 7 6.78 20.182 20.182 0 0 1 2.54 10.24c-.02.15-.09 1.12-.23 2.93Zm-25.36-12a8.9 8.9 0 0 0-3.05 5.7h18.41a8.938 8.938 0 0 0-3.06-5.66 9.114 9.114 0 0 0-6.11-2.12 9.34 9.34 0 0 0-6.19 2.03v.05ZM291.63 184.88c3.1 2.76 4.65 6.917 4.65 12.47v21.33h-10.14V214c-2.04 3.473-5.837 5.21-11.39 5.21a17.724 17.724 0 0 1-7.47-1.46 11.122 11.122 0 0 1-4.83-4 10.498 10.498 0 0 1-1.67-5.84 9.722 9.722 0 0 1 3.93-8.19c2.61-2 6.66-3 12.12-3h8.62a6.923 6.923 0 0 0-2.16-5.46c-1.43-1.27-3.59-1.91-6.46-1.91a18.998 18.998 0 0 0-5.87.94c-1.771.55-3.43 1.41-4.9 2.54l-3.89-7.57a23.433 23.433 0 0 1 7.33-3.34 32.755 32.755 0 0 1 8.79-1.18c5.807.007 10.253 1.387 13.34 4.14Zm-9.24 25.78a7.115 7.115 0 0 0 3.06-3.79v-3.82H278c-4.44 0-6.67 1.46-6.67 4.38a3.9 3.9 0 0 0 1.64 3.3 7.34 7.34 0 0 0 4.48 1.21 9.41 9.41 0 0 0 4.94-1.28ZM337.24 184.92c2.847 2.78 4.27 6.9 4.27 12.36v21.4h-10.84V199c0-2.96-.647-5.17-1.94-6.63a7.138 7.138 0 0 0-5.63-2.19 8.614 8.614 0 0 0-6.53 2.53c-1.62 1.7-2.43 4.213-2.43 7.54v18.48H303.3v-37.42h10.35v4.37A14.514 14.514 0 0 1 319 182a18.781 18.781 0 0 1 7-1.28c4.667.02 8.413 1.42 11.24 4.2ZM185.37 278.15l-5.84-5.42a27.222 27.222 0 0 1-25.77 3.72 15.61 15.61 0 0 1-6.64-4.76 10.912 10.912 0 0 1-2.39-6.88 12.999 12.999 0 0 1 2.53-7.95 25.078 25.078 0 0 1 8.17-6.57 19.863 19.863 0 0 1-3.82-5.17 11.71 11.71 0 0 1-1.19-5.11 10.7 10.7 0 0 1 1.88-6.25 12.181 12.181 0 0 1 5.31-4.21 19.988 19.988 0 0 1 8-1.49c4.21 0 7.6 1 10.14 3a9.874 9.874 0 0 1 3.82 8.17 10.595 10.595 0 0 1-2.25 6.66 22.753 22.753 0 0 1-7.26 5.63l8.89 8.27a31.971 31.971 0 0 0 2.43-7.57L190 255a31.573 31.573 0 0 1-4.44 11l5.7 5.28-5.89 6.87Zm-12.23-11.32-11.74-11a15.646 15.646 0 0 0-4.65 3.68 6.539 6.539 0 0 0-1.39 4.1 5.116 5.116 0 0 0 2.36 4.38 10.76 10.76 0 0 0 6.32 1.67 15.364 15.364 0 0 0 9.1-2.83Zm-11.43-30.16a4.076 4.076 0 0 0-1.42 3.2 5.241 5.241 0 0 0 .76 2.74 18.84 18.84 0 0 0 3 3.44 19.173 19.173 0 0 0 4.93-3.37 4.644 4.644 0 0 0 1.39-3.23 3.686 3.686 0 0 0-1.25-2.91c-1-.801-2.262-1.2-3.54-1.12a5.67 5.67 0 0 0-3.87 1.25ZM217.5 276.59a26.083 26.083 0 0 1-8.65-4.07l3.82-8.47a25.997 25.997 0 0 0 7.44 3.68 27.771 27.771 0 0 0 8.61 1.39c3.2 0 5.563-.473 7.09-1.42a4.313 4.313 0 0 0 2.29-3.79 3.61 3.61 0 0 0-1.35-2.88 10.437 10.437 0 0 0-3.48-1.85c-1.407-.46-3.317-.967-5.73-1.52a78.809 78.809 0 0 1-9.1-2.64 14.864 14.864 0 0 1-6.08-4.24 11.461 11.461 0 0 1-2.54-7.78 13.52 13.52 0 0 1 2.3-7.68 15.409 15.409 0 0 1 6.91-5.45 28.08 28.08 0 0 1 11.29-2 37.417 37.417 0 0 1 9.1 1.11 26.841 26.841 0 0 1 7.78 3.2l-3.47 8.54a27.234 27.234 0 0 0-13.48-3.82c-3.153 0-5.487.51-7 1.53a4.662 4.662 0 0 0-2.26 4 3.997 3.997 0 0 0 2.6 3.72 40.508 40.508 0 0 0 8 2.39 83.605 83.605 0 0 1 9.1 2.64 15.168 15.168 0 0 1 6.08 4.17 11.19 11.19 0 0 1 2.54 7.72 13.287 13.287 0 0 1-2.33 7.6 15.653 15.653 0 0 1-7 5.46 28.564 28.564 0 0 1-11.33 2 39.888 39.888 0 0 1-11.15-1.54ZM281.87 243.52c3.1 2.753 4.65 6.91 4.65 12.47v21.33h-10.14v-4.66c-2.04 3.48-5.837 5.217-11.39 5.21a17.532 17.532 0 0 1-7.47-1.46 11.06 11.06 0 0 1-4.83-4 10.463 10.463 0 0 1-1.67-5.83 9.738 9.738 0 0 1 3.93-8.2c2.613-2 6.653-3 12.12-3h8.62a6.893 6.893 0 0 0-2.16-5.45c-1.43-1.27-3.59-1.91-6.46-1.91a18.73 18.73 0 0 0-5.87.94 15.52 15.52 0 0 0-4.9 2.53l-3.89-7.57a23.232 23.232 0 0 1 7.33-3.33 32.76 32.76 0 0 1 8.79-1.19c5.793-.013 10.24 1.36 13.34 4.12Zm-9.24 25.77a7.089 7.089 0 0 0 3.06-3.78v-3.82h-7.44c-4.45 0-6.67 1.45-6.67 4.37a3.916 3.916 0 0 0 1.63 3.3 7.396 7.396 0 0 0 4.49 1.22 9.419 9.419 0 0 0 4.93-1.29ZM305.42 240.77H315v8.34h-9.3v28.21h-10.84v-28.21h-5.77v-8.34h5.77v-1.66c0-4.26 1.263-7.643 3.79-10.15 2.527-2.507 6.08-3.757 10.66-3.75a19.738 19.738 0 0 1 4.62.52c1.296.281 2.531.788 3.65 1.5l-2.85 7.85a7.408 7.408 0 0 0-4.38-1.32c-3.29 0-4.93 1.8-4.93 5.42v1.59ZM353.57 261.69h-28.28a8.79 8.79 0 0 0 3.61 5.48 11.915 11.915 0 0 0 7.09 2 14.305 14.305 0 0 0 5.17-.87 12.575 12.575 0 0 0 4.21-2.74l5.76 6.25c-3.52 4-8.66 6-15.42 6a24.428 24.428 0 0 1-11.18-2.46 18.09 18.09 0 0 1-7.51-6.85 18.82 18.82 0 0 1-2.64-9.93c-.049-3.476.854-6.9 2.61-9.9a18.274 18.274 0 0 1 7.15-6.88 21.094 21.094 0 0 1 10.18-2.47 20.825 20.825 0 0 1 9.94 2.37 17.231 17.231 0 0 1 7 6.77 20.202 20.202 0 0 1 2.53 10.25c-.02.2-.09 1.17-.22 2.98Zm-25.36-12a8.869 8.869 0 0 0-3.06 5.69h18.41a8.938 8.938 0 0 0-3.06-5.66 9.124 9.124 0 0 0-6.11-2.12 9.34 9.34 0 0 0-6.18 2.07v.02Z"
    fill="#008BD2"
  />
  <path
    d="m246.79 143.05 57.46-51.86-10.51-10.51-46.95 42.74-25.23-21.02-9.81 9.81 35.04 30.84Z"
    fill="#009640"
  />
</svg>
