<svg xmlns="http://www.w3.org/2000/svg" width="101" height="27" fill="none">
  <path
    fill="#faf6f0"
    d="M1.504 11.999V.799H6.4c1.216 0 2.283.234 3.2.704.917.47 1.632 1.12 2.144 1.952.512.832.768 1.813.768 2.944 0 1.12-.256 2.101-.768 2.944-.512.832-1.227 1.482-2.144 1.952s-1.984.704-3.2.704H1.504Zm2.08-1.76h2.72c.843 0 1.568-.16 2.176-.48a3.4 3.4 0 0 0 1.424-1.344c.341-.576.512-1.248.512-2.016 0-.779-.17-1.45-.512-2.016A3.4 3.4 0 0 0 8.48 3.039c-.608-.32-1.333-.48-2.176-.48h-2.72v7.68Zm17.667 1.92c-.875 0-1.68-.144-2.416-.432a5.91 5.91 0 0 1-1.92-1.2 5.55 5.55 0 0 1-1.264-1.824 5.84 5.84 0 0 1-.448-2.304c0-.832.15-1.595.448-2.288a5.337 5.337 0 0 1 1.264-1.824 5.775 5.775 0 0 1 1.92-1.216 6.528 6.528 0 0 1 2.4-.432c.874 0 1.674.144 2.4.432a5.776 5.776 0 0 1 1.92 1.216c.544.512.965 1.12 1.264 1.824.298.693.448 1.456.448 2.288 0 .832-.15 1.6-.448 2.304a5.337 5.337 0 0 1-1.264 1.824 5.911 5.911 0 0 1-1.92 1.2 6.404 6.404 0 0 1-2.384.432Zm-.016-1.824c.565 0 1.088-.096 1.568-.288.48-.192.896-.464 1.248-.816.352-.363.624-.779.816-1.248.202-.48.304-1.008.304-1.584 0-.576-.102-1.099-.304-1.568a3.669 3.669 0 0 0-.816-1.248 3.56 3.56 0 0 0-1.248-.832 4.184 4.184 0 0 0-1.568-.288c-.566 0-1.088.096-1.568.288-.47.192-.886.47-1.248.832-.352.352-.63.768-.832 1.248-.192.47-.288.992-.288 1.568 0 .565.096 1.088.288 1.568.202.48.48.901.832 1.264.352.352.768.624 1.248.816.48.192 1.002.288 1.568.288Zm9.517 1.664V.799h1.712l7.023 8.624h-.848V.799h2.064v11.2h-1.712l-7.023-8.624h.848v8.624H30.75Zm12.649 0 5.04-11.2h2.048l5.056 11.2h-2.176L49.033 1.903h.832l-4.32 10.096H43.4Zm2.32-2.592.56-1.632h6.048l.56 1.632H45.72Zm18.23 2.592V.799h2.08v11.2h-2.08Zm6.39 0V.799h4.607c.992 0 1.84.16 2.544.48.715.32 1.264.778 1.648 1.376.384.597.576 1.306.576 2.128 0 .821-.192 1.53-.576 2.128-.384.586-.933 1.04-1.648 1.36-.704.31-1.552.464-2.544.464h-3.456l.928-.944v4.208h-2.08Zm7.327 0-2.832-4.064h2.224l2.848 4.064h-2.24ZM72.42 8.015l-.928-.992h3.36c.918 0 1.606-.198 2.064-.592.47-.395.704-.944.704-1.648 0-.715-.234-1.264-.704-1.648-.458-.384-1.146-.576-2.064-.576h-3.36l.928-1.024v6.48Zm10.903 3.984V.799h2.08v11.2h-2.08Zm4.806 0 5.04-11.2h2.048l5.056 11.2h-2.176L93.76 1.903h.832l-4.32 10.096h-2.144Zm2.32-2.592.56-1.632h6.048l.56 1.632h-7.168ZM14.568 22.815h2.88v.68h-2.88v-.68Zm.072 2.488h3.264v.696H13.84v-5.6h3.952v.696H14.64v4.208Zm6.48.696v-5.6h.655l3.704 4.6h-.344v-4.6h.8v5.6h-.656l-3.704-4.6h.344v4.6h-.8Zm10.94.064c-.427 0-.824-.072-1.192-.216a2.882 2.882 0 0 1-.944-.6 2.834 2.834 0 0 1-.624-.912 2.84 2.84 0 0 1-.224-1.136c0-.41.074-.79.224-1.136.149-.347.357-.648.624-.904.266-.262.58-.464.944-.608.362-.144.76-.216 1.192-.216.426 0 .818.072 1.176.216.362.138.677.338.944.6.272.256.48.557.624.904.149.346.224.728.224 1.144 0 .416-.075.797-.224 1.144-.144.346-.352.65-.624.912a2.884 2.884 0 0 1-.944.6c-.358.138-.75.208-1.176.208Zm0-.712c.309 0 .594-.054.856-.16a2.023 2.023 0 0 0 1.144-1.136 2.15 2.15 0 0 0 .168-.856c0-.31-.056-.595-.168-.856a1.983 1.983 0 0 0-.456-.68 1.964 1.964 0 0 0-.688-.456 2.244 2.244 0 0 0-.856-.16c-.315 0-.606.053-.872.16-.262.106-.491.258-.688.456a2.08 2.08 0 0 0-.464.68c-.107.261-.16.546-.16.856 0 .31.053.594.16.856.112.261.266.49.464.688.197.192.426.341.688.448.266.106.557.16.872.16Zm7.144.648v-4.904h-1.92v-.696h4.632v.696h-1.92v4.904h-.792Zm7.722.064c-.736 0-1.315-.21-1.736-.632-.421-.422-.632-1.038-.632-1.848v-3.184h.8v3.152c0 .624.136 1.08.408 1.368.277.288.667.432 1.168.432.507 0 .896-.144 1.168-.432.277-.288.416-.744.416-1.368v-3.152h.776v3.184c0 .81-.21 1.426-.632 1.848-.416.421-.995.632-1.736.632Zm5.928-.064v-5.6h2.184c.49 0 .91.077 1.256.232.347.154.613.378.8.672.187.293.28.642.28 1.048 0 .405-.093.754-.28 1.048-.187.288-.453.51-.8.664-.347.154-.765.232-1.256.232h-1.744l.36-.368v2.072h-.8Zm3.744 0-1.424-2.032h.856l1.44 2.032h-.872Zm-2.944-1.992-.36-.392h1.72c.512 0 .899-.11 1.16-.328.267-.224.4-.536.4-.936s-.133-.71-.4-.928c-.261-.219-.648-.328-1.16-.328h-1.72l.36-.4v3.312Zm6.933 1.992v-5.6h.8v5.6h-.8Zm6.028.064c-.426 0-.834-.064-1.224-.192-.39-.134-.696-.304-.92-.512l.296-.624c.214.186.486.341.816.464.33.122.675.184 1.032.184.326 0 .59-.038.792-.112.203-.075.352-.176.448-.304a.749.749 0 0 0 .144-.448.6.6 0 0 0-.192-.464 1.304 1.304 0 0 0-.488-.28 4.786 4.786 0 0 0-.656-.192c-.24-.054-.483-.115-.728-.184a3.55 3.55 0 0 1-.664-.28 1.383 1.383 0 0 1-.48-.448c-.123-.192-.184-.438-.184-.736 0-.288.075-.552.224-.792.155-.246.39-.44.704-.584.32-.15.725-.224 1.216-.224.325 0 .648.042.968.128.32.085.598.208.832.368l-.264.64a2.495 2.495 0 0 0-.76-.344 2.871 2.871 0 0 0-.776-.112c-.315 0-.573.04-.776.12a.973.973 0 0 0-.448.32.779.779 0 0 0-.136.448c0 .197.061.354.184.472.128.117.29.21.488.28.203.07.424.133.664.192.24.053.48.114.72.184.245.07.467.16.664.272.203.112.365.261.488.448.123.186.184.426.184.72 0 .282-.077.546-.232.792-.154.24-.395.434-.72.584-.32.144-.725.216-1.216.216Zm5.257-.064v-5.6h.656l2.512 4.232h-.352l2.48-4.232h.656l.008 5.6h-.768l-.008-4.392h.184l-2.208 3.712h-.368l-2.224-3.712h.2v4.392h-.768Zm12.088.064c-.426 0-.823-.072-1.191-.216a2.883 2.883 0 0 1-.945-.6 2.834 2.834 0 0 1-.623-.912 2.842 2.842 0 0 1-.224-1.136c0-.41.074-.79.224-1.136.149-.347.357-.648.624-.904.266-.262.58-.464.944-.608.362-.144.76-.216 1.191-.216.427 0 .82.072 1.177.216.362.138.677.338.944.6.272.256.48.557.623.904.15.346.225.728.225 1.144 0 .416-.075.797-.225 1.144-.143.346-.351.65-.623.912a2.883 2.883 0 0 1-.945.6c-.357.138-.749.208-1.175.208Zm0-.712c.31 0 .595-.054.857-.16a2.022 2.022 0 0 0 1.144-1.136 2.15 2.15 0 0 0 .168-.856c0-.31-.056-.595-.169-.856a1.983 1.983 0 0 0-.456-.68 1.963 1.963 0 0 0-.688-.456 2.243 2.243 0 0 0-.856-.16c-.314 0-.605.053-.871.16-.262.106-.491.258-.689.456a2.082 2.082 0 0 0-.464.68c-.106.261-.16.546-.16.856 0 .31.054.594.16.856.112.261.267.49.464.688.198.192.427.341.688.448.267.106.558.16.873.16Z"
  />
</svg>
