<svg width="1280" height="357" viewBox="0 0 1280 357" fill="none" xmlns="http://www.w3.org/2000/svg">
<path d="M0 182.547V6.99183H48.89C66.2967 6.99183 81.14 9.65538 93.42 14.9825C127.26 28.6365 144.87 62.6567 144.73 97.1964C145.12 114.401 140.128 131.3 130.448 145.537C120.769 159.774 106.885 170.641 90.73 176.624C80.0484 180.605 68.7308 182.612 57.33 182.547H0ZM25.9 157.636H52.52C61.441 157.736 70.3162 156.348 78.78 153.531C104.23 145.12 118.6 122.197 118.11 95.2586C118.76 68.0005 103.39 44.1184 78.3 35.6583C71.0917 33.202 63.5263 31.9533 55.91 31.9626H25.91L25.9 157.636Z" fill="#FCFAF8"/>
<path d="M344.89 60.6891C330.89 28.227 297.77 4.75445 261.89 5.07408C198 4.99417 154.57 71.916 179.22 130.198C203.52 188.61 280.93 202.793 325.41 158.365C351 133.923 359.33 93.1911 344.89 60.6891ZM237.19 35.059C269.84 20.8956 306.89 37.0567 320.33 69.7585C320.57 70.2978 320.78 70.8472 320.96 71.3866C274.19 71.1169 236.46 39.4239 233.53 36.8469C234.74 36.2077 236 35.5984 237.19 35.059ZM320.45 120.289C317.357 128.025 312.748 135.066 306.892 140.998C301.037 146.929 294.054 151.632 286.354 154.831C278.653 158.029 270.39 159.658 262.05 159.621C253.711 159.585 245.462 157.884 237.79 154.619C197.84 137.639 186.51 85.5001 214.01 52.5286C256.31 90.8238 315.09 95.9578 325.26 96.5671C325.17 104.707 323.538 112.756 320.45 120.289Z" fill="#FCFAF8"/>
<path d="M544.32 7.01175V188.589H543.6L415.84 61.8676L416.53 182.547H390.39V1.44826H391.6L519.12 129.778L518.67 7.01175H544.32Z" fill="#FCFAF8"/>
<path d="M654.69 0H653.24L576 182.547H601.41L619.26 139.027H685.15L702.34 182.547H731.9L654.69 0ZM628.43 116.783L652.87 57.2431L676.38 116.783H628.43Z" fill="#FCFAF8"/>
<path d="M832.3 9.55877H858.1V184.414H832.3V9.55877Z" fill="#FCFAF8"/>
<path d="M1034.38 184.405L989.86 115.425C1009.29 106.206 1018.53 85.3903 1018.42 64.9442C1018.49 48.3536 1012.73 34.26 1000.69 23.992C988.49 13.794 971.89 9.54893 955.26 9.53894H907.26V184.405H933.06V121.788C936.06 121.788 960.48 121.868 962.86 121.708L1003.21 184.405C1032.85 231 1093.38 231 1093.38 231V205.03C1046.06 205.06 1034.38 184.405 1034.38 184.405ZM974.65 94.0901C970.243 96.181 964.743 97.2231 958.15 97.2164H933.08V34.3599H959.59C965.7 34.3599 970.83 35.4087 975.02 37.4863C986.02 42.6502 991.89 54.3266 991.9 65.6633C991.9 77.3896 986.28 89.066 974.65 94.0901Z" fill="#FCFAF8"/>
<path d="M1067.6 9.55877H1093.39V184.414H1067.6V9.55877Z" fill="#FCFAF8"/>
<path d="M1203.09 2.56695H1201.65L1124.74 184.404H1150.05L1167.84 141.055H1233.47L1250.59 184.404H1280L1203.09 2.56695ZM1176.94 118.861L1201.29 59.5403L1224.72 118.861H1176.94Z" fill="#FCFAF8"/>
<path d="M258.501 348.246V355.47H214.5V288.451H257.232V295.664H221.947V318.12H253.693V325.343H221.947V348.246H258.501Z" fill="#FCFAF8"/>
<path d="M299.684 355.47H307.041L306.961 303.852L356.759 357V288.451H349.493L349.582 340.655L299.684 287.089V355.47Z" fill="#FCFAF8"/>
<path d="M465.573 315.189C459.845 288.6 426.88 278.326 407.448 297.86C390.295 314.752 395.813 344.629 418.443 353.632C443.872 363.935 471.021 342.195 465.573 315.189ZM431.737 294.949C450.939 294.83 464.154 315.159 456.617 332.547C447.151 354.337 416.414 354.407 406.988 332.547C399.641 315.238 412.516 294.81 431.737 294.949Z" fill="#FCFAF8"/>
<path d="M545.639 288.451V295.664H524.678V355.47H517.241V295.664H496.46V288.451H545.639Z" fill="#FCFAF8"/>
<path d="M630.193 288.451V332.597C630.307 337.025 629.215 341.402 627.034 345.265C625.003 348.728 622.026 351.546 618.448 353.393C614.72 355.232 610.615 356.188 606.453 356.188C602.291 356.188 598.186 355.232 594.458 353.393C590.884 351.554 587.92 348.728 585.922 345.255C583.773 341.385 582.7 337.016 582.813 332.597V288.451H590.25V332.329C590.164 335.442 590.894 338.523 592.369 341.271C593.713 343.662 595.699 345.633 598.107 346.965C600.668 348.328 603.539 349.012 606.443 348.952C609.401 349.006 612.323 348.305 614.929 346.915C617.352 345.593 619.35 343.62 620.697 341.221C622.179 338.477 622.91 335.393 622.816 332.279V288.451H630.193Z" fill="#FCFAF8"/>
<path d="M702.052 326.218C714.537 320.515 716.296 300.841 705.391 293.031C701.136 289.972 695.998 288.365 690.747 288.451H674.554V355.47H681.991V328.593C684.86 328.543 691.817 328.752 694.556 328.354L711.319 355.47H719.995L702.052 326.218ZM704.322 312.824C702.502 318.885 696.745 321.508 690.198 321.369H681.991V295.664C685.779 295.823 693.696 295.078 697.085 296.658C703.652 299.082 706.511 306.405 704.322 312.824Z" fill="#FCFAF8"/>
<path d="M766.635 288.451H759.188V355.47H766.635V288.451Z" fill="#FCFAF8"/>
<path d="M850.459 336.661C850.639 348.644 840.553 356.463 828.828 356.185C820.472 356.374 812.895 352.797 806.478 348.604L810.126 342.314C813.709 345.065 817.777 347.128 822.121 348.395C831.117 351.257 843.112 347.402 842.972 336.75C843.222 328.245 835.046 325.413 828.349 322.84C822.111 320.366 815.134 318.09 811.726 312.069C809.117 307.558 809.597 300.354 812.655 296.171C816.364 290.815 822.711 288.222 829.468 288.133C836.233 288.193 842.88 289.899 848.83 293.101L845.831 299.142C841.373 296.956 835.366 294.899 830.088 294.979C823.601 294.899 817.663 298.158 817.613 304.577C817.613 309.078 820.822 311.363 824.61 313.281C835.935 318.627 850.709 320.813 850.459 336.661Z" fill="#FCFAF8"/>
<path d="M954.495 355.47H947.308V306.028L922.889 339.95L898.469 306.515V355.47H891.282V287L922.839 329.248L954.495 287V355.47Z" fill="#FCFAF8"/>
<path d="M1064.8 315.199C1059.04 288.59 1026.12 278.326 1006.66 297.86C989.52 314.801 995.018 344.61 1017.66 353.632C1043.08 363.945 1070.24 342.185 1064.8 315.199ZM1030.95 294.949C1050.16 294.84 1063.35 315.139 1055.84 332.547C1046.36 354.337 1015.65 354.407 1006.2 332.547C998.856 315.238 1011.69 294.81 1030.95 294.949Z" fill="#FCFAF8"/>
</svg>
