<svg width="1280" height="927" fill="none" xmlns="http://www.w3.org/2000/svg">
  <g clip-path="url(#a)" fill="#FCFAF8">
    <path
      d="M878.88 767.967s334.31-258.669 226-571.465l-22.21 10.999S1200.2 455.72 863 748.958l15.88 19.009ZM952.8 134.384s-29.3 96.566 92.42 147.994c0-.05 48.62-113.675-92.42-147.994Z"
    />
    <path
      d="M954.4 279.508s-37.58 93.636 79.21 155.463c0-.01 58.31-108.965-79.21-155.463ZM934.73 398.143s-60.46 80.696 36.39 170.722c0 0 84.44-90.106-36.39-170.722ZM886.34 517.238s-79.23 62.257-8.92 174.352c0 0 104.83-65.097 8.92-174.352ZM975.85 733.578s39.46-92.866 165.64-53.767c0 0-35.6 118.385-165.64 53.767ZM1070.1 623.493s31.24-95.996 160.33-67.997c0-.08-25.17 120.995-160.33 67.997ZM1131.08 519.878s5.41-100.786 137.31-107.326c0 0 6.94 123.455-137.31 107.326ZM1170.36 397.503s-20.79-98.766 104.93-139.304c0-.05 38.56 117.395-104.93 139.304ZM1174 272.058s-53.22-85.676 51.09-166.903c.01 0 76.3 97.146-51.09 166.903ZM1096.74 166.093S1004.14 126.525 1043.13 0c0 0 118.05 35.688 53.61 166.093ZM401.12 767.967S66.81 509.298 175.11 196.512l22.21 10.999S79.8 455.72 417 748.958l-15.88 19.009ZM327.2 134.384s29.3 96.566-92.42 147.994c0-.05-48.62-113.675 92.42-147.994Z"
    />
    <path
      d="M325.6 279.508s37.58 93.636-79.21 155.463c0-.01-58.31-108.965 79.21-155.463ZM345.27 398.143s60.46 80.696-36.39 170.722c0 0-84.44-90.106 36.39-170.722ZM393.66 517.238s79.23 62.257 8.92 174.352c0 0-104.83-65.097-8.92-174.352ZM304.15 733.578s-39.46-92.866-165.64-53.767c0 0 35.6 118.385 165.64 53.767ZM209.9 623.493s-31.24-95.996-160.33-67.997c0-.08 25.17 120.995 160.33 67.997ZM148.92 519.878s-5.41-100.786-137.31-107.326c0 0-6.94 123.455 137.31 107.326ZM109.64 397.503s20.79-98.766-104.93-139.304c0-.05-38.56 117.395 104.93 139.304ZM106 272.058s53.22-85.676-51.09-166.903c-.01 0-76.3 97.146 51.09 166.903ZM183.26 166.093S275.86 126.525 236.87 0c0 0-118.05 35.688-53.61 166.093ZM640 487.019 541 697.49l-7.37 15.429-.47 1A177.63 177.63 0 0 0 520 780.226c.06 38.939 12.73 76.237 35.23 103.746 22.5 27.509 53 42.998 84.79 42.998 27.21 0 53.61-11.27 74.88-31.999 21.27-20.729 36.13-49.788 42.14-82.266a176.89 176.89 0 0 0-9.06-96.476L640 487.019Z"
    />
  </g>
  <defs>
    <clipPath id="a"><path fill="#fff" d="M0 0h1280v927H0z" /></clipPath>
  </defs>
</svg>
