<svg width="397" height="501" viewBox="0 0 397 501" fill="none" xmlns="http://www.w3.org/2000/svg">
<path d="M396.8 0.199951H0.200012V388.4H396.8V0.199951Z" fill="#005DA6"/>
<path d="M29.6 461.6V452H54.9V474.8C52.4 477.1 48.9 479.2 44.2 481C39.5 482.8 34.8 483.7 30 483.7C23.9 483.7 18.6 482.4 14.1 479.9C9.60001 477.4 6.19999 473.8 3.89999 469.2C1.59999 464.5 0.5 459.5 0.5 454C0.5 448.1 1.8 442.8 4.3 438.2C6.8 433.6 10.5 430 15.4 427.6C19.1 425.7 23.8 424.8 29.3 424.8C36.5 424.8 42.2 426.3 46.2 429.3C50.3 432.3 52.9 436.4 54 441.6L42.4 443.7C41.6 440.9 40 438.7 37.8 437.1C35.5 435.5 32.7 434.7 29.3 434.7C24.2 434.7 20.1 436.3 17.1 439.5C14.1 442.7 12.6 447.4 12.6 453.7C12.6 460.5 14.1 465.6 17.2 468.9C20.3 472.3 24.3 474 29.2 474C31.7 474 34.1 473.5 36.6 472.6C39.1 471.7 41.2 470.5 43 469.1V461.9H29.6V461.6ZM76.2 469.8C76.2 462.8 76.5 458.2 77.1 456C77.7 453.8 78.6 452.3 79.7 451.4C80.8 450.6 82.1 450.1 83.7 450.1C85.3 450.1 87.1 450.7 89 451.9L92.4 442.4C90 441 87.6 440.3 85 440.3C83.2 440.3 81.6 440.7 80.2 441.6C78.8 442.5 77.2 444.3 75.4 447V441.1H65V482.3H76.1V469.8H76.2ZM121.5 469.4C120.9 471.5 120 473 118.8 473.9C117.6 474.8 116.1 475.3 114.4 475.3C111.8 475.3 109.7 474.4 108 472.6C106.3 470.8 105.4 468.3 105.3 465H133.2C133.4 456.6 131.6 450.5 128 446.4C124.4 442.4 119.4 440.3 113.2 440.3C107.6 440.3 103 442.2 99.4 446.1C95.8 450 93.9 455.3 93.9 462.1C93.9 467.8 95.3 472.6 98.1 476.3C101.6 481 107 483.3 114.4 483.3C119 483.3 122.9 482.3 126 480.2C129.1 478.1 131.3 475.1 132.8 471.1L121.5 469.4ZM105.5 458.3C105.5 455.3 106.3 453 107.8 451.3C109.4 449.6 111.4 448.7 113.8 448.7C116.1 448.7 118 449.5 119.6 451.2C121.2 452.8 122 455.2 122.1 458.4H105.5V458.3ZM166.6 469.4C166 471.5 165.1 473 163.9 473.9C162.7 474.8 161.2 475.3 159.5 475.3C156.9 475.3 154.8 474.4 153.1 472.6C151.4 470.8 150.5 468.3 150.4 465H178.3C178.5 456.6 176.7 450.5 173.1 446.4C169.5 442.4 164.5 440.3 158.3 440.3C152.7 440.3 148.1 442.2 144.5 446.1C140.9 450 139 455.3 139 462.1C139 467.8 140.4 472.6 143.2 476.3C146.7 481 152.1 483.3 159.5 483.3C164.1 483.3 168 482.3 171.1 480.2C174.2 478.1 176.4 475.1 177.9 471.1L166.6 469.4ZM150.6 458.3C150.6 455.3 151.4 453 152.9 451.3C154.5 449.6 156.5 448.7 158.9 448.7C161.2 448.7 163.1 449.5 164.7 451.2C166.3 452.8 167.1 455.2 167.2 458.4H150.6V458.3ZM225.6 456.9C225.6 453.7 225.4 451.3 225 449.6C224.6 447.9 223.8 446.4 222.8 445C221.8 443.7 220.2 442.6 218.2 441.7C216.2 440.8 213.9 440.4 211.5 440.4C205.9 440.4 201.3 442.7 197.6 447.4V441.3H187.2V482.5H198.3V463.8C198.3 459.2 198.6 456 199.1 454.3C199.7 452.6 200.7 451.2 202.2 450.2C203.7 449.2 205.5 448.7 207.4 448.7C208.9 448.7 210.2 449 211.3 449.8C212.4 450.5 213.1 451.5 213.6 452.8C214.1 454.1 214.3 457 214.3 461.4V482.4H225.4V456.9H225.6ZM266.7 483.5V466.3L276.2 456.8L292.2 483.5H307.4L284.3 448.7L306.2 426.6H290.4L266.7 451.8V426.6H255V483.5H266.7ZM337.6 470.4C337 472.5 336.1 474 334.9 474.9C333.7 475.8 332.2 476.3 330.5 476.3C327.9 476.3 325.8 475.4 324.1 473.6C322.4 471.8 321.5 469.3 321.4 466H349.3C349.5 457.6 347.7 451.5 344.1 447.4C340.5 443.4 335.5 441.3 329.3 441.3C323.7 441.3 319.1 443.2 315.5 447.1C311.9 451 310 456.3 310 463.1C310 468.8 311.4 473.6 314.2 477.3C317.7 482 323.1 484.3 330.5 484.3C335.1 484.3 339 483.3 342.1 481.2C345.2 479.1 347.4 476.1 348.9 472.1L337.6 470.4ZM321.6 459.3C321.6 456.3 322.4 454 323.9 452.3C325.5 450.6 327.5 449.7 329.9 449.7C332.2 449.7 334.1 450.5 335.7 452.2C337.3 453.8 338.1 456.2 338.2 459.4H321.6V459.3ZM369.1 483.6C368.4 485.9 367.5 487.8 366.3 489.2C365 490.7 363.1 491.4 360.5 491.4C359.1 491.4 357.5 491.2 355.8 490.9L356.8 499.5C358.9 500 361 500.2 363.1 500.2C365.2 500.2 367.1 500 368.8 499.5C370.5 499.1 371.9 498.5 373 497.7C374.2 496.9 375.2 495.9 376.1 494.6C377 493.3 377.9 491.5 378.9 489.1L381.6 481.9L396.4 442.2H384.8L375 471.5L364.9 442.2H353L369.1 483.6Z" fill="#00A43D"/>
<path d="M144.7 143.2C136.7 94 93.3 56.2 40.9 56.2C26.5 56.2 12.8 59.1 0.200012 64.2V118C10.8 108.1 25.1 101.9 40.9 101.9C73.3 101.9 99.6 127.7 99.6 159.5C99.6 191.3 73.3 217 40.9 217C25.1 217 10.8 210.9 0.200012 200.9V254.6C12.7 259.7 26.4 262.6 40.9 262.6C90.1 262.6 131.3 229.3 142.9 184.6H258.6V234.2H308.3V204.3H330.6V224.6H379.5V184.6H396.9V143.2H144.7Z" fill="#00A93B"/>
</svg>
