<svg width="397" height="501" fill="none" xmlns="http://www.w3.org/2000/svg">
  <path d="M396.8.2H.2v388.2h396.6V.2Z" fill="#005DA6" />
  <path
    d="M29.6 461.6V452h25.3v22.8c-2.5 2.3-6 4.4-10.7 6.2-4.7 1.8-9.4 2.7-14.2 2.7-6.1 0-11.4-1.3-15.9-3.8s-7.9-6.1-10.2-10.7C1.6 464.5.5 459.5.5 454c0-5.9 1.3-11.2 3.8-15.8 2.5-4.6 6.2-8.2 11.1-10.6 3.7-1.9 8.4-2.8 13.9-2.8 7.2 0 12.9 1.5 16.9 4.5 4.1 3 6.7 7.1 7.8 12.3l-11.6 2.1c-.8-2.8-2.4-5-4.6-6.6-2.3-1.6-5.1-2.4-8.5-2.4-5.1 0-9.2 1.6-12.2 4.8-3 3.2-4.5 7.9-4.5 14.2 0 6.8 1.5 11.9 4.6 15.2 3.1 3.4 7.1 5.1 12 5.1 2.5 0 4.9-.5 7.4-1.4 2.5-.9 4.6-2.1 6.4-3.5v-7.2H29.6v-.3Zm46.6 8.2c0-7 .3-11.6.9-13.8.6-2.2 1.5-3.7 2.6-4.6 1.1-.8 2.4-1.3 4-1.3s3.4.6 5.3 1.8l3.4-9.5c-2.4-1.4-4.8-2.1-7.4-2.1-1.8 0-3.4.4-4.8 1.3s-3 2.7-4.8 5.4v-5.9H65v41.2h11.1v-12.5h.1Zm45.3-.4c-.6 2.1-1.5 3.6-2.7 4.5-1.2.9-2.7 1.4-4.4 1.4-2.6 0-4.7-.9-6.4-2.7-1.7-1.8-2.6-4.3-2.7-7.6h27.9c.2-8.4-1.6-14.5-5.2-18.6-3.6-4-8.6-6.1-14.8-6.1-5.6 0-10.2 1.9-13.8 5.8-3.6 3.9-5.5 9.2-5.5 16 0 5.7 1.4 10.5 4.2 14.2 3.5 4.7 8.9 7 16.3 7 4.6 0 8.5-1 11.6-3.1 3.1-2.1 5.3-5.1 6.8-9.1l-11.3-1.7Zm-16-11.1c0-3 .8-5.3 2.3-7 1.6-1.7 3.6-2.6 6-2.6 2.3 0 4.2.8 5.8 2.5 1.6 1.6 2.4 4 2.5 7.2h-16.6v-.1Zm61.1 11.1c-.6 2.1-1.5 3.6-2.7 4.5-1.2.9-2.7 1.4-4.4 1.4-2.6 0-4.7-.9-6.4-2.7-1.7-1.8-2.6-4.3-2.7-7.6h27.9c.2-8.4-1.6-14.5-5.2-18.6-3.6-4-8.6-6.1-14.8-6.1-5.6 0-10.2 1.9-13.8 5.8-3.6 3.9-5.5 9.2-5.5 16 0 5.7 1.4 10.5 4.2 14.2 3.5 4.7 8.9 7 16.3 7 4.6 0 8.5-1 11.6-3.1 3.1-2.1 5.3-5.1 6.8-9.1l-11.3-1.7Zm-16-11.1c0-3 .8-5.3 2.3-7 1.6-1.7 3.6-2.6 6-2.6 2.3 0 4.2.8 5.8 2.5 1.6 1.6 2.4 4 2.5 7.2h-16.6v-.1Zm75-1.4c0-3.2-.2-5.6-.6-7.3-.4-1.7-1.2-3.2-2.2-4.6-1-1.3-2.6-2.4-4.6-3.3-2-.9-4.3-1.3-6.7-1.3-5.6 0-10.2 2.3-13.9 7v-6.1h-10.4v41.2h11.1v-18.7c0-4.6.3-7.8.8-9.5.6-1.7 1.6-3.1 3.1-4.1 1.5-1 3.3-1.5 5.2-1.5 1.5 0 2.8.3 3.9 1.1 1.1.7 1.8 1.7 2.3 3 .5 1.3.7 4.2.7 8.6v21h11.1v-25.5h.2Zm41.1 26.6v-17.2l9.5-9.5 16 26.7h15.2l-23.1-34.8 21.9-22.1h-15.8l-23.7 25.2v-25.2H255v56.9h11.7Zm70.9-13.1c-.6 2.1-1.5 3.6-2.7 4.5-1.2.9-2.7 1.4-4.4 1.4-2.6 0-4.7-.9-6.4-2.7-1.7-1.8-2.6-4.3-2.7-7.6h27.9c.2-8.4-1.6-14.5-5.2-18.6-3.6-4-8.6-6.1-14.8-6.1-5.6 0-10.2 1.9-13.8 5.8-3.6 3.9-5.5 9.2-5.5 16 0 5.7 1.4 10.5 4.2 14.2 3.5 4.7 8.9 7 16.3 7 4.6 0 8.5-1 11.6-3.1 3.1-2.1 5.3-5.1 6.8-9.1l-11.3-1.7Zm-16-11.1c0-3 .8-5.3 2.3-7 1.6-1.7 3.6-2.6 6-2.6 2.3 0 4.2.8 5.8 2.5 1.6 1.6 2.4 4 2.5 7.2h-16.6v-.1Zm47.5 24.3c-.7 2.3-1.6 4.2-2.8 5.6-1.3 1.5-3.2 2.2-5.8 2.2-1.4 0-3-.2-4.7-.5l1 8.6c2.1.5 4.2.7 6.3.7 2.1 0 4-.2 5.7-.7 1.7-.4 3.1-1 4.2-1.8 1.2-.8 2.2-1.8 3.1-3.1.9-1.3 1.8-3.1 2.8-5.5l2.7-7.2 14.8-39.7h-11.6l-9.8 29.3-10.1-29.3H353l16.1 41.4Z"
    fill="#00A43D"
  />
  <path
    d="M144.7 143.2c-8-49.2-51.4-87-103.8-87-14.4 0-28.1 2.9-40.7 8V118c10.6-9.9 24.9-16.1 40.7-16.1 32.4 0 58.7 25.8 58.7 57.6S73.3 217 40.9 217c-15.8 0-30.1-6.1-40.7-16.1v53.7c12.5 5.1 26.2 8 40.7 8 49.2 0 90.4-33.3 102-78h115.7v49.6h49.7v-29.9h22.3v20.3h48.9v-40h17.4v-41.4H144.7Z"
    fill="#00A93B"
  />
</svg>
