<svg xmlns="http://www.w3.org/2000/svg" viewBox="0 0 1280 1075"><defs><style>.cls-1{fill:tan;}</style></defs><g id="Lockup"><path class="cls-1" d="M563.71,501c.84-13.83,5.72-26.84,10.32-39.66,4.35-12.11,9.15-24,14.13-35.84,10.26-24.31,21.32-48.22,32.73-71.91q10.07-20.91,20.55-41.58l.74-1.44c6.62,12,12.87,24.19,19,36.46,13.38,26.8,26,54.12,37.07,82.17,4.46,11.28,8.67,22.69,12.46,34.27,4.22,12.88,9.35,26.48,9.88,40.31.83,21.38-7.2,46.56-18.85,63.61-14.21,20.78-36.27,30.36-59.58,30.36-23.59,0-45.82-9.82-60-31-11.32-16.89-18.54-40.62-18.56-61.59C563.58,503.81,563.62,502.42,563.71,501Z"/><path class="cls-1" d="M799.06,503.25s219.65-169.51,148.49-374.48L933,136s77.21,162.62-144.34,354.78Z"/><path class="cls-1" d="M847.62,88.06S828.37,151.34,908.35,185C908.35,185,940.29,110.55,847.62,88.06Z"/><path class="cls-1" d="M848.68,183.15S824,244.51,900.72,285C900.72,285,939,213.63,848.68,183.15Z"/><path class="cls-1" d="M835.75,260.9S796,313.78,859.66,372.78C859.66,372.78,915.14,313.73,835.75,260.9Z"/><path class="cls-1" d="M804,339S751.9,379.74,798.1,453.2C798.1,453.2,867,410.53,804,339Z"/><path class="cls-1" d="M862.77,480.71s25.92-60.85,108.82-35.23C971.59,445.48,948.21,523.06,862.77,480.71Z"/><path class="cls-1" d="M924.69,408.54S945.22,345.66,1030,364C1030,364,1013.5,443.28,924.69,408.54Z"/><path class="cls-1" d="M964.76,340.68s3.55-66.05,90.21-70.33C1055,270.35,1059.53,351.24,964.76,340.68Z"/><path class="cls-1" d="M990.56,260.45s-13.66-64.72,68.94-91.29C1059.5,169.16,1084.84,246.12,990.56,260.45Z"/><path class="cls-1" d="M993,178.28s-35-56.15,33.57-109.37C1026.53,68.91,1076.65,132.57,993,178.28Z"/><path class="cls-1" d="M942.19,108.84S881.35,82.91,907,0C907,0,984.53,23.39,942.19,108.84Z"/><path class="cls-1" d="M485.16,503.25S265.51,333.74,336.67,128.77L351.26,136S274.05,298.63,495.6,490.79Z"/><path class="cls-1" d="M436.6,88.06s19.25,63.28-60.72,96.95C375.88,185,343.93,110.55,436.6,88.06Z"/><path class="cls-1" d="M435.54,183.15s24.69,61.36-52,101.88C383.5,285,345.19,213.63,435.54,183.15Z"/><path class="cls-1" d="M448.47,260.9s39.73,52.88-23.91,111.88C424.56,372.78,369.08,313.73,448.47,260.9Z"/><path class="cls-1" d="M480.26,339s52.06,40.79,5.86,114.25C486.12,453.2,417.25,410.53,480.26,339Z"/><path class="cls-1" d="M421.45,480.71s-25.92-60.85-108.82-35.23C312.63,445.48,336,523.06,421.45,480.71Z"/><path class="cls-1" d="M359.53,408.54S339,345.66,254.19,364C254.19,364,270.72,443.28,359.53,408.54Z"/><path class="cls-1" d="M319.46,340.68s-3.55-66.05-90.21-70.33C229.25,270.35,224.69,351.24,319.46,340.68Z"/><path class="cls-1" d="M293.66,260.45s13.66-64.72-68.94-91.29C224.72,169.16,199.38,246.12,293.66,260.45Z"/><path class="cls-1" d="M291.26,178.28s35-56.15-33.57-109.37C257.69,68.91,207.57,132.57,291.26,178.28Z"/><path class="cls-1" d="M342,108.84S402.87,82.91,377.25,0C377.25,0,299.69,23.39,342,108.84Z"/><path class="cls-1" d="M0,900.56V724.82H48.89q26.14,0,44.53,8t29.65,21.06a83.85,83.85,0,0,1,16.46,29,103.29,103.29,0,0,1,5.2,32.19q0,19.6-7,35.34a82,82,0,0,1-19.12,27,83.74,83.74,0,0,1-27.83,17.19,93.76,93.76,0,0,1-33.4,5.93Zm25.9-24.93H52.52a80.21,80.21,0,0,0,26.26-4.12,59.52,59.52,0,0,0,20.82-12.1,54.19,54.19,0,0,0,13.67-19.61q4.85-11.61,4.84-26.63,0-16.21-5.45-28.2a57.84,57.84,0,0,0-14.4-19.85,58.89,58.89,0,0,0-20-11.62,69.35,69.35,0,0,0-22.39-3.75h-30Z"/><path class="cls-1" d="M344.89,778.56a92.51,92.51,0,0,0-19.6-28.8A93.77,93.77,0,0,0,296.49,730,88.06,88.06,0,0,0,227,730a91,91,0,0,0-28.56,19.73,92.47,92.47,0,0,0-19.24,28.8,86.85,86.85,0,0,0-6.9,34.38,89.65,89.65,0,0,0,6.9,35.22,87.78,87.78,0,0,0,19.24,28.56,90.88,90.88,0,0,0,98.15,18.88,90.82,90.82,0,0,0,48.28-47.81,86.54,86.54,0,0,0,7-34.85A85.4,85.4,0,0,0,344.89,778.56ZM237.19,752.9a62.8,62.8,0,0,1,49.49,0,62.83,62.83,0,0,1,20.09,14,67.4,67.4,0,0,1,13.56,20.7c.24.54.45,1.09.63,1.63-46.77-.27-84.5-32-87.43-34.58C234.74,754.05,236,753.45,237.19,752.9Zm83.26,85.33A64.78,64.78,0,0,1,307,858.81a61.61,61.61,0,0,1-20,13.79,60.7,60.7,0,0,1-24.45,5,62.11,62.11,0,0,1-24.81-5,63.09,63.09,0,0,1-20.21-13.79A64.69,64.69,0,0,1,199,812.94a67.41,67.41,0,0,1,4.72-25.18A63.06,63.06,0,0,1,214,770.39c42.3,38.34,101.08,43.48,111.25,44.09A64.55,64.55,0,0,1,320.45,838.23Z"/><polygon class="cls-1" points="544.32 724.82 544.32 906.62 543.6 906.62 415.84 779.74 416.53 900.56 390.39 900.56 390.39 719.25 391.6 719.25 519.12 847.73 518.67 724.82 544.32 724.82"/><path class="cls-1" d="M654.69,717.8h-1.45L576,900.56h25.41L619.29,857h65.89l17.19,43.57H731.9ZM628.43,834.72l24.44-59.61,23.51,59.61Z"/><path class="cls-1" d="M832.3,727.37h25.8V902.43H832.3Z"/><path class="cls-1" d="M1067.6,727.37h25.79V902.43H1067.6Z"/><path class="cls-1" d="M1203.09,720.37h-1.44l-76.91,182h25.31l17.79-43.4h65.63l17.12,43.4H1280Zm-26.15,116.47,24.35-59.4,23.43,59.4Z"/><path class="cls-1" d="M1034.38,902.42l-44.52-69a48.1,48.1,0,0,0,15.3-11.73,51.6,51.6,0,0,0,10.13-18.32,69.57,69.57,0,0,0,3.13-20.5,56.47,56.47,0,0,0-4.71-23.74,48.94,48.94,0,0,0-13-17.25,58.22,58.22,0,0,0-20-10.72,83.37,83.37,0,0,0-25.42-3.75h-48V902.42h25.8V839.73h25.55c1.45,0,2.86,0,4.25-.07l40.35,62.76c29.64,46.65,90.17,46.65,90.17,46.65v-26C1046.06,923.1,1034.38,902.42,1034.38,902.42ZM974.65,812c-4.41,2.1-9.92,3.13-16.5,3.13H933.08V752.2h26.51c6.11,0,11.24,1.06,15.43,3.14a28.44,28.44,0,0,1,10,7.95,30.57,30.57,0,0,1,5.3,10.13,35.3,35.3,0,0,1,1.58,10.13,37.33,37.33,0,0,1-1.58,10.5,28.81,28.81,0,0,1-5.3,10.12A28.07,28.07,0,0,1,974.65,812Z"/><polygon class="cls-1" points="258.92 1068.19 258.92 1073.46 216.9 1073.46 216.9 1008.01 257.65 1008.01 257.65 1013.27 222.35 1013.27 222.35 1037.87 254.11 1037.87 254.11 1043.14 222.35 1043.14 222.35 1068.19 258.92 1068.19"/><polygon class="cls-1" points="357.22 1008.01 357.22 1075 356.31 1075 356.16 1074.83 307.4 1019.87 307.48 1073.46 302.12 1073.46 302.12 1006.64 303.12 1006.64 303.27 1006.81 352.04 1062.21 351.95 1008.01 357.22 1008.01"/><path class="cls-1" d="M464.14,1027.87a34.94,34.94,0,0,0-7.23-10.68,33.86,33.86,0,0,0-10.69-7.28,32.47,32.47,0,0,0-13-2.63,32.1,32.1,0,0,0-13,2.63,34.27,34.27,0,0,0-17.83,18,32.83,32.83,0,0,0-2.58,13,33.83,33.83,0,0,0,2.58,13.27,32.62,32.62,0,0,0,7.19,10.6,33.12,33.12,0,0,0,10.65,7,33.59,33.59,0,0,0,12.94,2.49,33.13,33.13,0,0,0,13-2.58,33.61,33.61,0,0,0,10.69-7.19,34.36,34.36,0,0,0,7.23-10.63,33.34,33.34,0,0,0,0-25.91Zm-30.91-15.32a27,27,0,0,1,10.87,2.22A28.63,28.63,0,0,1,459,1029.9a28.44,28.44,0,0,1,0,21.89,28.24,28.24,0,0,1-14.94,14.94,27.54,27.54,0,0,1-11,2.19,26.79,26.79,0,0,1-10.74-2.19,28.48,28.48,0,0,1-8.88-6,27.76,27.76,0,0,1-8.11-19.8,28.35,28.35,0,0,1,16.86-26.09A26.59,26.59,0,0,1,433.23,1012.55Z"/><polygon class="cls-1" points="544.18 1008.01 544.18 1013.27 525.21 1013.27 525.21 1073.46 519.77 1073.46 519.77 1013.27 500.98 1013.27 500.98 1008.01 544.18 1008.01"/><path class="cls-1" d="M630.77,1008v43.43a23.78,23.78,0,0,1-3,12.24,20.37,20.37,0,0,1-8.19,7.81,26.06,26.06,0,0,1-23.06,0,20,20,0,0,1-8.14-7.81,24.07,24.07,0,0,1-3-12.24V1008h5.44v43.16a19,19,0,0,0,2.25,9.47,15.86,15.86,0,0,0,6.12,6.12,17.93,17.93,0,0,0,8.83,2.16,18.29,18.29,0,0,0,9-2.17,15.67,15.67,0,0,0,6.16-6.11,18.93,18.93,0,0,0,2.25-9.47V1008Z"/><path class="cls-1" d="M702.23,1044.59a17.93,17.93,0,0,0,6.19-4.34,17.22,17.22,0,0,0,3.65-6.31,23.84,23.84,0,0,0,1.11-7.19,18.12,18.12,0,0,0-1.87-8.49,17.5,17.5,0,0,0-4.91-5.84,20.77,20.77,0,0,0-6.7-3.35,26.13,26.13,0,0,0-7.35-1.06h-15.2v65.45h5.44v-27h9.49a33.13,33.13,0,0,0,4.59-.31l16.82,27.36h6.34Zm2.17-8.17a12.65,12.65,0,0,1-4.81,3.4,20.05,20.05,0,0,1-7.79,1.32h-9.21v-27.87H693a16.18,16.18,0,0,1,6.08,1.1,14.18,14.18,0,0,1,4.65,3,12.79,12.79,0,0,1,2.92,4.33,13.71,13.71,0,0,1,1,5.25,17.12,17.12,0,0,1-.75,4.9A13,13,0,0,1,704.4,1036.42Z"/><rect class="cls-1" x="761.82" y="1008.01" width="5.45" height="65.45"/><path class="cls-1" d="M851.13,1055.53a18.4,18.4,0,0,1-2.61,9.75,17.72,17.72,0,0,1-7.28,6.58,23.86,23.86,0,0,1-10.75,2.32,31.13,31.13,0,0,1-8.91-1.2,36.72,36.72,0,0,1-7-2.81c-2-1.05-3.54-2-4.7-2.69l-.41-.26,2.61-4.53.45.33a35.24,35.24,0,0,0,4.78,2.86,35.84,35.84,0,0,0,6.14,2.42,20.52,20.52,0,0,0,14-.52,14.29,14.29,0,0,0,5.87-4.52,12.23,12.23,0,0,0,2.31-7.64,11.29,11.29,0,0,0-2.16-7.18,17,17,0,0,0-5.65-4.54,65.52,65.52,0,0,0-7.48-3.24c-2.07-.8-4.15-1.64-6.19-2.51a29,29,0,0,1-5.73-3.23,14.93,14.93,0,0,1-4.18-4.65,13.31,13.31,0,0,1-1.56-6.6,14.5,14.5,0,0,1,2.45-8.37,16.49,16.49,0,0,1,6.59-5.56,22.49,22.49,0,0,1,9.42-2.1,38,38,0,0,1,9.35,1.2,36.85,36.85,0,0,1,8.23,3l.43.22-2.16,4.33-.45-.21a43.38,43.38,0,0,0-6.81-2.51,29,29,0,0,0-8-1.16c-4.1,0-7.41,1-9.85,3.06a9.42,9.42,0,0,0-3.63,7.6,8.2,8.2,0,0,0,2,5.7,17.42,17.42,0,0,0,5.56,4c2.34,1.11,4.86,2.19,7.5,3.21,2.11.79,4.25,1.68,6.34,2.64a27.87,27.87,0,0,1,5.78,3.61,15.92,15.92,0,0,1,4.17,5.34A18.1,18.1,0,0,1,851.13,1055.53Z"/><polygon class="cls-1" points="956.69 1007.05 956.69 1073.46 951.33 1073.46 951.33 1021.57 925.59 1057.84 924.89 1057.84 899.33 1022.07 899.33 1073.46 893.97 1073.46 893.97 1006.55 894.73 1006.55 894.97 1006.77 925.28 1049.81 955.84 1006.55 956.6 1006.55 956.69 1007.05"/><path class="cls-1" d="M1063.61,1027.87a34.76,34.76,0,0,0-7.23-10.68,33.82,33.82,0,0,0-10.68-7.28,32.52,32.52,0,0,0-13-2.63,32.14,32.14,0,0,0-13,2.63,34.2,34.2,0,0,0-17.82,18,32.66,32.66,0,0,0-2.59,13,33.83,33.83,0,0,0,2.58,13.27,32.78,32.78,0,0,0,7.19,10.6,33.12,33.12,0,0,0,10.65,7,33.59,33.59,0,0,0,12.94,2.49,33.1,33.1,0,0,0,13-2.58,33.5,33.5,0,0,0,10.69-7.19,34.36,34.36,0,0,0,7.23-10.63,33.22,33.22,0,0,0,0-25.91Zm-30.91-15.32a27,27,0,0,1,10.87,2.22,28.63,28.63,0,0,1,14.94,15.13,28.5,28.5,0,0,1,0,21.89,28.21,28.21,0,0,1-15,14.94,27.5,27.5,0,0,1-11,2.19,26.79,26.79,0,0,1-10.74-2.19,28.32,28.32,0,0,1-8.87-6,27.72,27.72,0,0,1-8.12-19.8,28.49,28.49,0,0,1,8-19.89,28.15,28.15,0,0,1,8.87-6.2A26.62,26.62,0,0,1,1032.7,1012.55Z"/></g></svg>