<svg id="Layer_1" data-name="Layer 1" xmlns="http://www.w3.org/2000/svg" viewBox="0 0 1280 474.72"><defs><style>.cls-1{fill:#151414;}</style></defs><path class="cls-1" d="M665.87,367.58v21.25h-6.58V336.75h15.27a25.84,25.84,0,0,1,6.87,1,16.54,16.54,0,0,1,5.65,2.9,13.49,13.49,0,0,1,3.77,4.84,15.89,15.89,0,0,1,1.38,6.85,14.26,14.26,0,0,1-.73,4.65,14,14,0,0,1-2,3.83,14.75,14.75,0,0,1-3.07,3,19.88,19.88,0,0,1-3.93,2.25l11,22.25,0,.43h-7l-10.23-21.25Zm8.87-5.43a13.92,13.92,0,0,0,4.18-.7,10.47,10.47,0,0,0,3.47-1.92,9,9,0,0,0,2.33-3,9.65,9.65,0,0,0,.86-4.17,10.8,10.8,0,0,0-.83-4.38,8.92,8.92,0,0,0-2.28-3.17,10.13,10.13,0,0,0-3.49-1.89,15.11,15.11,0,0,0-4.42-.68h-8.69v20Z"/><path class="cls-1" d="M724,364.76v18.45h25.36v5.62h-32V336.75H749v5.65H724v16.74h21.75v5.62Z"/><path class="cls-1" d="M801.24,371.62a10.09,10.09,0,0,0-2.81-2.79,18.64,18.64,0,0,0-3.77-1.86c-1.37-.5-2.69-1-4-1.36a54.22,54.22,0,0,1-5.59-2.16,24.74,24.74,0,0,1-5.17-3.06,15.15,15.15,0,0,1-3.84-4.31,11.15,11.15,0,0,1-1.49-5.84,12.07,12.07,0,0,1,1.49-6,14.14,14.14,0,0,1,3.88-4.47,17.55,17.55,0,0,1,5.43-2.78,20.54,20.54,0,0,1,6.12-.94,19.25,19.25,0,0,1,6.54,1.12,18.23,18.23,0,0,1,5.58,3.17,15.56,15.56,0,0,1,3.9,4.93,14.84,14.84,0,0,1,1.54,6.48h-6.8a14.45,14.45,0,0,0-1.11-4.1,10,10,0,0,0-2.18-3.16,9.56,9.56,0,0,0-3.23-2.06,11.61,11.61,0,0,0-4.24-.73,12.79,12.79,0,0,0-3.7.54,9.67,9.67,0,0,0-3.21,1.6,8,8,0,0,0-2.27,2.65,7.65,7.65,0,0,0-.84,3.65,6.64,6.64,0,0,0,1.15,3.81,9.87,9.87,0,0,0,2.82,2.63,18.93,18.93,0,0,0,3.67,1.79c1.32.47,2.57.89,3.74,1.25a52.3,52.3,0,0,1,5.79,2.16A22.62,22.62,0,0,1,804,365a13.93,13.93,0,0,1,3.81,4.47,12.46,12.46,0,0,1,1.45,6.11,11.79,11.79,0,0,1-1.55,6.12,13.9,13.9,0,0,1-4,4.33,17.7,17.7,0,0,1-5.58,2.62,22.62,22.62,0,0,1-6.22.88,22.16,22.16,0,0,1-7.31-1.25,18.2,18.2,0,0,1-6.24-3.61,15.18,15.18,0,0,1-3.74-4.78,14.47,14.47,0,0,1-1.49-6.09h6.76a12.61,12.61,0,0,0,1.33,4.3,10.11,10.11,0,0,0,2.57,3.17,10.66,10.66,0,0,0,3.63,2,14.33,14.33,0,0,0,4.49.67,15.31,15.31,0,0,0,3.81-.49,10,10,0,0,0,3.34-1.52,8,8,0,0,0,2.4-2.55,7.1,7.1,0,0,0,.93-3.71A7.23,7.23,0,0,0,801.24,371.62Z"/><path class="cls-1" d="M852.12,342.4v46.43h-6.44V342.4H829.59v-5.65h38.62v5.65Z"/><path class="cls-1" d="M898.59,375.34l-4.19,13.49h-6.62l16.81-52.08h5.55l16.52,52.08h-6.58L916,375.34Zm15.62-5.76L907.35,347l-7,22.6Z"/><path class="cls-1" d="M981.89,372a18,18,0,0,1-1.29,6.83,17.4,17.4,0,0,1-3.54,5.54,16.21,16.21,0,0,1-5.36,3.77,16.72,16.72,0,0,1-6.84,1.38,17,17,0,0,1-6.9-1.36,15.83,15.83,0,0,1-5.33-3.75,17.49,17.49,0,0,1-3.47-5.56,19.21,19.21,0,0,1-1.28-6.85l.07-35.27h6.29l.14,35.27a15.17,15.17,0,0,0,.74,4.47,11.79,11.79,0,0,0,2,3.79,9.86,9.86,0,0,0,15.45,0,12.08,12.08,0,0,0,2-3.79,16.6,16.6,0,0,0,.75-4.47l.1-35.27h6.41Z"/><path class="cls-1" d="M1014,367.58v21.25h-6.58V336.75h15.27a25.71,25.71,0,0,1,6.86,1,16.68,16.68,0,0,1,5.66,2.9,13.6,13.6,0,0,1,3.77,4.84,15.89,15.89,0,0,1,1.38,6.85,13.86,13.86,0,0,1-2.76,8.48,15,15,0,0,1-3.07,3,20.25,20.25,0,0,1-3.94,2.25l11,22.25,0,.43h-7l-10.23-21.25Zm8.87-5.43a14,14,0,0,0,4.18-.7,10.57,10.57,0,0,0,3.47-1.92,9.15,9.15,0,0,0,2.33-3,9.65,9.65,0,0,0,.85-4.17,10.8,10.8,0,0,0-.82-4.38,8.94,8.94,0,0,0-2.29-3.17,10,10,0,0,0-3.49-1.89,15,15,0,0,0-4.41-.68H1014v20Z"/><path class="cls-1" d="M1072.64,375.34l-4.18,13.49h-6.62l16.81-52.08h5.54l16.53,52.08h-6.59L1090,375.34Zm15.63-5.76L1081.4,347l-7,22.6Z"/><path class="cls-1" d="M1149.08,388.83l-20.21-38.92-.11,38.92h-6.69V336.75h6.73L1149,375.59l.1-38.84h6.69v52.08Z"/><path class="cls-1" d="M1200.23,342.4v46.43h-6.44V342.4h-16.1v-5.65h38.63v5.65Z"/><path class="cls-1" d="M1246.12,364.76v18.45h25.36v5.62h-32V336.75h31.65v5.65h-25v16.74h21.74v5.62Z"/><path class="cls-1" d="M7.86,245.31a90.86,90.86,0,0,0,19.34,1.76,286.48,286.48,0,0,0,57.43-6.45C70,233,47.71,221.87,36,215.43,20.76,206.64,4.35,200.78,2,183.2c-4.68-31.06,59.19-49.81,89.07-53.91,9.38-1.18,21.1,10,16.41,15.82-21.68,7.62-75,17.58-81.45,32.81C22.51,186.13,36,192,47.71,199c22.27,12.3,39.85,21.09,51.57,30.47C112.17,240.62,101,257,85.8,261.13c-10.55,2.93-25.78,4.69-41,4.69-14.65,0-28.71-1.76-37.5-5.27C.25,257-5,242.38,7.86,245.31Z"/><path class="cls-1" d="M172.52,216.6c0-12.89,6.44-25.79,21.09-35.75C209.43,170.31,229.36,165,249.87,165a118.91,118.91,0,0,1,47.46,10h.59l10-13.47c3.51-6.45,23.44,6.44,19.33,13.47-2.93,8.79-8.2,19.34-9.37,30.47-.59,10,2.34,21.69,12.89,24.62,29.89,5.85,80.28-24,101.38-47.47,10-10,18.75,4.69-13.48,36.92-14.65,14.65-55.08,33.4-79.7,27.54-19.33-4.69-34-15.82-41.6-36.92-16.41,14.65-55.08,44.54-86.14,44.54a38.24,38.24,0,0,1-21.09-5.86C178.38,240,172.52,228.9,172.52,216.6Zm114.85-29.89a83.72,83.72,0,0,0-22.85-2.93c-29.3,0-68,11.14-74.42,38.09-1.76,7,1.75,13.48,10.54,14.06C228.77,232.42,266.86,208.4,287.37,186.71Z"/><path class="cls-1" d="M517.06,468.57C481.32,438.1,473.11,362.51,473.11,294c0-33.4,1.76-65,3.52-89.07l-10-4.69c-12.31-3.52-17-18.75-4.69-15.82l14.65,2.93L476,176.17C476.63,141,486,26.74,490.69,2.71c.59-3.51,5.86-3.51,11.14-.58,5.86,2.93,10,8.79,8.79,12.31-3.52,23.43-12.9,137.11-14.07,171.69l.59,3.51h2.34c7,.59,113.1-2.34,123.64-6.44,11.72-3.52,12.31,10-11.13,17.58-17,5.27-55.67,7-81.45,7-9.38,0-17,0-21.68-.59l-5.28-.58,10,8.2c13.47,12.89,22.85,28.13,32.22,44C562.18,291,571,327.35,573.32,361.33c.58,7.62.58,14.65.58,21.69,0,25.19-2.93,48.05-9.37,64.45C561,458,555.15,466.23,548.7,470.91s-16.4,5.86-29.88-1.17C518.23,469.74,517.65,469.15,517.06,468.57ZM554,380.09c0-8.21-.59-17.58-1.17-26.37-2.35-32.23-10-66.22-24.62-94.93a175.44,175.44,0,0,0-26.36-36.33l-6.45-4.69a824.87,824.87,0,0,0-4.1,83.8c0,58.59,6.44,122.46,30.47,152.35l1.76,2.34-1.17-.58c5.85,3.51,15.82,1.17,22.85-19.93C551.05,421.69,554,402.35,554,380.09Z"/><path class="cls-1" d="M663,159.76c0-4.1,5.86-4.1,11.72-1.17,5.28,2.93,8.79,8.79,8.79,12.3l-.59,22.86c14.65-18.76,58-52.74,90.25-47.47,13.47,2.34,21.68,14.65,17.57,19.34-8.2,9.37-16.4,5.86-15.82,1.17l.59-4.69c-29.3-.58-77.94,35.16-92,75.59-1.76,4.69-1.76,8.21-4.1,25.2.59,7.62-18.75,0-21.1-8.79C655.93,248.83,654.76,233.59,663,159.76Z"/><path class="cls-1" d="M1066.11,257c-21.09,0-39.85-1.76-54.49-5.27-19.34-5.28-52.74-29.89-52.74-46.88v-.59c-20.51,15.24-46.88,39.85-76.18,39.85-14.65,0-31.06-9.38-39.26-22.27-4.1-7-5.86-13.47-5.86-19.92,0-10,4.69-19.34,15.23-27.54,11.14-8.79,29.89-14.65,53.33-14.65,13.48,0,29.3,2.34,45.71,7l8.2,2.34c8.79-11.72,10-12.3,10-12.89,3.52-6.44,23.44,6.45,20.51,13.48l-1.17,1.76A58.91,58.91,0,0,0,980.56,202c0,12.89,5.27,24,18.16,28.13,12.31,3.51,31.65,4.68,55.67,4.68,69.15,0,169.94-11.72,196.3-19.33,4.11-1.18,25.79-6.45,28.72-1.76,4.69,4.69-19.93,14.06-24,15.23C1214.37,242.38,1130.57,257,1066.11,257ZM947.74,182l1.17-1.17-7-1.17a107.65,107.65,0,0,0-24-2.34c-16.41,0-33.4,3.51-46.88,12.89-8.2,5.27-14.65,16.41-14.65,24.61,0,6.44,4.1,11.72,14.65,11.72C895,226.56,931.34,200.19,947.74,182Z"/></svg>