<svg xmlns="http://www.w3.org/2000/svg" viewBox="0 0 1280 357"><defs><style>.cls-1{fill:tan;}</style></defs><g id="Wordmark"><path class="cls-1" d="M0,182.66V6.92H48.89q26.14,0,44.53,8T123.07,36A84,84,0,0,1,139.53,65a103.4,103.4,0,0,1,5.2,32.2q0,19.61-7,35.34a82,82,0,0,1-19.12,27,83.9,83.9,0,0,1-27.83,17.19,93.76,93.76,0,0,1-33.4,5.93Zm25.9-24.93H52.52a80.21,80.21,0,0,0,26.26-4.12,59.52,59.52,0,0,0,20.82-12.1,54.19,54.19,0,0,0,13.67-19.61q4.85-11.62,4.84-26.63,0-16.22-5.45-28.2a57.84,57.84,0,0,0-14.4-19.85,58.89,58.89,0,0,0-20-11.62,69.08,69.08,0,0,0-22.39-3.75h-30Z"/><path class="cls-1" d="M344.89,60.66a92.67,92.67,0,0,0-19.6-28.81,93.91,93.91,0,0,0-28.8-19.72,87.95,87.95,0,0,0-69.47,0,91.12,91.12,0,0,0-28.56,19.72,92.63,92.63,0,0,0-19.24,28.81A86.84,86.84,0,0,0,172.32,95a89.57,89.57,0,0,0,6.9,35.22,87.72,87.72,0,0,0,19.24,28.57,90.88,90.88,0,0,0,98.15,18.88,90.82,90.82,0,0,0,48.28-47.81,86.55,86.55,0,0,0,7-34.86A85.39,85.39,0,0,0,344.89,60.66ZM237.19,35a62.8,62.8,0,0,1,49.49,0,62.83,62.83,0,0,1,20.09,14,67.4,67.4,0,0,1,13.56,20.7c.24.54.45,1.09.63,1.63-46.77-.27-84.5-32-87.43-34.58C234.74,36.15,236,35.55,237.19,35Zm83.26,85.33A64.78,64.78,0,0,1,307,140.91a61.61,61.61,0,0,1-20,13.79,60.7,60.7,0,0,1-24.45,5,62.11,62.11,0,0,1-24.81-5,63.09,63.09,0,0,1-20.21-13.79A64.69,64.69,0,0,1,199,95a67.4,67.4,0,0,1,4.72-25.17A62.77,62.77,0,0,1,214,52.49C256.31,90.83,315.09,96,325.26,96.58A64.55,64.55,0,0,1,320.45,120.33Z"/><polygon class="cls-1" points="544.32 6.92 544.32 188.71 543.6 188.71 415.84 61.84 416.53 182.66 390.39 182.66 390.39 1.35 391.6 1.35 519.12 129.83 518.67 6.92 544.32 6.92"/><path class="cls-1" d="M654.69-.1h-1.45L576,182.66h25.41l17.85-43.57h65.89l17.19,43.57H731.9ZM628.43,116.82l24.44-59.61,23.51,59.61Z"/><path class="cls-1" d="M832.3,9.47h25.8V184.53H832.3Z"/><path class="cls-1" d="M1067.6,9.47h25.79V184.53H1067.6Z"/><path class="cls-1" d="M1203.09,2.47h-1.44l-76.91,182.05h25.31l17.79-43.4h65.63l17.12,43.4H1280Zm-26.15,116.46,24.35-59.39,23.43,59.39Z"/><path class="cls-1" d="M1034.38,184.52l-44.52-69.05a48.1,48.1,0,0,0,15.3-11.73,51.6,51.6,0,0,0,10.13-18.32,69.57,69.57,0,0,0,3.13-20.5,56.47,56.47,0,0,0-4.71-23.74,48.94,48.94,0,0,0-13-17.25,58.22,58.22,0,0,0-20-10.72,83.07,83.07,0,0,0-25.42-3.75h-48V184.52h25.8V121.83h25.55c1.45,0,2.86,0,4.25-.08l40.35,62.77c29.64,46.65,90.17,46.65,90.17,46.65v-26C1046.06,205.2,1034.38,184.52,1034.38,184.52ZM974.65,94.1q-6.61,3.14-16.5,3.13H933.08V34.3h26.51A34.57,34.57,0,0,1,975,37.43a28.58,28.58,0,0,1,10,8,30.47,30.47,0,0,1,5.3,10.13,35.3,35.3,0,0,1,1.58,10.13,37.21,37.21,0,0,1-1.58,10.49A28.76,28.76,0,0,1,985,86.27,28.07,28.07,0,0,1,974.65,94.1Z"/><polygon class="cls-1" points="258.92 350.29 258.92 355.56 216.9 355.56 216.9 290.11 257.65 290.11 257.65 295.37 222.35 295.37 222.35 319.97 254.11 319.97 254.11 325.24 222.35 325.24 222.35 350.29 258.92 350.29"/><polygon class="cls-1" points="357.22 290.11 357.22 357.1 356.31 357.1 356.16 356.93 307.4 301.97 307.48 355.56 302.12 355.56 302.12 288.74 303.12 288.74 303.27 288.91 352.04 344.31 351.95 290.11 357.22 290.11"/><path class="cls-1" d="M464.14,310a34.94,34.94,0,0,0-7.23-10.68A33.86,33.86,0,0,0,446.22,292a32.47,32.47,0,0,0-13-2.63,32.1,32.1,0,0,0-13,2.63,34.27,34.27,0,0,0-17.83,18,32.83,32.83,0,0,0-2.58,12.95,33.83,33.83,0,0,0,2.58,13.27,32.62,32.62,0,0,0,7.19,10.6,33.12,33.12,0,0,0,10.65,7,33.59,33.59,0,0,0,12.94,2.49,33.13,33.13,0,0,0,13-2.58,33.61,33.61,0,0,0,10.69-7.19,34.36,34.36,0,0,0,7.23-10.63,33.34,33.34,0,0,0,0-25.91Zm-30.91-15.32a27,27,0,0,1,10.87,2.22A28.63,28.63,0,0,1,459,312a28.44,28.44,0,0,1,0,21.89,28.24,28.24,0,0,1-14.94,14.94,27.54,27.54,0,0,1-11,2.19,26.79,26.79,0,0,1-10.74-2.19,28.48,28.48,0,0,1-8.88-6,27.76,27.76,0,0,1-8.11-19.8,28.35,28.35,0,0,1,16.86-26.09A26.59,26.59,0,0,1,433.23,294.65Z"/><polygon class="cls-1" points="544.18 290.11 544.18 295.37 525.21 295.37 525.21 355.56 519.77 355.56 519.77 295.37 500.98 295.37 500.98 290.11 544.18 290.11"/><path class="cls-1" d="M630.77,290.11v43.43a23.78,23.78,0,0,1-3,12.24,20.37,20.37,0,0,1-8.19,7.81,26.06,26.06,0,0,1-23.06,0,20,20,0,0,1-8.14-7.81,24.07,24.07,0,0,1-3-12.24V290.11h5.44v43.16a19,19,0,0,0,2.25,9.47,15.86,15.86,0,0,0,6.12,6.12A17.93,17.93,0,0,0,608,351a18.29,18.29,0,0,0,9-2.17,15.67,15.67,0,0,0,6.16-6.11,18.93,18.93,0,0,0,2.25-9.47V290.11Z"/><path class="cls-1" d="M702.23,326.69a17.93,17.93,0,0,0,6.19-4.34,17.22,17.22,0,0,0,3.65-6.31,23.84,23.84,0,0,0,1.11-7.19,18.12,18.12,0,0,0-1.87-8.49,17.5,17.5,0,0,0-4.91-5.84,20.77,20.77,0,0,0-6.7-3.35,26.13,26.13,0,0,0-7.35-1.06h-15.2v65.45h5.44V328.51h9.49a33.13,33.13,0,0,0,4.59-.31l16.82,27.36h6.34Zm2.17-8.17a12.65,12.65,0,0,1-4.81,3.4,20.05,20.05,0,0,1-7.79,1.32h-9.21V295.37H693a16.18,16.18,0,0,1,6.08,1.1,14.18,14.18,0,0,1,4.65,3,12.79,12.79,0,0,1,2.92,4.33,13.71,13.71,0,0,1,1,5.25,17.12,17.12,0,0,1-.75,4.9A13,13,0,0,1,704.4,318.52Z"/><rect class="cls-1" x="761.82" y="290.11" width="5.45" height="65.45"/><path class="cls-1" d="M851.13,337.63a18.4,18.4,0,0,1-2.61,9.75,17.72,17.72,0,0,1-7.28,6.58,23.86,23.86,0,0,1-10.75,2.32,31.13,31.13,0,0,1-8.91-1.2,36.72,36.72,0,0,1-7-2.81c-2-1-3.54-2-4.7-2.69l-.41-.26,2.61-4.53.45.33a35.24,35.24,0,0,0,4.78,2.86,35.84,35.84,0,0,0,6.14,2.42,20.52,20.52,0,0,0,14-.52,14.29,14.29,0,0,0,5.87-4.52,12.23,12.23,0,0,0,2.31-7.64,11.29,11.29,0,0,0-2.16-7.18,17,17,0,0,0-5.65-4.54,65.52,65.52,0,0,0-7.48-3.24c-2.07-.8-4.15-1.64-6.19-2.51a29,29,0,0,1-5.73-3.23,14.93,14.93,0,0,1-4.18-4.65,13.31,13.31,0,0,1-1.56-6.6,14.5,14.5,0,0,1,2.45-8.37,16.49,16.49,0,0,1,6.59-5.56,22.49,22.49,0,0,1,9.42-2.1,38,38,0,0,1,9.35,1.2,36.85,36.85,0,0,1,8.23,3l.43.22L847,298.53l-.45-.21a43.38,43.38,0,0,0-6.81-2.51,29,29,0,0,0-8-1.16c-4.1,0-7.41,1-9.85,3.06a9.42,9.42,0,0,0-3.63,7.6,8.2,8.2,0,0,0,2,5.7,17.42,17.42,0,0,0,5.56,4c2.34,1.11,4.86,2.19,7.5,3.21,2.11.79,4.25,1.68,6.34,2.64a27.87,27.87,0,0,1,5.78,3.61,15.92,15.92,0,0,1,4.17,5.34A18.1,18.1,0,0,1,851.13,337.63Z"/><polygon class="cls-1" points="956.69 289.15 956.69 355.56 951.33 355.56 951.33 303.67 925.59 339.94 924.89 339.94 899.33 304.17 899.33 355.56 893.97 355.56 893.97 288.65 894.73 288.65 894.97 288.87 925.28 331.91 955.84 288.65 956.6 288.65 956.69 289.15"/><path class="cls-1" d="M1063.61,310a34.76,34.76,0,0,0-7.23-10.68A33.82,33.82,0,0,0,1045.7,292a32.52,32.52,0,0,0-13-2.63,32.14,32.14,0,0,0-13,2.63,34.2,34.2,0,0,0-17.82,18,32.66,32.66,0,0,0-2.59,12.95,33.83,33.83,0,0,0,2.58,13.27,32.78,32.78,0,0,0,7.19,10.6,33.12,33.12,0,0,0,10.65,7,33.59,33.59,0,0,0,12.94,2.49,33.1,33.1,0,0,0,13-2.58,33.5,33.5,0,0,0,10.69-7.19,34.36,34.36,0,0,0,7.23-10.63,33.22,33.22,0,0,0,0-25.91Zm-30.91-15.32a27,27,0,0,1,10.87,2.22A28.63,28.63,0,0,1,1058.51,312a28.5,28.5,0,0,1,0,21.89,28.21,28.21,0,0,1-15,14.94,27.5,27.5,0,0,1-11,2.19,26.79,26.79,0,0,1-10.74-2.19,28.32,28.32,0,0,1-8.87-6,27.72,27.72,0,0,1-8.12-19.8,28.49,28.49,0,0,1,8-19.89,28.15,28.15,0,0,1,8.87-6.2A26.62,26.62,0,0,1,1032.7,294.65Z"/></g></svg>